<?xml version="1.0" encoding="UTF-8"?>
<svg id="Layer_1" xmlns="http://www.w3.org/2000/svg" version="1.1" viewBox="0 0 2000 2000">
  <!-- Generator: Adobe Illustrator 30.1.0, SVG Export Plug-In . SVG Version: 2.1.1 Build 136)  -->
  <defs>
    <style>
      .st0 {
        fill: none;
      }

      .st1 {
        fill: #231f20;
      }
    </style>
  </defs>
  <rect class="st0" width="2000" height="2000"/>
  <g>
    <path class="st1" d="M412.6,704.9c108.1-213.7,329.9-360.5,585.3-360.5s77.1,3.4,114.2,10c8.3,1.5,15.9-4.9,15.9-13.3h0c0-6.7-4.7-12.3-11.2-13.5-39-6.8-78.6-10.3-118.8-10.3-92.1,0-181.5,18-265.7,53.6-81.3,34.4-154.3,83.6-217,146.3-62.7,62.7-111.9,135.7-146.3,217-35.6,84.2-53.6,173.5-53.6,265.7s.5,31,1.5,46.3c.5,7.1,6.4,12.7,13.5,12.7s14-6.7,13.5-14.5c-1-14.7-1.5-29.6-1.5-44.5,0-102.2,23.5-199.1,65.5-285.4l4.7-9.5Z"/>
    <path class="st1" d="M1661.2,1100.6c6.8,0,12.6-5.1,13.5-11.8,3.8-29.3,5.7-59,5.7-89,0-92.1-18-181.5-53.6-265.7-34.4-81.3-83.6-154.3-146.3-217-45.7-45.7-96.9-84.3-152.8-115.1-3-1.6-6.4-2.1-9.7-1.3h-.5c-12,3-14.1,19.1-3.3,25.1,202,111.8,339.1,327.2,339.1,573.9s-1.9,57.4-5.5,85.4c-1.1,8.2,5.2,15.4,13.4,15.4Z"/>
    <path class="st1" d="M679.9,1580.8c0-4.9-2.7-9.4-6.9-11.9-69.3-39.7-130.7-91.8-181.2-153.1-4.3-5.2-11.7-6.4-17.4-3l-.3.2c-7.1,4.3-8.8,13.8-3.5,20.2,14,17,28.9,33.4,44.7,49.2,43.4,43.4,91.7,80.2,144.2,110.2,9.1,5.2,20.4-1.4,20.4-11.9Z"/>
    <path class="st1" d="M886.4,1673.3c36.6,6,73.8,9,111.4,9,92.1,0,181.5-18,265.7-53.6,81.3-34.4,154.3-83.6,217-146.3,41.3-41.3,76.7-87.1,105.9-136.7,5.4-9.1-1.2-20.7-11.8-20.7h0c-4.9,0-9.3,2.6-11.8,6.8-52.6,89.1-125.6,164.8-212.6,220.4l-8.9,5.6c-99.9,61.7-217.6,97.3-343.4,97.3s-72.2-3-107-8.7c-8.3-1.4-15.9,5-15.9,13.4h0c0,6.7,4.8,12.3,11.4,13.4Z"/>
  </g>
</svg>