<?xml version="1.0" encoding="UTF-8"?>
<svg id="Layer_1" xmlns="http://www.w3.org/2000/svg" version="1.1" viewBox="0 0 2000 2000">
  <!-- Generator: Adobe Illustrator 30.1.0, SVG Export Plug-In . SVG Version: 2.1.1 Build 136)  -->
  <defs>
    <style>
      .st0 {
        fill: none;
      }

      .st1 {
        fill: #231f20;
      }
    </style>
  </defs>
  <rect class="st0" width="2000" height="2000"/>
  <g>
    <path class="st1" d="M1589.9,407.7c-76.9-76.9-166.4-137.3-266.1-179.4-103.2-43.7-212.9-65.8-325.9-65.8s-57.1,1.4-85.3,4.3c-6.9.7-12.2,6.5-12.2,13.5h0c0,8.1,6.9,14.4,14.9,13.6,27.2-2.8,54.8-4.2,82.7-4.2,289.1,0,543.3,152.2,686.8,380.7,2.5,4,6.9,6.5,11.7,6.5,10.8,0,17.4-11.9,11.6-21.1-33.4-53.4-72.8-102.9-118-148Z"/>
    <path class="st1" d="M696.6,247.7c5.1-2.1,8.5-7,8.5-12.6v-.3c0-9.6-9.7-16.1-18.6-12.5-4.9,2-9.8,4-14.6,6-99.7,42.2-189.3,102.5-266.1,179.4-52.3,52.3-96.9,110.4-133.4,173.6-1.2,2.1-1.8,4.4-1.8,6.8v.7c0,13.9,18.4,18.8,25.3,6.8,90.4-156.4,231.5-279.9,400.7-347.9Z"/>
    <path class="st1" d="M466.8,1611.2c-170.9-148.7-279.1-367.6-279.1-611.4s10.9-152.1,31.2-222.9c2.5-8.7-4-17.3-13-17.3h-.2c-6.1,0-11.4,4.1-13.1,9.9-21.3,74.5-32.1,151.6-32.1,230.4,0,113,22.1,222.7,65.8,325.9,42.2,99.7,102.5,189.3,179.4,266.1,13.9,13.9,28.2,27.2,42.8,40,4.5,3.9,10.9,4.5,15.9,1.4l.4-.2c7.9-4.8,8.8-15.8,1.9-21.9Z"/>
    <path class="st1" d="M1155.1,1811c0-8.5-7.6-14.9-16-13.4-45.9,7.9-93.1,11.5-141.2,12.4-180.1,3.2-342.7-74.7-376.7-90.7-3.8-1.8-8.3-1.6-11.9.6h0c-8.5,5.1-8.1,17.5.7,22.1,20.2,10.6,40.9,20.3,62,29.3,103.2,43.7,212.9,65.8,325.9,65.8s98-4.2,145.9-12.6c6.5-1.1,11.3-6.8,11.3-13.4Z"/>
    <path class="st1" d="M1599.7,1583.4c75.8-78,134.8-168.4,175.5-268.7,42.1-103.9,62.7-213.8,61-326.9-.4-28.7-2.3-57.1-5.5-85.3-.8-6.9-6.7-12.1-13.6-12h-.1c-8,.1-14.1,7.1-13.2,15.1,3.2,27.1,5,54.7,5.4,82.6,4.2,289.1-144.2,545.5-370.6,692.3-4,2.6-6.4,7-6.3,11.7.2,10.8,12.2,17.2,21.2,11.3,52.9-34.2,101.8-74.4,146.3-120.1Z"/>
  </g>
</svg>