<?xml version="1.0" encoding="UTF-8"?>
<svg id="Layer_1" xmlns="http://www.w3.org/2000/svg" version="1.1" viewBox="0 0 2000 2000">
  <!-- Generator: Adobe Illustrator 30.1.0, SVG Export Plug-In . SVG Version: 2.1.1 Build 136)  -->
  <defs>
    <style>
      .st0 {
        fill: none;
      }

      .st1 {
        fill: #231f20;
      }
    </style>
  </defs>
  <rect class="st0" width="2000" height="2000"/>
  <g>
    <path class="st1" d="M1906.9,615.8c-49.7-117.5-120.8-223-211.4-313.6s-196.1-161.7-313.6-211.4c-18.1-7.7-36.5-14.8-54.9-21.3-8.9-3.2-18.3,3.4-18.3,12.9h0c0,5.7,3.6,10.8,9.1,12.8,368.8,130.8,634.6,481,639.6,893,0,0,0,.2.3.3,16.9,21.9,26.6,0,26.6,0l.3-.3c-1.5-129-27.5-254.2-77.5-372.3Z"/>
    <path class="st1" d="M465.1,1797.4c-86.7-58.1-163.5-130-227.1-212.4-4.2-5.4-11.8-6.8-17.7-3.3l-.4.3c-7,4.2-8.7,13.5-3.7,19.9,25.8,33.4,53.9,65.3,84.1,95.5,46.1,46.1,96,87.1,149.4,122.9,4.4,2.9,10,3,14.5.3l.4-.3c8.5-5.1,8.8-17.4.5-22.9Z"/>
    <path class="st1" d="M1944.3,1212.8h0c-6.3,0-11.8,4.4-13.3,10.5-96.8,404-449.9,709.5-877.1,734.3-7.2.4-12.7,6.4-12.7,13.5s6.6,14,14.4,13.5c112.8-6.5,222.3-31.9,326.3-75.9,117.5-49.7,223-120.8,313.6-211.4,90.6-90.6,161.7-196.1,211.4-313.6,21.2-50.2,38.1-101.7,50.7-154.2,2-8.6-4.5-16.8-13.3-16.8Z"/>
    <path class="st1" d="M55.7,1182c-1.2-6.4-6.8-10.9-13.3-10.9h-.1c-8.5,0-14.9,7.8-13.3,16.1,12.9,67.3,32.9,133,59.8,196.6,9.7,22.9,20.2,45.4,31.6,67.4,3.6,7,12.3,9.5,19.1,5.4l.3-.2c6.1-3.7,8.3-11.5,5.1-17.8-41.2-79.8-71.6-166-89.1-256.8Z"/>
    <path class="st1" d="M40.6,934C74.6,435.5,490.9,40.3,997.9,40.3s67.6,1.8,100.7,5.3c8,.8,14.9-5.4,14.9-13.4h0c0-7.1-5.3-12.9-12.2-13.6-34.2-3.5-68.7-5.3-103.4-5.3-133.2,0-262.4,26.1-384,77.5-117.5,49.7-223,120.8-313.6,211.4-90.6,90.6-161.7,196.1-211.4,313.6-42.7,100.9-67.9,207-75.3,316.3-.5,7.8,5.7,14.5,13.5,14.5h0c7.1,0,13-5.5,13.5-12.6Z"/>
    <path class="st1" d="M834.9,1945.4c-91-15.6-177.7-44.2-258.1-83.6-6.9-3.4-15.3-.7-19,6.1-4,7.5-.7,16.8,7.2,20.1l25.2,10.4c7.9,3.6,15.8,7,23.7,10.4,69.9,29.5,142.2,50.7,216.4,63.4,8.3,1.4,15.9-5,15.9-13.4s-4.7-12.3-11.2-13.4Z"/>
  </g>
</svg>