<?xml version="1.0" encoding="UTF-8"?>
<svg id="Layer_1" xmlns="http://www.w3.org/2000/svg" version="1.1" viewBox="0 0 100 100">
  <!-- Generator: Adobe Illustrator 29.6.1, SVG Export Plug-In . SVG Version: 2.1.1 Build 9)  -->
  <defs>
    <style>
      .st0 {
        fill: #fff;
      }
    </style>
  </defs>
  <path class="st0" d="M50.1.5C22.9.5.8,22.6.8,49.8s22,49.2,49.2,49.2,49.2-22,49.2-49.2S77.3.5,50.1.5ZM50.1,91.9c-11.6,0-22.2-4.7-29.8-12.3-7.6-7.6-12.3-18.2-12.3-29.8C7.9,26.5,26.8,7.6,50.1,7.6s42.1,18.9,42.1,42.1-18.9,42.1-42.1,42.1Z"/>
  <path class="st0" d="M50.1,14.1c-19.7,0-35.6,16-35.6,35.6s16,35.6,35.6,35.6,35.6-16,35.6-35.6S69.7,14.1,50.1,14.1ZM50.1,78.3c-15.7,0-28.5-12.8-28.5-28.5s12.8-28.5,28.5-28.5,28.5,12.8,28.5,28.5-12.8,28.5-28.5,28.5Z"/>
  <path class="st0" d="M56.3,48.6c0,3.3-3,6.2-6.3,6.3-3.6.1-6.5-2.8-6.5-6.5,0-3.5,2.6-6.1,6.2-6.2,3.7,0,6.6,2.8,6.6,6.4Z"/>
</svg>