<?xml version="1.0" encoding="UTF-8"?>
<svg id="Layer_1" xmlns="http://www.w3.org/2000/svg" version="1.1" viewBox="0 0 1400 85">
  <!-- Generator: Adobe Illustrator 29.8.1, SVG Export Plug-In . SVG Version: 2.1.1 Build 2)  -->
  <defs>
    <style>
      .st0, .st1, .st2 {
        fill: #fa45e4;
      }

      .st1, .st3 {
        stroke: #fa45e4;
        stroke-miterlimit: 10;
        stroke-width: 4px;
      }

      .st4 {
        letter-spacing: 0em;
      }

      .st4, .st5 {
        fill: #88ff5b;
      }

      .st4, .st5, .st2 {
        font-family: SpaceMono-Regular, 'Space Mono';
        font-size: 30px;
      }

      .st5, .st2 {
        letter-spacing: 0em;
      }

      .st3 {
        fill: none;
      }
    </style>
  </defs>
  <rect class="st1" x="2.7" y="3" width="444" height="79" rx="39.5" ry="39.5"/>
  <rect class="st3" x="427.9" y="3" width="542.8" height="79" rx="39.5" ry="39.5"/>
  <rect class="st1" x="952.7" y="3" width="444" height="79" rx="39.5" ry="39.5"/>
  <text class="st2" transform="translate(517.1 53.5)"><tspan x="0" y="0">SENSORIAL TRANSITION</tspan></text>
  <text class="st4" transform="translate(1038.1 53.5)"><tspan x="0" y="0">HYPNOTIC AFTERS</tspan></text>
  <text class="st5" transform="translate(88.1 53.5)"><tspan x="0" y="0">FUTURIST DINNER</tspan></text>
  <g>
    <path class="st0" d="M487.5,41.4l-9.8-8c-.7-.5-1.6-.4-2.1.2-.5.7-.4,1.6.2,2.1l6.5,5.3h-15.3c-.8,0-1.5.7-1.5,1.5s.7,1.5,1.5,1.5h15.3l-6.5,5.3c-.7.5-.8,1.5-.2,2.1.3.4.7.6,1.2.6s.7-.1,1-.3l9.8-8c.4-.3.6-.7.6-1.2s-.2-.9-.6-1.2Z"/>
    <path class="st0" d="M463,41h-2.9c-.8,0-1.5.7-1.5,1.5s.7,1.5,1.5,1.5h2.9c.8,0,1.5-.7,1.5-1.5s-.7-1.5-1.5-1.5Z"/>
    <path class="st0" d="M456.1,41h-2.9c-.8,0-1.5.7-1.5,1.5s.7,1.5,1.5,1.5h2.9c.8,0,1.5-.7,1.5-1.5s-.7-1.5-1.5-1.5Z"/>
  </g>
  <g>
    <path class="st0" d="M946.8,41.4l-9.8-8c-.7-.5-1.6-.4-2.1.2-.5.7-.4,1.6.2,2.1l6.5,5.3h-15.3c-.8,0-1.5.7-1.5,1.5s.7,1.5,1.5,1.5h15.3l-6.5,5.3c-.7.5-.8,1.5-.2,2.1.3.4.7.6,1.2.6s.7-.1,1-.3l9.8-8c.4-.3.6-.7.6-1.2s-.2-.9-.6-1.2Z"/>
    <path class="st0" d="M922.3,41h-2.9c-.8,0-1.5.7-1.5,1.5s.7,1.5,1.5,1.5h2.9c.8,0,1.5-.7,1.5-1.5s-.7-1.5-1.5-1.5Z"/>
    <path class="st0" d="M915.5,41h-2.9c-.8,0-1.5.7-1.5,1.5s.7,1.5,1.5,1.5h2.9c.8,0,1.5-.7,1.5-1.5s-.7-1.5-1.5-1.5Z"/>
  </g>
</svg>