<?xml version="1.0" encoding="UTF-8"?>
<svg id="Layer_1" xmlns="http://www.w3.org/2000/svg" version="1.1" viewBox="0 0 1400 85">
  <!-- Generator: Adobe Illustrator 29.8.1, SVG Export Plug-In . SVG Version: 2.1.1 Build 2)  -->
  <defs>
    <style>
      .st0, .st1, .st2 {
        fill: #5c2c7c;
      }

      .st3 {
        fill: none;
      }

      .st3, .st4, .st1, .st2 {
        stroke-miterlimit: 10;
      }

      .st3, .st1, .st2 {
        stroke: #5c2c7c;
      }

      .st3, .st2 {
        stroke-width: 4px;
      }

      .st4 {
        fill: #e8bac9;
        stroke: #e8bac9;
      }
    </style>
  </defs>
  <rect class="st2" x="3" y="3" width="444" height="79" rx="7" ry="7"/>
  <rect class="st3" x="453.8" y="3.3" width="492.3" height="79" rx="7" ry="7"/>
  <rect class="st2" x="952.9" y="3" width="444" height="79" rx="7" ry="7"/>
  <g>
    <path class="st1" d="M533,38.3c0-.7-.1-1.3-.4-1.8-.3-.5-.6-.9-1.1-1.3-.5-.3-1-.6-1.6-.8s-1.2-.3-1.9-.3-1.1,0-1.6.2c-.5.1-1,.4-1.4.6-.4.3-.7.6-1,1-.2.4-.4.9-.4,1.4v.2c0,.6.1,1.1.4,1.5.2.4.6.8,1.1,1,.5.3,1.1.5,1.8.7.7.2,1.5.4,2.5.5,2.2.3,3.8,1,4.9,1.9,1,1,1.6,2.2,1.6,3.8v.4c0,.9-.2,1.7-.5,2.5-.3.8-.8,1.4-1.4,1.9-.6.5-1.4,1-2.3,1.3-.9.3-1.9.5-3.1.5s-2.5-.2-3.6-.6c-1-.4-1.9-.9-2.6-1.6-.7-.7-1.2-1.5-1.6-2.4-.4-.9-.5-1.9-.5-3v-.9h2.5v.7c0,1.8.5,3.2,1.5,4.1s2.4,1.4,4.2,1.4,2.7-.3,3.5-1c.8-.7,1.2-1.6,1.2-2.7v-.2c0-1.1-.4-1.9-1.2-2.5-.8-.6-2.1-1-3.9-1.3-1.1-.1-2-.4-2.9-.6-.9-.3-1.6-.7-2.2-1.1-.6-.5-1.1-1-1.4-1.7-.3-.7-.5-1.4-.5-2.3v-.4c0-.8.2-1.6.5-2.2s.8-1.3,1.4-1.8c.6-.5,1.3-.9,2.2-1.2.8-.3,1.8-.4,2.8-.4s2.2.2,3.2.5c.9.3,1.7.8,2.4,1.4.6.6,1.1,1.2,1.5,2,.3.8.5,1.6.5,2.4v1.3h-2.5v-1.1Z"/>
    <path class="st1" d="M539.9,32.3h12.7v2.3h-10.2v7h10v2.3h-10v7h10.4v2.3h-12.9v-21Z"/>
    <path class="st1" d="M568.6,52.2h.4v-19.9h2.5v21h-5l-6.1-19.9h-.4v19.9h-2.5v-21h5l6.1,19.9Z"/>
    <path class="st1" d="M587.7,38.3c0-.7-.1-1.3-.4-1.8-.3-.5-.6-.9-1.1-1.3-.5-.3-1-.6-1.6-.8s-1.2-.3-1.9-.3-1.1,0-1.6.2c-.5.1-1,.4-1.4.6-.4.3-.7.6-1,1-.2.4-.4.9-.4,1.4v.2c0,.6.1,1.1.4,1.5.2.4.6.8,1.1,1,.5.3,1.1.5,1.8.7.7.2,1.5.4,2.5.5,2.2.3,3.8,1,4.9,1.9,1,1,1.6,2.2,1.6,3.8v.4c0,.9-.2,1.7-.5,2.5-.3.8-.8,1.4-1.4,1.9-.6.5-1.4,1-2.3,1.3-.9.3-1.9.5-3.1.5s-2.5-.2-3.6-.6c-1-.4-1.9-.9-2.6-1.6-.7-.7-1.2-1.5-1.6-2.4-.4-.9-.5-1.9-.5-3v-.9h2.5v.7c0,1.8.5,3.2,1.5,4.1s2.4,1.4,4.2,1.4,2.7-.3,3.5-1c.8-.7,1.2-1.6,1.2-2.7v-.2c0-1.1-.4-1.9-1.2-2.5-.8-.6-2.1-1-3.9-1.3-1.1-.1-2-.4-2.9-.6-.9-.3-1.6-.7-2.2-1.1-.6-.5-1.1-1-1.4-1.7-.3-.7-.5-1.4-.5-2.3v-.4c0-.8.2-1.6.5-2.2s.8-1.3,1.4-1.8c.6-.5,1.3-.9,2.2-1.2.8-.3,1.8-.4,2.8-.4s2.2.2,3.2.5c.9.3,1.7.8,2.4,1.4.6.6,1.1,1.2,1.5,2,.3.8.5,1.6.5,2.4v1.3h-2.5v-1.1Z"/>
    <path class="st1" d="M593.6,40.4c0-2.7.6-4.8,2-6.3,1.3-1.5,3.1-2.2,5.4-2.2s4.1.8,5.4,2.2c1.3,1.5,2,3.6,2,6.3v4.7c0,2.8-.7,4.9-2,6.4-1.3,1.5-3.1,2.2-5.4,2.2s-4.1-.7-5.4-2.2c-1.3-1.5-2-3.6-2-6.4v-4.7ZM600.9,51.4c1.6,0,2.8-.6,3.6-1.7.8-1.1,1.2-2.7,1.2-4.8v-4.3c0-1.9-.4-3.5-1.2-4.7-.8-1.2-2-1.8-3.6-1.8s-2.8.6-3.6,1.8c-.8,1.2-1.2,2.7-1.2,4.7v4.3c0,2.1.4,3.6,1.2,4.8s2,1.7,3.6,1.7Z"/>
    <path class="st1" d="M625.7,53.3h-2.5v-7c0-.5-.1-.9-.4-1.2-.2-.3-.7-.4-1.3-.4h-6.5v8.6h-2.5v-21h7.5c1.1,0,2,.2,2.8.5.8.3,1.5.7,2,1.2.5.5.9,1.1,1.2,1.8.3.7.4,1.4.4,2.2v.9c0,.8-.2,1.6-.6,2.3-.4.8-1.1,1.4-2,1.8v.4c.6.1,1.1.3,1.4.7.3.4.5.9.5,1.6v7.6ZM615,42.3h4.7c1.4,0,2.5-.3,3.2-.9.7-.6,1-1.5,1-2.7v-.5c0-1.1-.3-1.9-1-2.6-.7-.6-1.7-1-3.2-1h-4.7v7.7Z"/>
    <path class="st1" d="M630.7,32.3h13.3v2.3h-5.4v16.3h5.4v2.3h-13.3v-2.3h5.4v-16.3h-5.4v-2.3Z"/>
    <path class="st1" d="M660.1,48.1h-9l-1.5,5.2h-2.7l6.4-21h4.7l6.4,21h-2.7l-1.5-5.2ZM655.4,33.4l-3.6,12.4h7.6l-3.6-12.4h-.4Z"/>
    <path class="st1" d="M667.2,32.3h2.5v18.7h11v2.3h-13.5v-21Z"/>
    <path class="st1" d="M702.8,32.3h14.8v2.3h-6.1v18.7h-2.5v-18.7h-6.1v-2.3Z"/>
    <path class="st1" d="M735,53.3h-2.5v-7c0-.5-.1-.9-.4-1.2s-.7-.4-1.3-.4h-6.5v8.6h-2.5v-21h7.5c1.1,0,2,.2,2.8.5.8.3,1.5.7,2,1.2.5.5.9,1.1,1.2,1.8.3.7.4,1.4.4,2.2v.9c0,.8-.2,1.6-.6,2.3-.4.8-1.1,1.4-2,1.8v.4c.6.1,1.1.3,1.4.7.3.4.5.9.5,1.6v7.6ZM724.3,42.3h4.7c1.4,0,2.5-.3,3.2-.9.7-.6,1-1.5,1-2.7v-.5c0-1.1-.3-1.9-1-2.6-.7-.6-1.7-1-3.2-1h-4.7v7.7Z"/>
    <path class="st1" d="M751.1,48.1h-9l-1.5,5.2h-2.7l6.4-21h4.7l6.4,21h-2.7l-1.5-5.2ZM746.4,33.4l-3.6,12.4h7.6l-3.6-12.4h-.4Z"/>
    <path class="st1" d="M768.9,52.2h.4v-19.9h2.5v21h-5l-6.1-19.9h-.4v19.9h-2.5v-21h5l6.1,19.9Z"/>
    <path class="st1" d="M788,38.3c0-.7-.1-1.3-.4-1.8-.3-.5-.6-.9-1.1-1.3-.5-.3-1-.6-1.6-.8s-1.2-.3-1.9-.3-1.1,0-1.7.2c-.5.1-1,.4-1.4.6-.4.3-.7.6-1,1-.2.4-.4.9-.4,1.4v.2c0,.6.1,1.1.4,1.5.2.4.6.8,1.1,1,.5.3,1.1.5,1.8.7.7.2,1.5.4,2.5.5,2.2.3,3.8,1,4.9,1.9,1,1,1.6,2.2,1.6,3.8v.4c0,.9-.2,1.7-.5,2.5-.3.8-.8,1.4-1.4,1.9-.6.5-1.4,1-2.3,1.3-.9.3-1.9.5-3.1.5s-2.5-.2-3.6-.6-1.9-.9-2.6-1.6-1.2-1.5-1.6-2.4c-.4-.9-.5-1.9-.5-3v-.9h2.5v.7c0,1.8.5,3.2,1.5,4.1s2.4,1.4,4.2,1.4,2.7-.3,3.5-1c.8-.7,1.2-1.6,1.2-2.7v-.2c0-1.1-.4-1.9-1.2-2.5-.8-.6-2.1-1-3.9-1.3-1.1-.1-2-.4-2.9-.6-.9-.3-1.6-.7-2.2-1.1-.6-.5-1.1-1-1.4-1.7-.3-.7-.5-1.4-.5-2.3v-.4c0-.8.2-1.6.5-2.2s.8-1.3,1.4-1.8,1.3-.9,2.2-1.2c.8-.3,1.8-.4,2.8-.4s2.2.2,3.2.5c.9.3,1.7.8,2.4,1.4.6.6,1.1,1.2,1.5,2,.3.8.5,1.6.5,2.4v1.3h-2.5v-1.1Z"/>
    <path class="st1" d="M794.6,32.3h13.3v2.3h-5.4v16.3h5.4v2.3h-13.3v-2.3h5.4v-16.3h-5.4v-2.3Z"/>
    <path class="st1" d="M812.1,32.3h14.8v2.3h-6.1v18.7h-2.5v-18.7h-6.1v-2.3Z"/>
    <path class="st1" d="M831,32.3h13.3v2.3h-5.4v16.3h5.4v2.3h-13.3v-2.3h5.4v-16.3h-5.4v-2.3Z"/>
    <path class="st1" d="M848.5,40.4c0-2.7.6-4.8,2-6.3,1.3-1.5,3.1-2.2,5.4-2.2s4.1.8,5.4,2.2c1.3,1.5,1.9,3.6,1.9,6.3v4.7c0,2.8-.6,4.9-1.9,6.4-1.3,1.5-3.1,2.2-5.4,2.2s-4.1-.7-5.4-2.2c-1.3-1.5-2-3.6-2-6.4v-4.7ZM855.9,51.4c1.6,0,2.8-.6,3.6-1.7.8-1.1,1.2-2.7,1.2-4.8v-4.3c0-1.9-.4-3.5-1.2-4.7-.8-1.2-2-1.8-3.6-1.8s-2.8.6-3.6,1.8c-.8,1.2-1.2,2.7-1.2,4.7v4.3c0,2.1.4,3.6,1.2,4.8.8,1.1,2,1.7,3.6,1.7Z"/>
    <path class="st1" d="M878.2,52.2h.4v-19.9h2.5v21h-5l-6.1-19.9h-.4v19.9h-2.5v-21h5l6.1,19.9Z"/>
  </g>
  <g>
    <path class="st4" d="M1040.1,32.5h2.5v9.3h8.9v-9.3h2.5v21h-2.5v-9.4h-8.9v9.4h-2.5v-21Z"/>
    <path class="st4" d="M1064.1,46.1h-.5l-6.6-13.6h2.8l5.4,11.5h.4l5.4-11.5h2.8l-6.6,13.6h-.5v7.4h-2.5v-7.4Z"/>
    <path class="st4" d="M1079.4,44.9v8.6h-2.5v-21h7.5c1.1,0,2,.2,2.8.5.8.3,1.5.7,2,1.2.5.5.9,1.1,1.2,1.8.3.7.4,1.4.4,2.2v.9c0,.8-.1,1.5-.4,2.2-.3.7-.7,1.3-1.2,1.8-.5.5-1.2,1-2,1.3-.8.3-1.7.5-2.8.5h-5ZM1079.4,42.5h4.7c2.8,0,4.2-1.2,4.2-3.6v-.5c0-1.1-.3-1.9-1-2.6-.7-.6-1.7-1-3.2-1h-4.7v7.7Z"/>
    <path class="st4" d="M1105.8,52.4h.4v-19.9h2.5v21h-5l-6.1-19.9h-.4v19.9h-2.5v-21h5l6.1,19.9Z"/>
    <path class="st4" d="M1112.6,40.7c0-2.7.6-4.8,2-6.3,1.3-1.5,3.1-2.2,5.4-2.2s4.1.8,5.4,2.2c1.3,1.5,1.9,3.6,1.9,6.3v4.7c0,2.8-.6,4.9-1.9,6.4-1.3,1.5-3.1,2.2-5.4,2.2s-4.1-.7-5.4-2.2c-1.3-1.5-2-3.6-2-6.4v-4.7ZM1119.9,51.6c1.6,0,2.8-.6,3.6-1.7.8-1.1,1.2-2.7,1.2-4.8v-4.3c0-1.9-.4-3.5-1.2-4.7-.8-1.2-2-1.8-3.6-1.8s-2.8.6-3.6,1.8c-.8,1.2-1.2,2.7-1.2,4.7v4.3c0,2.1.4,3.6,1.2,4.8.8,1.1,2,1.7,3.6,1.7Z"/>
    <path class="st4" d="M1130.8,32.5h14.8v2.3h-6.1v18.7h-2.5v-18.7h-6.1v-2.3Z"/>
    <path class="st4" d="M1149.7,32.5h13.3v2.3h-5.4v16.3h5.4v2.3h-13.3v-2.3h5.4v-16.3h-5.4v-2.3Z"/>
    <path class="st4" d="M1174.7,51.6c.9,0,1.6-.1,2.2-.4.6-.3,1.1-.7,1.5-1.2.4-.5.7-1,.9-1.7.2-.6.3-1.3.3-2v-.4h2.5v.4c0,1.1-.2,2.1-.5,3-.3.9-.8,1.7-1.4,2.4-.6.7-1.4,1.2-2.3,1.6-.9.4-2,.6-3.2.6-2.3,0-4.1-.7-5.4-2.2-1.3-1.5-2-3.6-2-6.4v-4.7c0-2.7.6-4.8,2-6.3,1.3-1.5,3.1-2.2,5.4-2.2s2.3.2,3.2.6c.9.4,1.7.9,2.3,1.6s1.1,1.5,1.4,2.4c.3.9.5,1.9.5,3v.4h-2.5v-.4c0-.7-.1-1.3-.3-2-.2-.6-.5-1.2-.9-1.7-.4-.5-.9-.9-1.5-1.2-.6-.3-1.3-.4-2.2-.4-1.6,0-2.8.6-3.6,1.8-.8,1.2-1.2,2.7-1.2,4.7v4.3c0,2.1.4,3.6,1.2,4.8.8,1.1,2,1.7,3.6,1.7Z"/>
    <path class="st4" d="M1215.5,48.3h-9l-1.5,5.2h-2.7l6.4-21h4.7l6.4,21h-2.7l-1.5-5.2ZM1210.8,33.6l-3.6,12.4h7.6l-3.6-12.4h-.4Z"/>
    <path class="st4" d="M1222.9,32.5h12.9v2.3h-10.4v7h10.2v2.3h-10.2v9.4h-2.5v-21Z"/>
    <path class="st4" d="M1240,32.5h14.8v2.3h-6.1v18.7h-2.5v-18.7h-6.1v-2.3Z"/>
    <path class="st4" d="M1259.3,32.5h12.7v2.3h-10.2v7h10v2.3h-10v7h10.4v2.3h-12.9v-21Z"/>
    <path class="st4" d="M1290.4,53.5h-2.5v-7c0-.5-.1-.9-.4-1.2s-.7-.4-1.3-.4h-6.5v8.6h-2.5v-21h7.5c1.1,0,2,.2,2.8.5.8.3,1.5.7,2,1.2.5.5.9,1.1,1.2,1.8.3.7.4,1.4.4,2.2v.9c0,.8-.2,1.6-.6,2.3-.4.8-1.1,1.4-2,1.8v.4c.6.1,1.1.3,1.4.7.3.4.5.9.5,1.6v7.6ZM1279.7,42.5h4.7c1.4,0,2.5-.3,3.2-.9.7-.6,1-1.5,1-2.7v-.5c0-1.1-.3-1.9-1-2.6-.7-.6-1.7-1-3.2-1h-4.7v7.7Z"/>
    <path class="st4" d="M1307,38.6c0-.7-.1-1.3-.4-1.8-.3-.5-.6-.9-1.1-1.3-.5-.3-1-.6-1.6-.8s-1.2-.3-1.9-.3-1.1,0-1.7.2c-.5.1-1,.4-1.4.6-.4.3-.7.6-1,1-.2.4-.4.9-.4,1.4v.2c0,.6.1,1.1.4,1.5.2.4.6.8,1.1,1,.5.3,1.1.5,1.8.7.7.2,1.5.4,2.5.5,2.2.3,3.8,1,4.9,1.9,1,1,1.6,2.2,1.6,3.8v.4c0,.9-.2,1.7-.5,2.5-.3.8-.8,1.4-1.4,1.9-.6.5-1.4,1-2.3,1.3-.9.3-1.9.5-3.1.5s-2.5-.2-3.6-.6-1.9-.9-2.6-1.6-1.2-1.5-1.6-2.4c-.4-.9-.5-1.9-.5-3v-.9h2.5v.7c0,1.8.5,3.2,1.5,4.1s2.4,1.4,4.2,1.4,2.7-.3,3.5-1c.8-.7,1.2-1.6,1.2-2.7v-.2c0-1.1-.4-1.9-1.2-2.5-.8-.6-2.1-1-3.9-1.3-1.1-.1-2-.4-2.9-.6-.9-.3-1.6-.7-2.2-1.1-.6-.5-1.1-1-1.4-1.7-.3-.7-.5-1.4-.5-2.3v-.4c0-.8.2-1.6.5-2.2s.8-1.3,1.4-1.8,1.3-.9,2.2-1.2c.8-.3,1.8-.4,2.8-.4s2.2.2,3.2.5c.9.3,1.7.8,2.4,1.4.6.6,1.1,1.2,1.5,2,.3.8.5,1.6.5,2.4v1.3h-2.5v-1.1Z"/>
  </g>
  <g>
    <path class="st4" d="M90.7,32.5h12.9v2.3h-10.4v7h10.2v2.3h-10.2v9.4h-2.5v-21Z"/>
    <path class="st4" d="M110.6,32.5v13.9c0,1.7.4,3,1.2,3.9.8.9,2,1.3,3.5,1.3s2.7-.4,3.5-1.3c.8-.9,1.2-2.2,1.2-3.9v-13.9h2.5v13.9c0,2.4-.6,4.3-1.9,5.6-1.3,1.3-3,1.9-5.3,1.9s-4-.6-5.3-1.9c-1.3-1.3-1.9-3.1-1.9-5.6v-13.9h2.5Z"/>
    <path class="st4" d="M126.1,32.5h14.8v2.3h-6.1v18.7h-2.5v-18.7h-6.1v-2.3Z"/>
    <path class="st4" d="M147,32.5v13.9c0,1.7.4,3,1.2,3.9.8.9,2,1.3,3.5,1.3s2.7-.4,3.5-1.3c.8-.9,1.2-2.2,1.2-3.9v-13.9h2.5v13.9c0,2.4-.6,4.3-1.9,5.6-1.3,1.3-3,1.9-5.3,1.9s-4-.6-5.3-1.9c-1.3-1.3-1.9-3.1-1.9-5.6v-13.9h2.5Z"/>
    <path class="st4" d="M176.5,53.5h-2.5v-7c0-.5-.1-.9-.4-1.2-.2-.3-.7-.4-1.3-.4h-6.5v8.6h-2.5v-21h7.5c1.1,0,2,.2,2.8.5.8.3,1.5.7,2,1.2.5.5.9,1.1,1.2,1.8.3.7.4,1.4.4,2.2v.9c0,.8-.2,1.6-.6,2.3-.4.8-1.1,1.4-2,1.8v.4c.6.1,1.1.3,1.4.7.3.4.5.9.5,1.6v7.6ZM165.8,42.5h4.7c1.4,0,2.5-.3,3.2-.9.7-.6,1-1.5,1-2.7v-.5c0-1.1-.3-1.9-1-2.6-.7-.6-1.7-1-3.2-1h-4.7v7.7Z"/>
    <path class="st4" d="M181.5,32.5h13.3v2.3h-5.4v16.3h5.4v2.3h-13.3v-2.3h5.4v-16.3h-5.4v-2.3Z"/>
    <path class="st4" d="M211.3,38.6c0-.7-.1-1.3-.4-1.8-.3-.5-.6-.9-1.1-1.3-.5-.3-1-.6-1.6-.8s-1.2-.3-1.9-.3-1.1,0-1.6.2c-.5.1-1,.4-1.4.6-.4.3-.7.6-1,1-.2.4-.4.9-.4,1.4v.2c0,.6.1,1.1.4,1.5.2.4.6.8,1.1,1,.5.3,1.1.5,1.8.7.7.2,1.5.4,2.5.5,2.2.3,3.8,1,4.9,1.9,1,1,1.6,2.2,1.6,3.8v.4c0,.9-.2,1.7-.5,2.5-.3.8-.8,1.4-1.4,1.9-.6.5-1.4,1-2.3,1.3-.9.3-1.9.5-3.1.5s-2.5-.2-3.6-.6c-1-.4-1.9-.9-2.6-1.6-.7-.7-1.2-1.5-1.6-2.4-.4-.9-.5-1.9-.5-3v-.9h2.5v.7c0,1.8.5,3.2,1.5,4.1s2.4,1.4,4.2,1.4,2.7-.3,3.5-1c.8-.7,1.2-1.6,1.2-2.7v-.2c0-1.1-.4-1.9-1.2-2.5-.8-.6-2.1-1-3.9-1.3-1.1-.1-2-.4-2.9-.6-.9-.3-1.6-.7-2.2-1.1-.6-.5-1.1-1-1.4-1.7-.3-.7-.5-1.4-.5-2.3v-.4c0-.8.2-1.6.5-2.2s.8-1.3,1.4-1.8c.6-.5,1.3-.9,2.2-1.2.8-.3,1.8-.4,2.8-.4s2.2.2,3.2.5c.9.3,1.7.8,2.4,1.4.6.6,1.1,1.2,1.5,2,.3.8.5,1.6.5,2.4v1.3h-2.5v-1.1Z"/>
    <path class="st4" d="M217.2,32.5h14.8v2.3h-6.1v18.7h-2.5v-18.7h-6.1v-2.3Z"/>
    <path class="st4" d="M254,32.5h6.9c2.6,0,4.5.6,5.7,1.9,1.2,1.2,1.8,3.2,1.8,5.9v5.4c0,2.7-.6,4.7-1.8,5.9-1.2,1.2-3.1,1.9-5.7,1.9h-6.9v-2.4h1.8v-16.3h-1.8v-2.3ZM260.5,51.2c.9,0,1.7,0,2.4-.3.7-.2,1.2-.5,1.7-.9.4-.4.8-1,1-1.7s.3-1.6.3-2.7v-5c0-1.1-.1-2-.3-2.7s-.5-1.3-1-1.7c-.4-.4-1-.7-1.7-.9-.7-.2-1.5-.3-2.4-.3h-2.2v16.3h2.2Z"/>
    <path class="st4" d="M272.5,32.5h13.3v2.3h-5.4v16.3h5.4v2.3h-13.3v-2.3h5.4v-16.3h-5.4v-2.3Z"/>
    <path class="st4" d="M301.5,52.4h.4v-19.9h2.5v21h-5l-6.1-19.9h-.4v19.9h-2.5v-21h5l6.1,19.9Z"/>
    <path class="st4" d="M319.7,52.4h.4v-19.9h2.5v21h-5l-6.1-19.9h-.4v19.9h-2.5v-21h5l6.1,19.9Z"/>
    <path class="st4" d="M327.4,32.5h12.7v2.3h-10.2v7h10v2.3h-10v7h10.4v2.3h-12.9v-21Z"/>
    <path class="st4" d="M358.6,53.5h-2.5v-7c0-.5-.1-.9-.4-1.2-.2-.3-.7-.4-1.3-.4h-6.5v8.6h-2.5v-21h7.5c1.1,0,2,.2,2.8.5.8.3,1.5.7,2,1.2.5.5.9,1.1,1.2,1.8.3.7.4,1.4.4,2.2v.9c0,.8-.2,1.6-.6,2.3-.4.8-1.1,1.4-2,1.8v.4c.6.1,1.1.3,1.4.7.3.4.5.9.5,1.6v7.6ZM347.9,42.5h4.7c1.4,0,2.5-.3,3.2-.9.7-.6,1-1.5,1-2.7v-.5c0-1.1-.3-1.9-1-2.6-.7-.6-1.7-1-3.2-1h-4.7v7.7Z"/>
  </g>
  <g>
    <path class="st0" d="M495.4,41.4l-9.8-8c-.7-.5-1.6-.4-2.1.2-.5.7-.4,1.6.2,2.1l6.5,5.3h-15.3c-.8,0-1.5.7-1.5,1.5s.7,1.5,1.5,1.5h15.3l-6.5,5.3c-.7.5-.8,1.5-.2,2.1.3.4.7.6,1.2.6s.7-.1,1-.3l9.8-8c.4-.3.6-.7.6-1.2s-.2-.9-.6-1.2Z"/>
    <path class="st0" d="M471,41h-2.9c-.8,0-1.5.7-1.5,1.5s.7,1.5,1.5,1.5h2.9c.8,0,1.5-.7,1.5-1.5s-.7-1.5-1.5-1.5Z"/>
    <path class="st0" d="M464.1,41h-2.9c-.8,0-1.5.7-1.5,1.5s.7,1.5,1.5,1.5h2.9c.8,0,1.5-.7,1.5-1.5s-.7-1.5-1.5-1.5Z"/>
  </g>
  <g>
    <path class="st0" d="M939.6,41.4l-9.8-8c-.7-.5-1.6-.4-2.1.2-.5.7-.4,1.6.2,2.1l6.5,5.3h-15.3c-.8,0-1.5.7-1.5,1.5s.7,1.5,1.5,1.5h15.3l-6.5,5.3c-.7.5-.8,1.5-.2,2.1.3.4.7.6,1.2.6s.7-.1,1-.3l9.8-8c.4-.3.6-.7.6-1.2s-.2-.9-.6-1.2Z"/>
    <path class="st0" d="M915.2,41h-2.9c-.8,0-1.5.7-1.5,1.5s.7,1.5,1.5,1.5h2.9c.8,0,1.5-.7,1.5-1.5s-.7-1.5-1.5-1.5Z"/>
    <path class="st0" d="M908.3,41h-2.9c-.8,0-1.5.7-1.5,1.5s.7,1.5,1.5,1.5h2.9c.8,0,1.5-.7,1.5-1.5s-.7-1.5-1.5-1.5Z"/>
  </g>
</svg>