<?xml version="1.0" encoding="utf-8"?>
<!-- Generator: Adobe Illustrator 27.1.1, SVG Export Plug-In . SVG Version: 6.00 Build 0)  -->
<svg version="1.1" id="Capa_1" xmlns="http://www.w3.org/2000/svg" xmlns:xlink="http://www.w3.org/1999/xlink" x="0px" y="0px"
	 viewBox="0 0 512 512" style="enable-background:new 0 0 512 512;" xml:space="preserve">
<style type="text/css">
	.st0{fill:#4C021B;}
</style>
<g>
	<path class="st0" d="M497,378.5H15c-8.3,0-15,6.7-15,15c0,35.9,29.1,65,65,65h382c35.9,0,65-29.1,65-65
		C512,385.2,505.3,378.5,497,378.5z"/>
	<path class="st0" d="M296,101.5v-8c0-22.1-17.9-40-40-40s-40,17.9-40,40v8c13.1-2,26.5-3,40-3S282.9,99.5,296,101.5z"/>
	<path class="st0" d="M422.2,197.3c-44.4-44.4-103.4-68.8-166.2-68.8s-121.8,24.4-166.2,68.8c-40.8,40.8-64.8,94-68.3,151.2h469
		C486.9,291.4,463,238.2,422.2,197.3L422.2,197.3z"/>
</g>
</svg>
