<?xml version="1.0" encoding="utf-8"?>
<!-- Generator: Adobe Illustrator 26.1.0, SVG Export Plug-In . SVG Version: 6.00 Build 0)  -->
<svg version="1.1" xmlns="http://www.w3.org/2000/svg" xmlns:xlink="http://www.w3.org/1999/xlink" x="0px" y="0px"
	 viewBox="0 0 1639.1 1022.5" style="enable-background:new 0 0 1639.1 1022.5;" xml:space="preserve">
<style type="text/css">
	.st0{fill:#5C2C7C;}
	.st1{fill:#FF00FF;}
</style>
<g id="HIRE">
	<g>
		<g>
			<path class="st0" d="M425.1,742.9l-4.7,2.7L391,728.8l4.7-2.7l12.6,7.2l5.3-3l-12.6-7.2l4.7-2.7l29.5,16.8l-4.7,2.7l-12.6-7.2
				l-5.3,3L425.1,742.9z"/>
			<path class="st0" d="M409,718.4l4.6-2.7l29.5,16.8l-4.6,2.7L409,718.4z"/>
			<path class="st0" d="M456.2,725c-1-0.3-1.6-0.5-4-1.8l-4.6-2.6c-2.7-1.6-4.7-1.6-6.8-0.4l-1.6,0.9l12,6.8l-4.6,2.7L417,713.8l7-4
				c4.8-2.8,9.1-2.7,13.7-0.1l2.3,1.3c3,1.7,4,3.4,2.9,5.2c3.3-0.8,6.3,0,9.4,1.8l4.5,2.6c1.4,0.8,2.5,1.4,4.1,1.7L456.2,725z
				 M425.9,713.5l9,5.2l1.8-1c1.7-1,2-2-0.3-3.4l-2.9-1.7c-2.1-1.2-3.7-1.3-5.4-0.4L425.9,713.5z"/>
			<path class="st0" d="M451.1,708.5l6.4-3.7l4.2,2.4l-6.4,3.7l8.6,4.9l8-4.6l4.2,2.4l-12.7,7.3L434,704.1l12.7-7.3l4.2,2.4l-8,4.6
				L451.1,708.5z"/>
		</g>
		<g>
			<path class="st1" d="M425.1,740.5l-4.7,2.7L391,726.4l4.6-2.7l12.6,7.2l5.3-3l-12.6-7.2l4.7-2.7l29.5,16.8l-4.7,2.7l-12.6-7.2
				l-5.3,3L425.1,740.5z"/>
			<path class="st1" d="M409.1,716l4.6-2.7l29.5,16.8l-4.6,2.7L409.1,716z"/>
			<path class="st1" d="M456.3,722.6c-1-0.3-1.6-0.5-4-1.8l-4.6-2.6c-2.7-1.6-4.7-1.6-6.8-0.4l-1.6,0.9l12,6.8l-4.6,2.7l-29.5-16.8
				l7-4c4.8-2.8,9.1-2.7,13.7-0.1l2.3,1.3c3,1.7,4,3.4,2.9,5.2c3.3-0.8,6.3,0,9.4,1.8l4.5,2.6c1.4,0.8,2.5,1.4,4.1,1.7L456.3,722.6z
				 M425.9,711.1l9,5.2l1.8-1c1.7-1,2-2-0.3-3.4l-2.9-1.7c-2.1-1.2-3.7-1.3-5.4-0.4L425.9,711.1z"/>
			<path class="st1" d="M451.1,706l6.4-3.7l4.2,2.4l-6.4,3.7l8.6,4.9l8-4.6l4.2,2.4l-12.7,7.3l-29.5-16.8l12.7-7.3l4.2,2.4l-8,4.6
				L451.1,706z"/>
		</g>
	</g>
</g>
<g id="DANCE">
	<g>
		<g>
			<path class="st0" d="M1063.9,507.9l6.6-3.8c4.1-2.4,8.7-2.2,13.4,0.2l14.6,7.5c4.5,2.3,5.1,4.7,1.1,7.1l-6.3,3.7L1063.9,507.9z
				 M1072.3,507.7l20.9,10.5l2.3-1.3c1.3-0.8,1.3-1.6-0.8-2.6l-15.1-7.7c-2.1-1.1-3.7-1-5-0.2L1072.3,507.7z"/>
			<path class="st0" d="M1120.7,506.3l-3.9,2.3l-5.7-2.2l-4.8,2.9l4.4,3l-3.6,2.1l-24.7-17.2l6-3.5L1120.7,506.3z M1102.8,507
				l3.8-2.3l-16.4-6.4L1102.8,507z"/>
			<path class="st0" d="M1105.7,492.5l20.2,10.7l-3.5,2.1l-28.2-14.9l5.1-2.9l21,6.7l-16.9-9.1l3.6-2.1l27.7,15l-3.9,2.3
				L1105.7,492.5z"/>
			<path class="st0" d="M1138.5,484.3l3.6,2c4.3,2.4,4.8,4.9,1,7.1c-3.7,2.2-8.1,2-12.5-0.3l-14.4-7.8c-4.5-2.4-5.1-5-1.2-7.3
				c3.9-2.2,8.4-2,12.9,0.5l2.7,1.5l-3.7,2.1l-3-1.6c-2-1.1-3.5-1.1-4.8-0.3c-1.3,0.7-1.3,1.6,0.7,2.7l14.8,8.1
				c1.9,1.1,3.4,1,4.6,0.3c1.2-0.7,1.3-1.6-0.6-2.6l-3.9-2.1L1138.5,484.3z"/>
			<path class="st0" d="M1139.1,477.5l5.3-3.1l3.8,2.2l-5.2,3.1l7.8,4.4l6.5-3.9l3.7,2.1l-10.2,6.1l-27.1-15.1l10.6-6.2l3.9,2.2
				l-6.7,3.9L1139.1,477.5z"/>
		</g>
		<g>
			<path class="st1" d="M1063.7,505.7l6.6-3.8c4.1-2.4,8.7-2.2,13.5,0.2l14.6,7.5c4.6,2.3,5.1,4.7,1.1,7.1l-6.3,3.7L1063.7,505.7z
				 M1072.1,505.5l20.9,10.5l2.3-1.3c1.3-0.8,1.3-1.6-0.8-2.6l-15.1-7.7c-2.1-1.1-3.7-1-5-0.2L1072.1,505.5z"/>
			<path class="st1" d="M1120.5,504.2l-3.9,2.3l-5.7-2.2l-4.8,2.9l4.4,3l-3.6,2.1l-24.7-17.3l6-3.5L1120.5,504.2z M1102.6,504.9
				l3.8-2.3l-16.4-6.4L1102.6,504.9z"/>
			<path class="st1" d="M1105.5,490.3l20.2,10.8l-3.5,2.1l-28.3-15l5.1-2.9l21,6.7l-16.9-9.1l3.6-2.1l27.8,15.1l-3.9,2.3
				L1105.5,490.3z"/>
			<path class="st1" d="M1138.3,482.2l3.6,2c4.3,2.4,4.8,4.9,1,7.1c-3.7,2.2-8.2,2-12.5-0.3l-14.4-7.9c-4.5-2.5-5.1-5-1.2-7.3
				c3.9-2.2,8.4-2,12.9,0.5l2.7,1.5l-3.7,2.1l-3-1.6c-2-1.1-3.5-1.1-4.8-0.3c-1.3,0.7-1.3,1.6,0.7,2.7l14.9,8.2
				c1.9,1.1,3.4,1,4.6,0.3c1.2-0.7,1.3-1.6-0.6-2.6l-3.9-2.1L1138.3,482.2z"/>
			<path class="st1" d="M1139,475.4l5.3-3.1l3.8,2.2l-5.2,3.1l7.8,4.4l6.5-3.9l3.7,2.1l-10.2,6.1l-27.1-15.2l10.7-6.2l3.9,2.2
				l-6.7,3.9L1139,475.4z"/>
		</g>
	</g>
</g>
<g id="EAT">
	<g>
		<g>
			<path class="st0" d="M893.9,404.9l5.4,3.4l-3,1.8l-5.4-3.4l-6.2,3.6l6.7,4.3l-3.1,1.8l-10.6-6.8l21.1-12.3l10.7,6.6l-3,1.8
				l-6.8-4.2L893.9,404.9z"/>
			<path class="st0" d="M903.7,426.2l-4.1-2.6l3.2-2.7l-4.9-3.1l-4.6,1.9l-3.6-2.3l25.3-10l5.9,3.6L903.7,426.2z M901.3,416.4
				l3.8,2.4l8.8-7.6L901.3,416.4z"/>
			<path class="st0" d="M925.7,413.9l12.7,7.8l-3.1,1.8l-4.3-2.7l-18.4,11l-4.1-2.6l18.4-11l-4.3-2.6L925.7,413.9z"/>
		</g>
		<g>
			<path class="st1" d="M893.2,402.9l5.4,3.4l-3,1.8l-5.4-3.4l-6.2,3.6l6.8,4.3l-3.1,1.8l-10.6-6.8l21.1-12.3l10.8,6.6l-3,1.8
				l-6.8-4.2L893.2,402.9z"/>
			<path class="st1" d="M903,424.2l-4.1-2.6l3.2-2.8l-4.9-3.1l-4.6,1.9l-3.6-2.3l25.3-10l5.9,3.6L903,424.2z M900.7,414.4l3.9,2.4
				l8.8-7.6L900.7,414.4z"/>
			<path class="st1" d="M925.1,411.9l12.8,7.9l-3.1,1.8l-4.4-2.7l-18.4,11l-4.1-2.6l18.4-11l-4.3-2.6L925.1,411.9z"/>
		</g>
		<g>
			<path class="st0" d="M893.9,404.9l5.4,3.4l-3,1.8l-5.4-3.4l-6.2,3.6l6.7,4.3l-3.1,1.8l-10.6-6.8l21.1-12.3l10.7,6.6l-3,1.8
				l-6.8-4.2L893.9,404.9z"/>
			<path class="st0" d="M903.7,426.2l-4.1-2.6l3.2-2.7l-4.9-3.1l-4.6,1.9l-3.6-2.3l25.3-10l5.9,3.6L903.7,426.2z M901.3,416.4
				l3.8,2.4l8.8-7.6L901.3,416.4z"/>
			<path class="st0" d="M925.7,413.9l12.7,7.8l-3.1,1.8l-4.3-2.7l-18.4,11l-4.1-2.6l18.4-11l-4.3-2.6L925.7,413.9z"/>
		</g>
		<g>
			<path class="st1" d="M893.2,402.9l5.4,3.4l-3,1.8l-5.4-3.4l-6.2,3.6l6.8,4.3l-3.1,1.8l-10.6-6.8l21.1-12.3l10.8,6.6l-3,1.8
				l-6.8-4.2L893.2,402.9z"/>
			<path class="st1" d="M903,424.2l-4.1-2.6l3.2-2.8l-4.9-3.1l-4.6,1.9l-3.6-2.3l25.3-10l5.9,3.6L903,424.2z M900.7,414.4l3.9,2.4
				l8.8-7.6L900.7,414.4z"/>
			<path class="st1" d="M925.1,411.9l12.8,7.9l-3.1,1.8l-4.4-2.7l-18.4,11l-4.1-2.6l18.4-11l-4.3-2.6L925.1,411.9z"/>
		</g>
	</g>
</g>
</svg>
