<?xml version="1.0" encoding="utf-8"?>
<!-- Generator: Adobe Illustrator 25.2.1, SVG Export Plug-In . SVG Version: 6.00 Build 0)  -->
<svg version="1.1" id="Layer_1" xmlns="http://www.w3.org/2000/svg" xmlns:xlink="http://www.w3.org/1999/xlink" x="0px" y="0px"
	 viewBox="0 0 3840 2160" style="enable-background:new 0 0 3840 2160;" xml:space="preserve">
<style type="text/css">
	.st0{fill:#5C2C7C;}
</style>
<g>
	<g>
		<g>
			<path class="st0" d="M2413.7,1051l15.8-9.1c8.8-5.1,16.4-3.9,24.2,0.5l40,22.8c8.1,4.6,9.9,9.2,1.5,14.1l-15.7,9.1L2413.7,1051z
				 M2480.3,1077.1l2.5-1.4c3.2-1.8,2.4-3.2-1.1-5.2l-37-21.1c-3.8-2.2-6.1-2.3-8.7-0.9l-2.9,1.7L2480.3,1077.1z"/>
		</g>
	</g>
	<g>
		<g>
			<path class="st0" d="M2513.8,1054.5l-7.5,4.4l11.1,7.8l-9.2,5.3l-57.4-42.3l12.2-7l74.4,32.4l-9.9,5.7L2513.8,1054.5z
				 M2497.5,1052.7l5.4-3.1l-27-12.3L2497.5,1052.7z"/>
		</g>
	</g>
	<g>
		<g>
			<path class="st0" d="M2483,1011l44,15.1l-35.2-20.2l9.4-5.4l65.5,37.6l-8.3,4.8l-47.5-15.9l37.7,21.6l-9.3,5.3l-65.6-37.5
				L2483,1011z"/>
		</g>
	</g>
	<g>
		<g>
			<path class="st0" d="M2559.3,1009.6l10.1-5.8l15.1,8.7c7,4,11.7,9.5,1.9,15.2l-2.3,1.3c-10.4,6-19.8,3.2-26.4-0.6l-40-22.9
				c-6.7-3.8-10.1-9.3-0.9-14.6l2.4-1.4c11.3-6.5,19.8-3.1,26.2,0.6l11.7,6.7l-10.1,5.8l-11.5-6.6c-2.8-1.6-5.2-2-7.8-0.5
				s-1.8,2.6,1.1,4.3l38.9,22.3c3,1.7,5.6,1.9,7.7,0.7c2.5-1.4,1.7-2.9-1-4.5L2559.3,1009.6z"/>
		</g>
	</g>
	<g>
		<g>
			<path class="st0" d="M2559.4,966.9l9.5,5.5l-13.1,7.6l17.2,9.9l10.3-5.9l9.9,5.7l-10.3,5.9l18.9,10.9l13.6-7.9l9.9,5.7
				l-23.9,13.8l-65.4-37.7L2559.4,966.9z"/>
		</g>
	</g>
</g>
<g>
	<g>
		<g>
			<g>
				<path class="st0" d="M2064.4,853.5c-7-4.1-10.5-6.1-17.6-10.2c-4,2.3-6.1,3.5-10.1,5.8c5.9,3.4,8.9,5.1,14.8,8.6
					c-3.6,2.1-5.4,3.1-8.9,5.2c-5.9-3.4-8.9-5.1-14.8-8.6c-4.6,2.7-6.9,4-11.5,6.7c7.2,4.2,10.9,6.3,18.1,10.5
					c-3.5,2-5.3,3.1-8.9,5.1c-12.8-7.4-19.1-11.1-31.9-18.5c16.1-9.3,32.1-18.5,48.2-27.8c12.5,7.3,18.8,10.9,31.3,18.1
					C2069.6,850.5,2067.9,851.5,2064.4,853.5z"/>
			</g>
		</g>
		<g>
			<g>
				<path class="st0" d="M2052.1,882.7c-3.9,1.5-5.8,2.2-9.7,3.6c-4.9-2.9-7.4-4.3-12.3-7.1c19.7-7.2,39.4-14.3,59.2-21.5
					c7.3,4.2,10.9,6.3,18.2,10.5c-12.1,11.6-24.3,23.1-36.4,34.6c-5.5-3.2-8.2-4.8-13.7-7.9c2.5-2.3,3.8-3.4,6.3-5.6
					C2059,886.7,2056.7,885.4,2052.1,882.7z M2070,883.7c3-2.6,4.4-3.9,7.4-6.6c4.1-3.6,7.1-6.1,9.6-7.9c-3.2,1.4-7.6,3.2-13.7,5.5
					c-4.5,1.7-6.8,2.6-11.4,4.3C2065.1,880.9,2066.7,881.8,2070,883.7z"/>
			</g>
		</g>
		<g>
			<g>
				<path class="st0" d="M2110.8,880.4c3.5-2,5.2-3,8.7-5c14.2,8.2,21.2,12.3,35.4,20.5c-3.5,2-5.2,3-8.7,5
					c-4.3-2.5-6.4-3.7-10.7-6.2c-15.8,9.1-23.7,13.7-39.4,22.8c-5.6-3.2-8.4-4.9-14-8.1c15.8-9.1,23.7-13.7,39.4-22.8
					C2117.3,884.1,2115.1,882.9,2110.8,880.4z"/>
			</g>
		</g>
	</g>
</g>
</svg>
