<?xml version="1.0" encoding="utf-8"?>
<!-- Generator: Adobe Illustrator 25.4.1, SVG Export Plug-In . SVG Version: 6.00 Build 0)  -->
<svg version="1.1" id="Layer_1" xmlns="http://www.w3.org/2000/svg" xmlns:xlink="http://www.w3.org/1999/xlink" x="0px" y="0px"
	 viewBox="0 0 2160 2160" style="enable-background:new 0 0 2160 2160;" xml:space="preserve">
<style type="text/css">
	.st0{fill:#5C2C7C;}
</style>
<g>
	<path class="st0" d="M1477.6,938.3l15.7-9.2c8.9-5.2,16.4-4,24.4,0.5l40.2,23c8.2,4.7,10.1,9.2,1.4,14.1l-15.7,9.2L1477.6,938.3z
		 M1544.6,964.6l2.3-1.4c3.3-1.9,2.3-3.3-1.2-5.2l-37.4-21.1c-3.8-2.1-6.1-2.3-8.7-0.9l-2.8,1.6L1544.6,964.6z"/>
	<path class="st0" d="M1578.4,941.8l-7.5,4.5l11,7.8l-9.2,5.4l-57.8-42.5l12.2-7l74.9,32.7l-9.9,5.6L1578.4,941.8z M1562,939.9
		l5.4-3.1l-27.3-12.5L1562,939.9z"/>
	<path class="st0" d="M1547.4,898.1l44.4,15.3l-35.5-20.2l9.4-5.4l66,37.8l-8.5,4.9l-47.7-16l37.8,21.6l-9.4,5.4l-66-37.8
		L1547.4,898.1z"/>
	<path class="st0" d="M1624.2,896.7l10.1-5.9l15.3,8.7c7,4,11.7,9.6,1.9,15.3l-2.3,1.4c-10.6,6.1-20,3.3-26.5-0.7l-40.2-23
		c-6.8-3.8-10.1-9.4-0.9-14.8l2.3-1.4c11.3-6.6,20-3.1,26.3,0.7l11.7,6.8l-10.1,5.9l-11.5-6.6c-2.8-1.6-5.2-1.9-7.8-0.5
		c-2.6,1.4-1.9,2.6,1.2,4.5l39.2,22.6c3.1,1.6,5.6,1.9,7.8,0.7c2.3-1.4,1.6-2.8-0.9-4.5L1624.2,896.7z"/>
	<path class="st0" d="M1624.2,853.7l9.6,5.6l-13.2,7.5l17.2,9.9l10.3-5.9l9.9,5.9l-10.3,5.9l19,11l13.6-8l9.9,5.6l-24,13.9
		l-65.8-37.8L1624.2,853.7z"/>
</g>
<g>
	<g>
		<path class="st0" d="M1128.3,740.2c-7-4-10.5-6.1-17.5-10c-4,2.3-6.1,3.5-10,5.8c5.8,3.5,8.9,5.1,14.7,8.4c-3.5,2.1-5.4,3-8.9,5.1
			c-5.8-3.5-8.9-5.1-14.7-8.4c-4.7,2.6-6.8,4-11.5,6.5c7.2,4.2,10.8,6.3,18,10.5c-3.5,2.1-5.4,3-8.9,5.1
			c-12.6-7.2-19.2-11-31.8-18.5c15.9-9.3,32-18.5,47.9-27.8c12.4,7.2,18.7,10.8,31.3,18C1133.4,737.1,1131.8,738.3,1128.3,740.2z"/>
		<path class="st0" d="M1116.1,769.4c-4,1.4-5.8,2.1-9.8,3.7c-4.9-2.8-7.5-4.2-12.4-7c19.6-7,39.3-14.3,58.9-21.3
			c7.2,4.2,11,6.3,18.2,10.5c-12.2,11.5-24.1,22.9-36.2,34.6c-5.4-3.3-8.2-4.7-13.6-7.9c2.6-2.3,3.7-3.3,6.3-5.6
			C1122.9,773.3,1120.6,771.9,1116.1,769.4z M1133.9,770.3c3-2.6,4.4-4,7.5-6.5c4-3.5,7-6.1,9.6-7.9c-3.3,1.4-7.5,3-13.6,5.6
			c-4.4,1.6-6.8,2.6-11.2,4.2C1129,767.5,1130.6,768.4,1133.9,770.3z"/>
		<path class="st0" d="M1174.6,767c3.5-2.1,5.1-3,8.6-5.1c14,8.2,21,12.2,35.3,20.3c-3.5,2.1-5.1,3-8.6,5.1
			c-4.2-2.6-6.3-3.7-10.8-6.1c-15.7,9.1-23.6,13.6-39.3,22.7c-5.6-3.3-8.4-4.9-13.8-7.9c15.7-9.1,23.6-13.6,39.3-22.7
			C1180.9,770.8,1178.8,769.4,1174.6,767z"/>
	</g>
</g>
</svg>
