<?xml version="1.0" encoding="UTF-8"?>
<svg id="Layer_1" xmlns="http://www.w3.org/2000/svg" version="1.1" viewBox="0 0 882.2 500">
  <!-- Generator: Adobe Illustrator 30.1.0, SVG Export Plug-In . SVG Version: 2.1.1 Build 136)  -->
  <defs>
    <style>
      .st0 {
        fill: #e54f8c;
      }
    </style>
  </defs>
  <path class="st0" d="M113.1,360.1c-.5,0-1-.4-1.1-1,0-.6.4-1.1,1-1.2l4.9-.5,10.6-.5,16-.5,21.3-.5,26.3-.4,65.6-.7,79.2-.5,87.1-.2h88.4c0,0,83.1.5,83.1.5l71.6.6,55,.8,20.1.5,14.6.5,9.1.5c.6,0,1.1.5,1,1.1,0,.6-.5,1-1.1,1l-9-.5-14.6-.5-20-.5-25.1-.4-29.8-.4-71.6-.6-83.1-.4h-88.4c0,0-87.1.1-87.1.1l-79.2.5-65.6.7-26.3.4-21.3.5-16,.5-10.5.5-4.9.5s0,0-.1,0Z"/>
  <path class="st0" d="M454.7,364.3h-82.5c0,0-78.2-.4-78.2-.4l-69-.6-55.4-.8-21.4-.4-16.6-.5-11.6-.5-6.2-.5-27.1-3.7-25.2-10.6-22.9-17.7-16.8-22.1-10.5-25.7-3.7-27.4h0c0-.1,3.5-27.6,3.5-27.6l10.4-25.6,16.6-22,21.7-16.9,25-10.5,5.3-1.6,11.4-1.6,25.8-3.4,16-1.4,21.3-1.4,26.2-1.3,30.7-1.2,34.8-1,38.2-.9,40.9-.7,42.8-.5,44-.3h44.4c0,0,43.9,0,43.9,0l42.5.3,40.4.5,37.5.7,34,.9,29.8,1.1,25.1,1.2,20,1.3,14.6,1.4,26.5,3.3,9.9,1.6,25.6,10.5,25.9,18.6,17.2,22.1,10.9,25.8,4,27.6-3.4,27.9-10.4,25.9-16.7,22.2-21.9,17.1-25.6,10.7-29.5,4.2-7.9.5-13.2.5-18.3.5-22.9.4-58.2.8-71.1.5-79.4.3h-41.3ZM87.3,354.9l26.6,3.6,6.2.5,11.5.5,16.6.5,21.4.4,55.4.8,69,.6,78.2.3h82.5c0,0,81.7,0,81.7,0l75.9-.4,65.2-.7,50.1-.8,18.3-.5,13.2-.5,7.8-.5,29.3-4.2,25.1-10.5,21.4-16.7,16.4-21.8,10.1-25.3,3.2-27.2-3.9-27.1-10.7-25.3-16.9-21.6-25.4-18.2-25.2-10.3-9.5-1.5-26.5-3.3-14.6-1.4-20-1.3-25.1-1.2-29.8-1.1-33.9-.9-37.5-.7-40.4-.5-42.5-.3h-43.9c0-.1-44.4,0-44.4,0l-44,.3-42.8.5-40.9.7-38.1.9-34.7,1-30.7,1.2-26.2,1.3-21.2,1.4-16,1.4-25.8,3.4-11.2,1.6-5,1.6-24.8,10.4-21.2,16.5-16.3,21.5-10.1,25.1-3.4,27,3.6,27,10.3,25.2,16.4,21.6,22.4,17.3,24.7,10.3ZM870.2,280.3h0,0Z"/>
  <path class="st0" d="M536.4,364.1c-.2,0-.3,0-.5-.1l-8-3.9-2.9-4.2c-.3-.5-.2-1.2.3-1.5.5-.3,1.2-.2,1.5.3l2.6,3.7,7.5,3.7c.5.3.8.9.5,1.5-.2.4-.6.6-1,.6Z"/>
  <path class="st0" d="M612.3,363.7c0,0-.2,0-.3,0l-14.3-4-4-3.2c-.5-.4-.5-1.1-.2-1.5.4-.5,1.1-.5,1.5-.2l3.8,3.1,13.7,3.7c.6.2.9.8.8,1.3-.1.5-.6.8-1,.8Z"/>
  <path class="st0" d="M677.5,363c0,0-.1,0-.2,0l-19.6-3.9-3.6-2.1c-.5-.3-.7-1-.4-1.5.3-.5,1-.7,1.5-.4l3.5,2,19.1,3.7c.6.1,1,.7.9,1.3,0,.5-.6.9-1.1.9Z"/>
  <path class="st0" d="M727.6,362.2c0,0-.1,0-.2,0l-23.8-3.8-1.4-.7c-.5-.3-.8-.9-.5-1.5.3-.5.9-.8,1.5-.5l1.3.6,23.3,3.7c.6,0,1,.7.9,1.2,0,.5-.5.9-1.1.9Z"/>
  <path class="st0" d="M759.1,361.2c0,0-.1,0-.2,0l-19-2.7c-.6,0-1-.6-.9-1.2,0-.6.6-1,1.2-.9l19,2.7c.6,0,1,.6.9,1.2,0,.5-.5.9-1.1.9Z"/>
  <path class="st0" d="M818.2,345.2c-.3,0-.6-.1-.9-.4-.4-.5-.3-1.2.2-1.5l22-17.4,4.2.9c.6.1,1,.7.8,1.3-.1.6-.7,1-1.3.8l-3.2-.7-21.1,16.7c-.2.2-.4.2-.7.2Z"/>
  <path class="st0" d="M821.8,345.9c0,0-.1,0-.2,0l-3.6-.7c-.6-.1-1-.7-.9-1.3.1-.6.7-1,1.3-.9l3.6.7c.6.1,1,.7.9,1.3,0,.5-.6.9-1.1.9Z"/>
  <path class="st0" d="M87,357c-.2,0-.4,0-.6-.2l-.9-.6c-.5-.3-.6-1-.3-1.5.3-.5,1-.6,1.5-.3l.9.6c.5.3.6,1,.3,1.5-.2.3-.6.5-.9.5Z"/>
  <path class="st0" d="M86.2,356.4c-.5,0-1-.4-1.1-1,0-.6.4-1.1,1-1.2l5.2-.6,11.3-.6,17.3-.6,23-.5,28.4-.5,33.3-.4,79.2-.7,91-.4h47.9c0,0,96,0,96,0l90.2.4,77.6.7,32.3.4,27.2.5,21.6.5,15.8.6,9.7.6c.6,0,1.1.6,1,1.2,0,.6-.5,1.1-1.2,1l-9.7-.6-15.7-.6-21.6-.5-27.2-.5-32.3-.4-77.6-.7-90.2-.4h-96c0,0-94.5.1-94.5.1l-85.9.5-71,.8-28.4.5-23,.5-17.2.6-11.2.6-5.1.6s0,0-.1,0Z"/>
  <path class="st0" d="M769.3,360.2l-4.7-.6c-.6,0-1-.6-.9-1.2,0-.6.6-1,1.2-.9l4.4.6,23.6-4.2c.6-.1,1.2.3,1.3.9.1.6-.3,1.2-.9,1.3l-23.9,4.3Z"/>
  <path class="st0" d="M453.5,360.5h-75.9c0,0-71.9-.4-71.9-.4l-63.4-.5-50.9-.7-28.8-.7c-.6,0-1.1-.5-1.1-1.1,0-.6.6-1,1.1-1.1l9.2.3,19.6.4,50.8.7,63.4.5,71.9.3h75.9c0,0,75.2,0,75.2,0l69.7-.4,59.8-.6,45.9-.8,14.8-.4h0c.6,0,1.1.5,1.1,1.1,0,.6-.5,1.1-1.1,1.1l-14.8.4-21,.4-53.4.7-65.3.5-73,.3h-38Z"/>
  <path class="st0" d="M38.9,180.2c-.5,0-.9-.3-1-.8-.2-.6.2-1.2.7-1.4l5.6-1.7,12.6-1.7,19.3-1.6,25.8-1.5,32-1.4,37.6-1.3,42.7-1.1,47-1,50.4-.8,52.9-.5,54.4-.3h54.8c0,0,54.2,0,54.2,0l52.5.4,49.8.6,46.2.8,41.7,1,36.5,1.2,30.7,1.3,24.3,1.5,17.6,1.6,11.1,1.7,3.7,1.7c.5.2.8.9.5,1.4-.2.5-.9.8-1.4.5l-3.6-1.6-10.6-1.6-17.5-1.6-24.3-1.5-30.6-1.3-36.5-1.2-41.7-1-46.2-.8-49.8-.6-52.5-.4-54.2-.2h-54.8c0,0-54.4.4-54.4.4l-52.9.5-50.4.8-46.9,1-42.7,1.1-37.6,1.3-32,1.4-25.8,1.5-19.2,1.6-12.4,1.6-5.4,1.6c-.1,0-.2,0-.3,0Z"/>
  <path class="st0" d="M12.2,227.3c-.5,0-.9-.3-1.1-.8-.1-.6.2-1.2.8-1.3l5.8-1.5,13.3-1.5,20.5-1.4,27.5-1.4,34.1-1.3,40.2-1.2,45.6-1,50.2-.9,53.9-.7,56.6-.5,58.2-.3h58.7c0,0,58,0,58,0l56.2.4,53.3.6,49.4.8,44.6.9,39,1.1,32.7,1.2,25.9,1.3,18.7,1.4,11.6,1.5,3.8,1.5c.6.2.8.8.6,1.4-.2.6-.9.8-1.4.6l-3.7-1.4-11.2-1.4-18.6-1.4-25.9-1.3-32.7-1.2-39-1.1-44.6-.9-49.4-.8-53.3-.6-56.2-.4-58-.2h-58.7c0,0-58.2.3-58.2.3l-56.6.5-53.9.7-50.2.9-45.6,1-40.1,1.2-34.1,1.3-27.4,1.4-20.4,1.4-13.1,1.5-5.7,1.5c0,0-.2,0-.3,0Z"/>
  <path class="st0" d="M12.4,281.8c-.5,0-1-.4-1.1-.9-.1-.6.3-1.2.9-1.3l5.8-1.2,13.3-1.2,20.5-1.1,27.5-1.1,34.1-1,40.2-.9,45.6-.8,50.2-.7,54-.5,56.6-.4,58.3-.2h58.7s58.1.1,58.1.1l56.3.3,53.4.5,49.5.6,44.6.7,39,.9,32.7,1,25.9,1,18.7,1.1,11.3,1.1,4,1.2c.6.2.9.8.7,1.4-.2.6-.8.9-1.4.7l-3.8-1.2-11.1-1.1-18.6-1.1-25.9-1-32.7-1-39-.9-44.6-.7-49.5-.6-53.4-.5-56.3-.3h-58.1c0-.1-58.7-.1-58.7-.1l-58.3.2-56.6.4-53.9.5-50.2.7-45.6.8-40.2.9-34.1,1-27.4,1.1-20.4,1.1-13.2,1.1-5.7,1.1c0,0-.1,0-.2,0Z"/>
  <path class="st0" d="M454.7,364.3c-.5,0-.9-.3-1-.8l-1.2-3.8-.5-4.5c0-.6.4-1.1,1-1.2.6,0,1.1.4,1.2,1l.5,4.3,1.2,3.6c.2.6-.1,1.2-.7,1.4-.1,0-.2,0-.3,0Z"/>
  <path class="st0" d="M575.4,363.9c-.1,0-.2,0-.4,0l-11.1-3.9-3.7-3.8c-.4-.4-.4-1.1,0-1.5.4-.4,1.1-.4,1.5,0l3.4,3.5,10.7,3.7c.6.2.9.8.7,1.4-.2.4-.6.7-1,.7Z"/>
  <path class="st0" d="M413.2,364.3c-.2,0-.4,0-.5-.1-.5-.3-.7-1-.4-1.5l2-3.7.7-4.1c.1-.6.7-1,1.3-.9.6.1,1,.7.9,1.3l-.9,4.6-2.1,3.8c-.2.4-.6.6-1,.6Z"/>
  <path class="st0" d="M258.1,363.6c-.5,0-.9-.3-1.1-.8-.2-.6.2-1.2.8-1.3l14.3-3.7,3.8-2.9c.5-.4,1.2-.3,1.5.2.4.5.3,1.2-.2,1.5l-4.4,3.3-14.5,3.8c0,0-.2,0-.3,0Z"/>
  <path class="st0" d="M332.3,364.1c-.4,0-.8-.2-1-.6-.2-.5,0-1.2.6-1.4l8.3-3.7,2.8-3.7c.4-.5,1-.6,1.5-.2.5.4.6,1,.2,1.5l-3.1,4.1-8.8,3.9c-.1,0-.3,0-.4,0Z"/>
  <path class="st0" d="M148.2,362.1c-.5,0-1-.4-1.1-.9,0-.6.3-1.1.9-1.2l23.5-3.7.8-.4c.5-.3,1.2,0,1.4.5.3.5,0,1.2-.5,1.4l-1.3.6-23.6,3.7c0,0-.1,0-.2,0Z"/>
  <path class="st0" d="M195.3,362.9c-.5,0-1-.4-1.1-.9-.1-.6.3-1.2.9-1.3l19.5-3.7,3.2-1.8c.5-.3,1.2-.1,1.5.4.3.5.1,1.2-.4,1.5l-3.7,2-19.7,3.7c0,0-.1,0-.2,0Z"/>
  <path class="st0" d="M704.7,362.6c0,0-.1,0-.2,0l-21.8-3.9-2.7-1.4c-.5-.3-.7-.9-.5-1.5.3-.5.9-.7,1.5-.5l2.6,1.3,21.4,3.7c.6.1,1,.7.9,1.3,0,.5-.5.9-1.1.9Z"/>
  <path class="st0" d="M860,307c0,0-.2,0-.3,0l-4.9-1.3,10.6-26.8,3.1-26.4-10.3-1.2-18.8-1.3-26.1-1.2-32.9-1.1-39.3-1-45-.8-49.9-.7-53.8-.5-56.7-.3h-58.6c0-.1-59.2,0-59.2,0l-58.7.2-57.1.4-54.4.6-50.6.8-47.2.9,2.4-29.3,7.1-26.4,11.4-22.3,14.9-16.9,17.5-10.3,18.3-3c.6,0,1.1.3,1.2.9,0,.6-.3,1.2-.9,1.2l-18.1,3-16.8,9.9-14.5,16.5-11.2,21.8-7,25.9-2.2,26.7,44.8-.9,50.7-.8,54.4-.6,57.1-.4,58.8-.2h59.2s58.6,0,58.6,0l56.7.3,53.8.5,49.9.7,45,.8,39.3,1,33,1.1,26.1,1.2,18.9,1.3,12.5,1.4-3.5,29-9.7,24.7,2.6.7c.6.2.9.7.8,1.3-.1.5-.6.8-1.1.8Z"/>
  <path class="st0" d="M646.5,363.4c0,0-.2,0-.2,0l-17.1-3.9-4-2.7c-.5-.3-.6-1-.3-1.5.3-.5,1-.6,1.5-.3l3.9,2.6,16.5,3.7c.6.1,1,.7.8,1.3-.1.5-.6.8-1.1.8Z"/>
  <path class="st0" d="M496,364.2c-.2,0-.5,0-.7-.3l-4.7-4-1.8-4.4c-.2-.6,0-1.2.6-1.4.6-.2,1.2,0,1.4.6l1.6,3.9,4.3,3.6c.5.4.5,1.1.1,1.5-.2.3-.5.4-.8.4Z"/>
  <path class="st0" d="M745.9,361.7c0,0-.1,0-.2,0l-24.4-3.6c-.6,0-1-.6-.9-1.2,0-.6.6-1,1.2-.9l24.4,3.6c.6,0,1,.6.9,1.2,0,.5-.5.9-1.1.9Z"/>
  <path class="st0" d="M721.4,358.1c-.5,0-1-.4-1.1-.9,0-.6.3-1.1.9-1.2l24.3-3.9,21.9-10.8,18.9-17.3c.4-.4,1.1-.4,1.5,0,.4.4.4,1.1,0,1.5l-19.2,17.6-22.5,11.1-24.5,3.9c0,0-.1,0-.2,0Z"/>
  <path class="st0" d="M787,325.8h0l-30.7-.7-36.6-.6c-.6,0-1.1-.5-1.1-1.1,0-.6.5-1.1,1.1-1.1h0l36.6.6,30.7.7c.6,0,1.1.5,1.1,1.1,0,.6-.5,1.1-1.1,1.1Z"/>
  <path class="st0" d="M719.8,324.5c-.2,0-.3,0-.5-.1-.5-.3-.7-.9-.5-1.5l11.7-22.7,7.2-26.4,2.2-28.2-2.9-28-8.2-27.3,39.5,1.2,31.9,1.3c.6,0,1.1.5,1,1.1,0,.6-.5,1.1-1.1,1l-31.9-1.3-36.5-1.1,7.4,24.7,3,28.4-2.3,28.6-7.4,27-11.8,22.8c-.2.4-.6.6-1,.6Z"/>
  <path class="st0" d="M800.3,194.9c-.3,0-.7-.2-.9-.5l-14.9-21.9-19.2-16.6c-.5-.4-.5-1.1-.1-1.5.4-.5,1.1-.5,1.5-.1l19.5,16.9,15,22.1c.3.5.2,1.2-.3,1.5-.2.1-.4.2-.6.2Z"/>
  <path class="st0" d="M805.7,159.1s0,0-.1,0l-16.7-1.6-23-1.5c-.6,0-1.1-.6-1-1.2,0-.6.5-1,1.2-1l23.1,1.5,16.8,1.6c.6,0,1,.6,1,1.2,0,.6-.5,1-1.1,1Z"/>
  <path class="st0" d="M805.7,159.1c-.1,0-.3,0-.4,0l-24.7-10.3-15.6-1.5-21.6-1.4-23.9-3.1c-.6,0-1-.6-.9-1.2,0-.6.6-1,1.2-.9l23.8,3.1,21.5,1.4,16.1,1.6,24.8,10.3c.6.2.8.9.6,1.4-.2.4-.6.7-1,.7Z"/>
  <path class="st0" d="M120,361.1c-.5,0-1-.4-1.1-.9,0-.6.3-1.1.9-1.2l16.8-2.4c.6,0,1.1.3,1.2.9,0,.6-.3,1.1-.9,1.2l-16.8,2.4c0,0-.1,0-.2,0Z"/>
  <path class="st0" d="M873.5,253.9c-.1,0-.2,0-.4,0l-4.4-1.6-4-28.1-10.5-24.9-10.5-1.5c-.6,0-1-.6-.9-1.2,0-.6.6-1,1.2-.9l11.7,1.7,11.1,26.5,3.9,26.9,3.2,1.1c.6.2.9.8.7,1.4-.2.4-.6.7-1,.7Z"/>
  <path class="st0" d="M22.8,307.2c-.5,0-1-.4-1.1-.9,0-.6.3-1.2.9-1.3l5.8-1,13-1,20-.9,26.8-.9,33.3-.8,39.2-.8,44.5-.7,49-.5,52.6-.4,55.2-.3,56.8-.2h57.3s56.6.1,56.6.1l54.9.3,52,.4,48.2.5,43.5.6,38.1.7,31.9.8,25.3.9,17.5.9,9.6-25.1,3.2-27.5-3.8-27.4-10.5-25.6c-.2-.6,0-1.2.6-1.4.6-.2,1.2,0,1.4.6l10.7,26,3.9,27.9h0c0,.1-3.3,28.2-3.3,28.2l-10.2,26.7-19.1-1-25.3-.9-31.9-.8-38.1-.7-43.5-.6-48.2-.5-52-.4-54.8-.3h-56.6c0-.1-57.3-.1-57.3-.1l-56.8.2-55.2.3-52.6.4-49,.5-44.5.7-39.2.8-33.3.8-26.8.9-20,.9-12.9,1-5.7,1c0,0-.1,0-.2,0Z"/>
  <path class="st0" d="M858.6,201c-.1,0-.3,0-.4,0l-4-1.7-17.1-22-21.6-16.5-10-1.6c-.6,0-1-.6-.9-1.2,0-.6.6-1,1.2-.9l10.5,1.7,22.3,17.1,16.8,21.7,3.5,1.5c.6.2.8.9.6,1.4-.2.4-.6.7-1,.7Z"/>
  <path class="st0" d="M843.8,197.8c-.3,0-.7-.1-.9-.4l-16.5-21.9-21.3-16.7c-.5-.4-.6-1.1-.2-1.5.4-.5,1.1-.6,1.5-.2l21.7,16.9,16.6,22c.4.5.3,1.2-.2,1.5-.2.1-.4.2-.7.2Z"/>
  <path class="st0" d="M843.8,197.8s0,0,0,0l-18.3-1.5-25.3-1.4c-.6,0-1.1-.5-1-1.1,0-.6.5-1,1.1-1l25.3,1.4,18.3,1.5c.6,0,1,.6,1,1.2,0,.6-.5,1-1.1,1Z"/>
  <path class="st0" d="M787,325.8c-.2,0-.4,0-.6-.2-.5-.3-.7-1-.3-1.5l14.4-22.5,8.9-26,2.8-27.9-3.5-27.7-9.5-25.8c-.2-.6,0-1.2.6-1.4.6-.2,1.2,0,1.4.6l9.6,26.2,3.5,28.1-2.9,28.5-9.1,26.5-14.5,22.6c-.2.3-.6.5-.9.5Z"/>
  <path class="st0" d="M829,327.4s0,0,0,0l-17.6-.8-24.3-.7c-.6,0-1.1-.5-1.1-1.1,0-.6.4-1,1.1-1.1l24.3.7,17.6.8c.6,0,1.1.5,1,1.1,0,.6-.5,1-1.1,1Z"/>
  <path class="st0" d="M61,345.9c-.5,0-1-.4-1.1-1,0-.6.3-1.1.9-1.2l5.4-.7,12-.7,18.4-.7,24.5-.6,30.3-.6,35.7-.5,40.4-.4,44.5-.4,47.7-.3,50-.2h51.4c0,0,51.8,0,51.8,0h51.2c0,0,49.7.3,49.7.3l47.1.3,43.7.4,39.5.4,34.6.5,29.1.6,23.1.6,16.4.6,20.8-16.9c.5-.4,1.2-.3,1.5.2.4.5.3,1.2-.2,1.5l-21.4,17.4-17.2-.7-23.1-.6-29.1-.6-34.6-.5-39.5-.4-43.7-.4-47.1-.3-49.7-.2h-51.2c0,0-51.8,0-51.8,0h-51.4c0,0-50,.3-50,.3l-47.7.3-44.4.4-40.4.4-35.7.5-30.3.6-24.5.6-18.3.7-11.9.7-5.4.7s0,0-.1,0Z"/>
  <path class="st0" d="M113.1,360.1h-.1s-27.2-3.7-27.2-3.7l-25.1-10.5c-.6-.2-.8-.9-.6-1.4.2-.6.9-.8,1.4-.6l25,10.5,26.7,3.6,10.4-.8c.5,0,1.1.4,1.2,1,0,.6-.4,1.1-1,1.2l-10.6.8Z"/>
  <path class="st0" d="M765.9,156.1c-.2,0-.3,0-.5,0l-22.2-10.1-26.9-1.3-32.2-1.1-19.4-3c-.6,0-1-.6-.9-1.2,0-.6.7-1,1.2-.9l19.3,2.9,32.1,1.1,27.5,1.4,22.4,10.2c.5.2.8.9.5,1.4-.2.4-.6.6-1,.6Z"/>
  <path class="st0" d="M765.9,156.1s0,0,0,0l-29-1.3-34.5-1.2c-.6,0-1.1-.5-1-1.1,0-.6.6-1.1,1.1-1l34.5,1.2,29,1.3c.6,0,1.1.5,1,1.1,0,.6-.5,1-1.1,1Z"/>
  <path class="st0" d="M730.3,192.5c-.4,0-.8-.2-1-.6l-12.2-22-15.6-16.6c-.4-.4-.4-1.1,0-1.5.4-.4,1.1-.4,1.5,0l15.9,16.9,12.2,22.1c.3.5,0,1.2-.4,1.5-.2,0-.3.1-.5.1Z"/>
  <path class="st0" d="M631.7,323.6c-.1,0-.2,0-.4,0-.6-.2-.9-.8-.7-1.4l8.1-23,4.9-26.6,1.5-28.4-2.1-28.2-5.7-27.4,49.6.8,43.5,1c.6,0,1.1.5,1.1,1.1,0,.6-.5,1.1-1.1,1.1l-43.5-1-46.8-.8,5.2,24.9,2.1,28.5-1.5,28.7-5,26.9-8.1,23.2c-.2.4-.6.7-1,.7Z"/>
  <path class="st0" d="M719.8,324.5h0l-41.8-.5-46.3-.4c-.6,0-1.1-.5-1.1-1.1,0-.6.5-1.1,1.1-1.1h0l46.3.4,41.8.5c.6,0,1.1.5,1.1,1.1,0,.6-.5,1.1-1.1,1.1Z"/>
  <path class="st0" d="M667.2,357.3c-.5,0-1-.4-1.1-.9-.1-.6.3-1.2.8-1.3l19.1-4,17.7-10.9,15.3-17.5c.4-.5,1.1-.5,1.5-.1.5.4.5,1.1.1,1.5l-15.6,17.8-18.3,11.3-19.3,4c0,0-.1,0-.2,0Z"/>
  <path class="st0" d="M702.4,153.6c-.2,0-.4,0-.5-.1l-17.9-10-36.5-1-40.7-.8-13.5-2.8c-.6-.1-1-.7-.8-1.3.1-.6.7-1,1.3-.8l13.3,2.8,40.5.8,37.1,1,18.4,10.2c.5.3.7,1,.4,1.5-.2.4-.6.6-.9.6Z"/>
  <path class="st0" d="M702.4,153.6h0l-39.4-1-43.6-.8c-.6,0-1.1-.5-1.1-1.1,0-.6.5-1.1,1.1-1.1h0l43.7.8,39.4,1c.6,0,1.1.5,1.1,1.1,0,.6-.5,1.1-1.1,1.1Z"/>
  <path class="st0" d="M638.6,190.7c-.4,0-.8-.3-1-.7l-8.5-22.1-10.8-16.6c-.3-.5-.2-1.2.3-1.5.5-.3,1.2-.2,1.5.3l11,16.9,8.5,22.2c.2.6,0,1.2-.6,1.4-.1,0-.3,0-.4,0Z"/>
  <path class="st0" d="M631.7,323.6h0l-49.9-.3-53.9-.2,3.9-24.4,2.2-26.8.6-28.6-1.1-28.4-2.8-27.4,56,.4,52,.6c.6,0,1.1.5,1.1,1.1,0,.6-.5,1.1-1.1,1.1h0l-52-.6-53.6-.4,2.5,25.1,1.1,28.5-.6,28.7-2.2,26.9-3.5,22,51.3.2,49.9.3c.6,0,1.1.5,1.1,1.1,0,.6-.5,1.1-1.1,1.1Z"/>
  <path class="st0" d="M595.5,356.7c-.5,0-.9-.3-1-.8-.2-.6.1-1.2.7-1.4l13-4,12.1-11,10.5-17.6c.3-.5,1-.7,1.5-.4.5.3.7,1,.4,1.5l-10.8,18-12.8,11.5-13.3,4.1c-.1,0-.2,0-.3,0Z"/>
  <path class="st0" d="M619.3,151.8c-.2,0-.5,0-.7-.2l-12.2-9.8-43.5-.6-46.6-.5-6.2-2.7c-.6-.2-.8-.9-.6-1.4.2-.6.9-.8,1.4-.6l6,2.7,45.9.4,44.2.6,12.8,10.3c.5.4.5,1.1.2,1.5-.2.3-.5.4-.8.4Z"/>
  <path class="st0" d="M512.4,356.3c-.4,0-.7-.2-.9-.5-.3-.5-.2-1.2.3-1.5l5.9-4,5.5-11,4.5-16.4h-52.9c0-.1-55.9,0-55.9,0l-1.1-24.2-.7-26.9-.4-28.7v-28.5s.3-27.3.3-27.3h58.3c0,0,55.2,0,55.2,0l-3.8-20.9-5.6-18,51.1.4,47.1.6c.6,0,1.1.5,1.1,1.1,0,.6-.5,1.1-1.1,1.1h0l-47-.6-48.1-.4,4.7,15.3,4.3,23.6-57.8-.2h-56.1c0,0-.3,25.3-.3,25.3v28.4s.5,28.6.5,28.6l.7,26.8,1,22.1h53.9s55.7.1,55.7.1l-5.3,19.4-5.9,11.6-6.4,4.3c-.2.1-.4.2-.6.2Z"/>
  <path class="st0" d="M421,140.7c-.2,0-.3,0-.5-.1-.5-.3-.8-.9-.5-1.5l1.3-2.7c.3-.5.9-.8,1.5-.5.5.3.8.9.5,1.5l-1.3,2.7c-.2.4-.6.6-1,.6Z"/>
  <path class="st0" d="M522.6,150.8c-.4,0-.7-.2-.9-.5l-5.6-9.5h-47c0-.1-48.2,0-48.2,0h0c-.6,0-1.1-.5-1.1-1.1s.5-1.1,1.1-1.1h48.2c0,0,48.2,0,48.2,0l6.2,10.5c.3.5.1,1.2-.4,1.5-.2.1-.4.2-.6.2Z"/>
  <path class="st0" d="M424,356.2c-.5,0-.9-.3-1-.7l-1.4-4.3-1.4-11.3-1.2-16.9h-53.4c0,.1-53.8.4-53.8.4l-5.8-23.9-3.6-26.9-1.4-28.6,1-28.5,3.4-27.2,56.1-.5,55.7-.3.6-21.2,1-17.7h52.7c0,0,51.1,0,51.1,0,.6,0,1.1.5,1.1,1.1,0,.6-.5,1.1-1.1,1.1h0l-51.1-.2h-50.7c0,0-.9,15.7-.9,15.7l-.7,23.2-57.8.3-54.2.5-3.1,25.3-1,28.3,1.4,28.5,3.6,26.6,5.4,22.1,52.1-.2h55.5c0-.1,1.3,18.7,1.3,18.7l1.3,11.1,1.4,4c.2.6-.1,1.2-.7,1.4-.1,0-.2,0-.3,0Z"/>
  <path class="st0" d="M326.7,141.5c-.5,0-.9-.3-1-.8-.2-.6.1-1.2.7-1.4l8.7-2.8c.6-.2,1.2.1,1.4.7.2.6-.1,1.2-.7,1.4l-8.7,2.8c-.1,0-.2,0-.3,0Z"/>
  <path class="st0" d="M337,356.4c-.2,0-.3,0-.5-.1l-9.1-4.2-8.6-11.7-6.9-17.1-49.7.3-47.7.5-10-23.5-6.2-26.7-2.3-28.5,1.9-28.4,6.1-27.1,49.8-.9,51.7-.7,5.1-21.4,7.3-17.5,50.6-.5,50.4-.3.9-7.8-46.6.3-46.5.5h0c-.6,0-1.1-.5-1.1-1.1,0-.6.5-1.1,1.1-1.1l46.5-.5,49-.3-1.4,12.2-52.3.3-49.2.5-6.7,16-5.5,22.8-53.4.7-48.1.9-5.7,25.2-1.9,28,2.2,28.2,6.2,26.4,9.4,22,46.3-.4,51.2-.4,7.4,18.3,8.1,10.9,8.6,4c.5.3.8.9.5,1.4-.2.4-.6.6-1,.6Z"/>
  <path class="st0" d="M241,143.2c-.5,0-1-.4-1.1-.9-.1-.6.3-1.2.9-1.3l15.4-2.9c.6-.1,1.2.3,1.3.9.1.6-.3,1.2-.9,1.3l-15.4,2.9c0,0-.1,0-.2,0Z"/>
  <path class="st0" d="M241,143.2c-.6,0-1.1-.5-1.1-1.1,0-.6.5-1.1,1.1-1.1l41.4-.9,44.3-.7h0c.6,0,1.1.5,1.1,1.1,0,.6-.5,1.1-1.1,1.1l-44.3.7-41.4.9h0Z"/>
  <path class="st0" d="M257.7,356.9c0,0-.2,0-.3,0l-15.9-4.2-14.8-11.4-12.2-17.2-42.2.5-38.3.6-13.5-23.4-8.3-26.5-2.9-28.1,2.7-28.4,8.2-26.6,39.9-1.3,43.8-1.1,9.3-21.7,12.7-17.1,44.9-1,47.1-.7,7.8-9.6c.4-.5,1.1-.5,1.5-.2.5.4.5,1.1.2,1.5l-8.5,10.4-48.1.8-43.8.9-12,16.2-9.7,22.6-45.2,1.1-38.4,1.2-7.7,25.1-2.7,27.9,2.9,27.8,8.2,26.1,12.7,22,37-.6,43.3-.5,12.8,18,14.2,10.9,15.3,4c.6.2.9.7.8,1.3-.1.5-.6.8-1.1.8Z"/>
  <path class="st0" d="M170.1,145.5c-.5,0-1-.4-1.1-.9,0-.6.3-1.1.9-1.2l20.8-3.1c.6,0,1.1.3,1.2.9,0,.6-.3,1.1-.9,1.2l-20.8,3.1c0,0-.1,0-.2,0Z"/>
  <path class="st0" d="M170.1,145.5c-.6,0-1.1-.5-1.1-1,0-.6.4-1.1,1-1.1l33.2-1.2,37.6-1.1c.5,0,1.1.5,1.1,1.1,0,.6-.5,1.1-1.1,1.1l-37.6,1.1-33.2,1.2s0,0,0,0Z"/>
  <path class="st0" d="M192.1,357.6c0,0-.1,0-.2,0l-21.2-4.1-19.8-11.2-16.6-17.1-31.5.7-26.4.8-15.8-23-9.7-26.2-3.4-27.9,3.3-28.1,9.7-26.4,27.5-1.5,32.7-1.3,12.7-21.7,17-17,36-1.3,40-1.1,14.1-9.9c.5-.3,1.2-.2,1.5.3.3.5.2,1.2-.3,1.5l-14.7,10.3-40.7,1.1-35.2,1.3-16.3,16.3-13.1,22.4-33.9,1.4-26.1,1.4-9.2,24.9-3.1,27.4,3.4,27.5,9.6,25.7,14.9,21.7,25.2-.7,32.5-.7,17.1,17.7,19.3,10.8,20.7,3.9c.6.1,1,.7.9,1.3,0,.5-.6.9-1.1.9Z"/>
  <path class="st0" d="M118.9,148.3c-.5,0-1-.4-1.1-.9,0-.6.3-1.1.9-1.2l24.6-3.3c.5,0,1.1.3,1.2.9,0,.6-.3,1.1-.9,1.2l-24.6,3.3s0,0-.1,0Z"/>
  <path class="st0" d="M118.9,148.3c-.6,0-1.1-.4-1.1-1,0-.6.4-1.1,1-1.1l51.2-2.8c.6,0,1.1.4,1.1,1,0,.6-.4,1.1-1,1.1l-51.2,2.8s0,0,0,0Z"/>
  <path class="st0" d="M41.1,198.8c-.6,0-1-.4-1.1-1,0-.6.4-1.1,1-1.2l19.5-1.5,15-21.7,20-16.9,24.8-1.5,30.1-1.4,19.2-10.1c.5-.3,1.2,0,1.5.5.3.5,0,1.2-.5,1.5l-19.9,10.3-30.3,1.4-24.1,1.5-19.3,16.4-15.4,22.2-20.5,1.6s0,0,0,0Z"/>
  <path class="st0" d="M41.1,198.8c-.2,0-.4,0-.6-.2-.5-.4-.6-1-.2-1.5l16.1-22.1,20.9-16.9,24.4-10.4,17.2-1.5c.6,0,1.1.4,1.2,1,0,.6-.4,1.1-1,1.2l-17,1.5-23.8,10.2-20.4,16.5-15.8,21.7c-.2.3-.5.4-.9.4Z"/>
  <path class="st0" d="M144.6,358.5c0,0-.1,0-.2,0l-25-3.9-23.4-11-19.6-16.9-18.9.8-13.1.8-17-22.7-10.4-25.9-3.7-27.6,3.5-27.8,10.3-25.7,16.5-22,21.5-16.9,12.2-1.7,18.2-1.6,22.8-10.2c.5-.2,1.2,0,1.4.5.2.5,0,1.2-.5,1.4l-23.3,10.4-18.3,1.6-11.6,1.6-20.9,16.4-16.1,21.6-10.1,25.2-3.4,27.1,3.6,27.2,10.3,25.3,16,21.4,11.9-.8,19.7-.8,20.1,17.4,22.8,10.7,24.5,3.8c.6,0,1,.6.9,1.2,0,.5-.5.9-1.1.9Z"/>
  <path class="st0" d="M60.3,163.5c-.5,0-.9-.3-1-.8-.2-.6.1-1.2.7-1.4l5.4-1.7,24.7-10.4c.5-.2,1.2,0,1.4.6.2.6,0,1.2-.6,1.4l-24.8,10.4-5.5,1.7c-.1,0-.2,0-.3,0Z"/>
  <path class="st0" d="M131.5,361.6c-.5,0-1-.4-1.1-.9,0-.6.3-1.1.9-1.2l22.6-3.3c.6,0,1.1.3,1.2.9,0,.6-.3,1.1-.9,1.2l-22.6,3.3c0,0-.1,0-.2,0Z"/>
  <path class="st0" d="M169.6,362.5c-.5,0-1-.4-1.1-.9,0-.6.3-1.2.9-1.3l21.7-3.7,2.2-1.1c.5-.3,1.2,0,1.5.5.3.5,0,1.2-.5,1.5l-2.7,1.3-21.8,3.7c0,0-.1,0-.2,0Z"/>
  <path class="st0" d="M225,363.3c-.5,0-1-.3-1.1-.9-.1-.6.2-1.2.8-1.3l17-3.7,3.7-2.4c.5-.3,1.2-.2,1.5.3.3.5.2,1.2-.3,1.5l-4.3,2.7-17.2,3.8c0,0-.2,0-.2,0Z"/>
  <path class="st0" d="M294,363.9c-.5,0-.9-.3-1-.8-.2-.6.1-1.2.7-1.4l11.4-3.7,3.5-3.4c.4-.4,1.1-.4,1.5,0,.4.4.4,1.1,0,1.5l-3.8,3.7-11.9,3.9c-.1,0-.2,0-.3,0Z"/>
  <path class="st0" d="M372.2,364.2c-.3,0-.7-.2-.9-.5-.3-.5-.2-1.2.3-1.5l5.2-3.7,1.7-3.1-4.6-3.7-5-11.5-4.3-18-3.4-23.2-2.2-26.9-.9-28.7.5-28.5,1.8-26.3,3-22.3,4.1-17,4.9-10.3,5.4-2.9c.5-.3,1.2,0,1.5.4.3.5,0,1.2-.4,1.5l-4.8,2.6-4.5,9.6-4,16.6-3,22.1-1.8,26.2-.5,28.4.9,28.6,2.2,26.7,3.4,23,4.3,17.7,4.7,10.9,5.7,4.5-3.1,5.3-5.4,3.8c-.2.1-.4.2-.6.2Z"/>
  <path class="st0" d="M118,359.5c0,0-.1,0-.2,0l-26.9-3.8-25.1-10.8-21-16.6-5.2.8c-.6,0-1.1-.3-1.2-.9,0-.6.3-1.1.9-1.2l6.1-.9,21.7,17.1,24.6,10.5,26.5,3.7c.6,0,1,.6.9,1.2,0,.5-.5.9-1.1.9Z"/>
  <path class="st0" d="M840.3,328.2l-11.3-.9c-.6,0-1-.6-1-1.2,0-.6.6-1.1,1.2-1l10.1.8,16.1-21.7c.4-.5,1-.6,1.5-.2.5.4.6,1,.2,1.5l-16.8,22.6Z"/>
  <path class="st0" d="M829,327.4c-.2,0-.4,0-.6-.2-.5-.4-.6-1-.2-1.5l16.5-22.8,11.7,1c.6,0,1,.6,1,1.2,0,.6-.6,1.1-1.2,1l-10.5-.9-15.8,21.8c-.2.3-.5.5-.9.5Z"/>
  <path class="st0" d="M766.9,360.7l-12.5-1.7c-.6,0-1-.6-.9-1.2,0-.6.6-1,1.2-.9l12.1,1.6,25.8-4.7,25.1-10.7c.6-.2,1.2,0,1.4.6.2.6,0,1.2-.6,1.4l-25.4,10.8-26.2,4.8Z"/>
  <path class="st0" d="M756.8,359.1c-.5,0-1-.4-1.1-.9,0-.6.3-1.1.9-1.2l26.5-3.8,34.7-10.1c.6-.2,1.2.2,1.3.7.2.6-.2,1.2-.7,1.3l-34.9,10.1-26.6,3.8c0,0-.1,0-.2,0Z"/>
  <path class="st0" d="M128.5,359c0,0-.1,0-.2,0l-26.2-3.8-24.5-10.9-21-17.3-16.2-22.4-10.2-26-3.4-26.6-12.2,1.2-5.7,1.3c-.6.1-1.2-.2-1.3-.8-.1-.6.2-1.2.8-1.3l5.9-1.3,14.5-1.4,3.7,28.5,10,25.5,15.9,21.9,20.6,16.9,24,10.6,25.8,3.7c.6,0,1,.6.9,1.2,0,.5-.5.9-1.1.9Z"/>
  <path class="st0" d="M165.9,358c0,0-.1,0-.2,0l-23.3-4-21.8-11.1-18.8-17.5-14.5-22.7-9.1-26.4-3.2-28.1,3-28.2,8.9-26,14.3-22.2,18.6-16.9,21.7-10.3,22.9-3.2c.6,0,1.1.3,1.2.9,0,.6-.3,1.1-.9,1.2l-22.8,3.1-21.1,10.1-18.2,16.5-14,21.7-8.7,25.6-2.9,27.6,3.2,27.7,9,25.9,14.2,22.2,18.4,17.1,21.3,10.8,22.9,3.9c.6,0,1,.7.9,1.3,0,.5-.5.9-1.1.9Z"/>
  <path class="st0" d="M296,356.6c-.1,0-.2,0-.3,0l-12.7-4.3-11.7-11.5-10-17.7-7.9-23.1-5-26.8-1.8-28.6,1.5-28.4,4.6-26.3,7.6-22.5,10-17,11.6-10.2,12.5-2.9c.6-.1,1.2.2,1.3.8.1.6-.2,1.2-.8,1.3l-11.9,2.8-11.1,9.7-9.6,16.4-7.4,22-4.6,26-1.5,28.2,1.8,28.3,4.9,26.5,7.7,22.8,9.8,17.4,11.3,10.9,12,4c.6.2.9.8.7,1.4-.2.5-.6.7-1,.7Z"/>
  <path class="st0" d="M468.5,356.2c-.2,0-.4,0-.5-.1-.5-.3-.7-1-.4-1.5l2.3-4,2.2-11.1,1.8-17.8,1.3-23.1.7-26.8v-28.6c0,0-.5-28.4-.5-28.4l-1.2-26.2-1.7-22.2-2.1-16.6-2.3-9.6-2.3-2.5c-.4-.4-.4-1.1,0-1.5.4-.4,1.1-.4,1.5,0l2.7,2.9,2.4,10.3,2.1,16.8,1.7,22.3,1.2,26.3.6,28.5v28.7c0,0-.8,26.9-.8,26.9l-1.3,23.2-1.8,17.9-2.3,11.8-2.4,4.1c-.2.3-.6.5-.9.5Z"/>
  <path class="st0" d="M633.1,356.9c-.5,0-.9-.3-1.1-.8-.1-.6.2-1.2.8-1.3l16.2-4,15-11,12.9-17.5,10-22.8,6.1-26.5,1.9-28.3-2.5-28.1-6.7-26-10.4-21.9-13.3-16.5-15.2-9.9-16.2-2.8c-.6-.1-1-.7-.9-1.3.1-.6.7-1,1.3-.9l16.9,3,15.8,10.3,13.6,16.9,10.5,22.2,6.8,26.4,2.6,28.5-1.9,28.6-6.2,26.8-10.2,23.3-13.3,17.9-15.7,11.4-16.4,4c0,0-.2,0-.3,0Z"/>
  <path class="st0" d="M742.2,358.6c-.5,0-1-.4-1.1-.9,0-.6.3-1.1.9-1.2l25.2-3.8,23.3-10.8,20-17.1,15.3-22.2,9.5-25.9,3-27.7-3.7-27.6-10.1-25.6-15.8-21.8-20.4-16.6-23.5-10.1-25.2-3.2c-.6,0-1-.6-.9-1.2,0-.6.6-1,1.2-.9l25.7,3.3,24.1,10.4,20.8,16.9,16.1,22.3,10.2,26.1,3.8,28-3.1,28.3-9.7,26.4-15.6,22.7-20.5,17.5-23.9,11-25.4,3.8c0,0-.1,0-.2,0Z"/>
  <path class="st0" d="M697,357.7c-.5,0-1-.4-1.1-.9-.1-.6.3-1.2.9-1.3l21.6-3.9,20-10.9,17.1-17.3,13.1-22.5,8.1-26.2,2.6-28-3.2-27.9-8.7-25.8-13.6-21.9-17.5-16.5-20.2-10-21.6-3c-.6,0-1-.6-.9-1.2,0-.6.7-1,1.2-.9l22.1,3.1,20.7,10.3,17.9,16.9,13.9,22.3,8.8,26.2,3.3,28.2-2.6,28.6-8.3,26.7-13.4,22.9-17.6,17.7-20.6,11.2-21.7,3.9c0,0-.1,0-.2,0Z"/>
  <path class="st0" d="M555.1,356.4c-.4,0-.8-.3-1-.7-.2-.6,0-1.2.6-1.4l9.6-4,8.9-11,7.7-17.7,5.9-22.9,3.6-26.7,1-28.5-1.6-28.3-4.1-26.1-6.3-22.1-8-16.4-9-9.7-9.6-2.7c-.6-.2-.9-.8-.8-1.3.2-.6.7-.9,1.3-.8l10.2,2.9,9.7,10.5,8.1,16.7,6.4,22.4,4.1,26.4,1.6,28.5-1.1,28.7-3.6,26.9-5.9,23.2-8,18.2-9.3,11.5-10.1,4.2c-.1,0-.3,0-.4,0Z"/>
  <path class="st0" d="M222.9,357.2c0,0-.2,0-.2,0l-18.7-4.1-17.5-11.3-15-17.8-11.5-22.7-7.4-26.6-2.5-27.4-39.5,1-34.4,1.1-27.7,1.2-21.9,1.4,3.6-29.1,9.9-25.6c.2-.6.8-.8,1.4-.6.6.2.8.8.6,1.4l-9.9,25.5-3.2,26.1,19.3-1.2,27.7-1.2,34.4-1.1,41.5-1.1,2.7,29.2,7.3,26.2,11.4,22.4,14.7,17.3,16.9,10.9,18.2,3.9c.6.1,1,.7.8,1.3-.1.5-.6.9-1.1.9Z"/>
  <path class="st0" d="M22.4,201.9c-.5,0-.9-.3-1-.8-.2-.6.2-1.2.8-1.3l5.8-1.6,13.1-1.6c.6,0,1.1.3,1.2.9,0,.6-.4,1.1-.9,1.2l-12.9,1.6-5.6,1.6c0,0-.2,0-.3,0Z"/>
</svg>