<?xml version="1.0" encoding="UTF-8"?>
<svg id="Layer_1" xmlns="http://www.w3.org/2000/svg" version="1.1" viewBox="0 0 882.2 500">
  <!-- Generator: Adobe Illustrator 30.1.0, SVG Export Plug-In . SVG Version: 2.1.1 Build 136)  -->
  <defs>
    <style>
      .st0 {
        fill: #e54f8c;
      }
    </style>
  </defs>
  <path class="st0" d="M499.1,12.6l50,5.3,48,8.2,45.1,10.8,41.3,13.2,36.8,15.4,49.7,26.9,27.6,19.8,21.2,21,15.9,17.2,15.1,22.7,10.4,21.9,8.1,23.7,3.8,24.4.8,23.8-3.3,24.4-6.4,23.2-9.9,22.1-13.1,21.8-15.3,17.5-18.9,19.9-24.7,18.5-17.7,10.4-28.5,16-33.2,14.3-37.3,12.4-40.8,10.3-43.6,8-45.8,5.7-47.2,3.2-48,.7-48-1.8-47.3-4.2-45.8-6.7-43.7-9-40.8-11.2-37.3-13.3-33.1-15.2-28.2-16.8-17.9-10.9-24.6-19.5-18.3-20.5-15.5-18.2-12.4-22.4-9.7-22.7-5.5-23.6-2.9-24.9,1.9-24,4.4-24.4,9.5-23.9,11.1-21.9,16.5-22.5,16.5-16.8,22.7-20.6,29-19.1,51.3-25.4,38.1-14.2,42.4-11.8,46-9.2,48.7-6.5,50.5-3.5,51.3-.6,51.1,2.4ZM12.3,230.7l-1.9,23.7,2.9,24.6,5.5,23.3,9.6,22.4,12.2,22.1,15.4,18.1,18.1,20.3,24.3,19.2,17.9,10.8,28.1,16.7,32.9,15.1,37.1,13.3,40.7,11.2,43.5,9,45.7,6.7,47.2,4.2,47.9,1.8,47.9-.7,47.1-3.2,45.7-5.6,43.5-8,40.6-10.2,37.1-12.3,33-14.2,28.4-16,17.6-10.3,24.5-18.3,18.7-19.7,15.2-17.3,13-21.5,9.8-21.8,6.4-22.9,3.2-24.1-.8-23.5-3.8-24.1-8.1-23.4-10.3-21.7-14.9-22.5-15.8-17-21-20.8-27.4-19.7-33.4-18.1-16-8.6-36.7-15.3-41.2-13.2-44.9-10.8-47.9-8.1-49.9-5.3-51-2.4-51.2.6-50.3,3.5-48.5,6.4-45.8,9.2-42.2,11.8-37.9,14.1-33,16.2-18.2,9-28.8,18.9-22.5,20.4-16.3,16.6-16.3,22.2-11,21.6-9.3,23.5-4.3,24.2Z"/>
  <path class="st0" d="M249.1,255.5c-.4,0-.8.2-1,.6-.3.5,0,1.2.5,1.4l2.7,1.3,26.8,10.2,29.5,8.6,31.6,6.9,33.2,5.2,34.3,3.3,34.9,1.4,34.9-.5,34.4-2.4,33.3-4.2,31.7-6,29.6-7.7,27-9.3,4.7-2.1c.5-.2.8-.9.5-1.4-.2-.5-.9-.8-1.4-.5l-4.6,2.1-26.8,9.3-29.4,7.7-31.5,6-33.1,4.2-34.2,2.4-34.8.5-34.8-1.4-34.2-3.3-33.1-5.1-31.5-6.9-29.3-8.6-26.7-10.1-2.6-1.3c-.2,0-.3-.1-.5-.1Z"/>
  <path class="st0" d="M670.7,280.6c-.2,0-.4,0-.6.2-.5.4-.6,1-.2,1.5l2.8,3.8c.4.5,1,.6,1.5.2.5-.4.6-1,.2-1.5l-2.8-3.8c-.2-.3-.5-.4-.9-.4Z"/>
  <path class="st0" d="M653.8,268.1c-.3,0-.7.2-.9.5-.3.5-.2,1.2.3,1.5l12.4,8.4,13.7,12.7c.4.4,1.1.4,1.5,0,.4-.4.4-1.1,0-1.5l-13.8-12.8-12.6-8.5c-.2-.1-.4-.2-.6-.2Z"/>
  <path class="st0" d="M445.4,224.8l-37.1.5-36.5,2.5-35.3,4.5-33.3,6.5-30.8,8.3-27.7,9.9-24.2,11.3c-.5.3-.8.9-.5,1.4.3.5.9.8,1.4.5l24.1-11.3,27.6-9.8,30.7-8.2,33.2-6.4,35.1-4.5,36.4-2.5,37-.5,36.9,1.6,36.1,3.6,34.7,5.5,32.6,7.4,30,9,26.8,10.6,23.2,11.9c.5.3,1.2,0,1.5-.5.3-.5,0-1.2-.5-1.5l-23.3-11.9-27-10.6-30.1-9.1-32.8-7.4-34.8-5.6-36.3-3.6-37-1.6Z"/>
  <path class="st0" d="M232,263c-.2,0-.4,0-.6.2l-11.7,7.3-14.7,12.6c-.5.4-.5,1.1-.1,1.5.4.5,1.1.5,1.5.1l14.6-12.5,11.5-7.2c.5-.3.7-1,.3-1.5-.2-.3-.6-.5-.9-.5Z"/>
  <path class="st0" d="M213.9,275.7c-.3,0-.6.1-.8.4l-1.9,2.4c-.4.5-.3,1.1.2,1.5.5.4,1.1.3,1.5-.2l1.9-2.4c.4-.5.3-1.1-.2-1.5-.2-.2-.4-.2-.7-.2Z"/>
  <path class="st0" d="M498,349h0c-.6,0-1.1.5-1.1,1.1l.7,25.5,2.3,26.6,3.8,25.8,5.1,23.2,5.9,19,6.6,13.8,6.7,7.3,6.4.2s0,0,0,0c.6,0,1.1-.5,1.1-1,0-.6-.4-1.1-1-1.1l-5.5-.2-5.9-6.5-6.3-13.2-5.9-18.7-5-23-3.8-25.6-2.3-26.5-.7-25.4c0-.6-.5-1.1-1.1-1.1Z"/>
  <path class="st0" d="M498,349s0,0,0,0l-28,1.9-28.4.4c-.6,0-1.1.5-1.1,1.1,0,.6.5,1.1,1.1,1.1h0l28.5-.4,28.1-1.9c.6,0,1-.6,1-1.2,0-.6-.5-1-1.1-1Z"/>
  <path class="st0" d="M510.8,289.5c-.3,0-.6.1-.8.4l-4.9,5.8-31.2,2.2-33.2.5v31.6c-.1,0-.3,22.6-.3,22.6,0,.6.5,1.1,1.1,1.1h0c.6,0,1.1-.5,1.1-1.1l.3-52,31.1-.4,32.2-2.2,5.5-6.5c.4-.5.3-1.1-.1-1.5-.2-.2-.5-.3-.7-.3Z"/>
  <path class="st0" d="M441.7,292.3h0c-.6,0-1.1.5-1.1,1.1v4.8s-31-1.3-31-1.3l-33.2-3.2,4.5,14.2,2.4,18.1.7,23.5,29,2.7,27.5,1.1-1.2,100.3-.9,40.2c-.2.6.2,1.2.7,1.3.6.2,1.2-.2,1.3-.7l.2-.7.2-7.2.6-32.8,1.2-102.4-29.5-1.2-27-2.6-.6-21.7-2.4-18.4-3.6-11.3,30,2.9,33.4,1.4v-7c0-.6-.6-1.1-1.1-1.1Z"/>
  <path class="st0" d="M316,282.2l9,15.4,4.7,18.7,1.4,23.5,26.5,5.7,26.2,4-1.2,24.5-2.9,26.4-4.5,25.6-5.7,23-6.5,18.7-6.8,13-6.4,6.4h-5.8c-.6,0-1.1.6-1.1,1.1,0,.6.4,1.1,1.1,1.1h6.6c0,0,7.3-7.5,7.3-7.5l6.9-13.3,6.6-18.9,5.7-23.1,4.5-25.7,3-26.6,1.3-26.5-28.1-4.3-24.9-5.4-1.4-22.1-4.9-19.3-6.6-11.3,26.7,5.9,30.7,4.8c.6,0,1.1-.3,1.2-.9,0-.6-.3-1.1-.9-1.2l-30.6-4.8-31.4-6.9Z"/>
  <path class="st0" d="M372.6,287.6c-.2,0-.5,0-.7.3-.5.4-.5,1.1-.1,1.5l5.3,6.3c.4.5,1.1.5,1.5.1.5-.4.5-1.1.1-1.5l-5.3-6.3c-.2-.3-.5-.4-.8-.4Z"/>
  <path class="st0" d="M266.4,265.5c-.2,0-.5,0-.7.2-.5.4-.6,1-.2,1.5l11,14.4,6.7,19.3,2.1,23.7,22.4,8.4,23.2,6.7-2,24.5-5.4,26-8.4,24.9-10.7,22.1-12.3,17.6-12.9,12-12.6,5.6-11.7-.9c-.5,0-1.1.4-1.2,1,0,.6.4,1.1,1,1.2l12.2,1,13.6-6.1,13.3-12.4,12.4-17.8,10.9-22.4,8.5-25.2,5.5-26.3,2.2-26.4-24.8-7.1-21-7.9-2.1-22.8-7-19.9-11.1-14.6c-.2-.3-.5-.4-.9-.4Z"/>
  <path class="st0" d="M266.4,265.5c-.4,0-.8.3-1,.7-.2.6,0,1.2.6,1.4l24.7,9.3,27.2,7.9c.6.2,1.2-.2,1.3-.7.2-.6-.2-1.2-.7-1.3l-27.1-7.9-24.6-9.3c-.1,0-.3,0-.4,0Z"/>
  <path class="st0" d="M307.9,275.5c-.3,0-.7.2-.9.5-.3.5-.2,1.2.3,1.5l10.3,7.2c.5.3,1.2.2,1.5-.3.3-.5.2-1.2-.3-1.5l-10.3-7.2c-.2-.1-.4-.2-.6-.2Z"/>
  <path class="st0" d="M244.6,456.9c-.1,0-.2,0-.3,0l-15.7,5-14.4-1.6c-.6,0-1.1.4-1.2,1,0,.6.4,1.1,1,1.2l14.8,1.7,16.1-5.1c.6-.2.9-.8.7-1.4-.1-.5-.6-.8-1-.8Z"/>
  <path class="st0" d="M212.5,445.4c-.4,0-.9.3-1,.7-.2.6,0,1.2.7,1.4l32.1,11.5c.6.2,1.2,0,1.4-.7.2-.6,0-1.2-.7-1.4l-32.1-11.5c-.1,0-.2,0-.4,0Z"/>
  <path class="st0" d="M232.5,262.8c-.1,0-.3,0-.4,0-.5.2-.8.9-.6,1.4l2.4,5.6,2.8,24.1,13.4,11.3,16.4,10.3,18.6,9-2.8,24.5-7.6,25.4-11.8,23.9-15.1,20.7-17.4,16-18.6,10.5c-.5.3-.7,1-.4,1.5.3.5,1,.7,1.5.4l18.9-10.7,17.6-16.3,15.4-21.1,12-24.2,7.7-25.7,3-26.2-19.9-9.6-16.2-10.1-12.7-10.6-2.8-23.7-2.5-5.8c-.2-.4-.6-.7-1-.7Z"/>
  <path class="st0" d="M212.5,445.4c0,0-.2,0-.2,0l-18.3,4.1-16.9-2.5c-.6,0-1.1.3-1.2.9,0,.6.3,1.1.9,1.2l17.3,2.6,18.7-4.2c.6-.1.9-.7.8-1.3-.1-.5-.6-.8-1.1-.8Z"/>
  <path class="st0" d="M65.9,257.1l20.9,19.8-15.6,20.5-8.4,20.2-1.9,20.4,4.5,19.8,24.1,8.2,27.3,2.2,9.6,17.7,14.4,16.4,19.2,15.3,22.4-8.1,21.5-14.1,18.6-19,14.5-22.6,9.3-24.5,3.5-24.8-2.6-23.3-8.4-20.3-.3-1,1.5-.7,17.7,11.2c.5.3.7,1,.3,1.5-.3.5-1,.7-1.5.3l-14.4-9.1,7.2,17.4,2.7,24-3.5,25.2-9.4,25-14.7,22.9-18.9,19.4-21.9,14.4-21.2,7.7,22.2,13.3,28.4,13.1c.5.2.8.9.5,1.4-.3.5-.9.8-1.4.5l-28.5-13.2-23.9-14.3-22.8,1.9-21.6-4.7-23.3-18.5-17.2-19.3-11-19.9h-.2c0,0,0-.2,0-.2l-20.7-14-16.3-19.4-5.4-23.2,1.9-23.1,9.3-23,17.5-23.5,16.2,24.2ZM25.1,279.7l-1.9,22.6,5.2,22.4,15.7,18.7,18.7,12.7-4.1-18.1,1.9-20.9,8.6-20.8,14.7-19.3-19.6-18.6-14.7-21.9-15.5,20.7-9.1,22.4ZM93.4,397.1l22.7,18,20.8,4.5,20.1-1.7-17.7-14.1-14.6-16.6-9.2-17-26.3-2.1-22.5-7.6,9.7,17.6,17,19.1Z"/>
  <path class="st0" d="M105.9,96.4c-.4,0-.8.2-1,.6l-9.4,20.6-3.7,24.2h0c0,.1,2.4,26.5,2.4,26.5l8.1,26.4,13.5,25,17.9,21.8,20.9,16.8,22.8,11,28.8-13.6,19.8,5.1,19.5-1.9,10.6,13c.4.5,1.1.5,1.5.2.5-.4.5-1.1.1-1.5l-11.6-14.2-1.6.6-18.4,1.7-20.2-5.2-28.6,13.5-21.8-10.5-20.6-16.5-17.6-21.4-13.3-24.6-8-26.1-2.3-25.9,3.6-23.8,9.2-20.2c.2-.5,0-1.2-.5-1.4-.1,0-.3,0-.4,0Z"/>
  <path class="st0" d="M105.9,96.4c-.2,0-.4,0-.6.2l-30.1,19.8-23.8,21.7-10.7,21.5-4.1,24.2c0,.6.3,1.1.9,1.2.6,0,1.1-.3,1.2-.9l4.1-24.1,10.5-20.9,23.3-21.1,30-19.7c.5-.3.6-1,.3-1.5-.2-.3-.6-.5-.9-.5Z"/>
  <path class="st0" d="M506.4,73.1l57.4,6,55,9.2,51.6,12.2,47.2,14.9,42,17.3,36.2,19.4,29.7,21.1,22.7,22.3,15.6,23.3,8.4,24.1-3.3,24.8-10,23.2v.2c0,0,0,.2,0,.2l.8,22.5-6.2,22.5-16.1,18.8-21.1,13.8-24.7,7.9-26.7,1.5-26.5-5-25.7-11.5,3.8-15.4-1.2-16.3,26.5,8.9,26.6,2.1,26.5-4.3,24.7-10.4,21.1-15.8,15.8-19.7-7.7-21.9-14.1-20.8-14.6,21-20.5,18.6-23.9,13.4-25.7,7.4-25.8.8h-.1s-23.9-5.9-23.9-5.9c-.6-.1-.9-.7-.8-1.3.1-.6.7-.9,1.3-.8l23.6,5.8,25.2-.7,25.2-7.2,23.5-13.2,20.1-18.3,16.3-23.5,16,23.5,7.2,20.3,8.9-20.6,3.2-24.2-8-23.2-15.3-23-22.5-22.1-29.5-21-36-19.3-41.9-17.2-47.1-14.8-51.4-12.1-54.9-9.2-57.3-6-58.6-2.7-58.8.7-57.8,4.1-55.7,7.3-52.6,10.5-48.4,13.4-43.3,16-37.5,18.3-31,20.2-24.2,21.8c-.4.4-1.1.4-1.5,0-.4-.4-.4-1.1,0-1.5l24.4-21.9,31.3-20.4,37.7-18.4,43.5-16.1,48.6-13.4,52.7-10.5,55.8-7.3,57.9-4.1,58.9-.7,58.7,2.7ZM741.6,341.1l-23.8-8,.9,13.2v.2s-3.4,14-3.4,14l23.7,10.7,26.1,5,26-1.5,24.1-7.7,20.6-13.4,15.6-18.1,6.1-22-.7-19.6-14.4,18-21.5,16.2-25.2,10.7-27.2,4.5-27-2.2Z"/>
  <path class="st0" d="M700.4,301.3c-.2,0-.4,0-.6.2-.5.3-.6,1-.2,1.5l10.3,14.3,5.7,14.6c.2.6.8.8,1.4.6.6-.2.8-.8.6-1.4l-5.9-15-10.4-14.4c-.2-.3-.5-.4-.9-.4Z"/>
  <path class="st0" d="M673.5,284.5c-.1,0-.3,0-.4,0-.6.2-.8.8-.6,1.4l5.3,13.1,16.7,19.2,21.5,14.2c.5.3,1.2.2,1.5-.3.3-.5.2-1.2-.3-1.5l-21.4-14.2-16.3-18.7-5-12.6c-.2-.4-.6-.7-1-.7Z"/>
  <path class="st0" d="M673.5,284.5c-.3,0-.5,0-.7.3-.4.4-.5,1.1,0,1.5l16.2,18.1c.4.4,1.1.5,1.5,0,.4-.4.5-1.1,0-1.5l-16.2-18.1c-.2-.2-.5-.4-.8-.4Z"/>
  <path class="st0" d="M680.1,289.3c-.2,0-.4,0-.6.2-.5.4-.6,1-.2,1.5l9.7,13.3c.4.5,1,.6,1.5.2.5-.4.6-1,.2-1.5l-9.7-13.3c-.2-.3-.5-.4-.9-.4Z"/>
  <path class="st0" d="M680.1,289.3c-.4,0-.7.2-.9.5-.3.5-.1,1.2.4,1.5l20.4,12c.5.3,1.2.1,1.5-.4.3-.5.1-1.2-.4-1.5l-20.4-12c-.2-.1-.4-.1-.5-.1Z"/>
  <path class="st0" d="M666.2,274.5c-.3,0-.7.2-.9.5-.3.5-.2,1.2.3,1.5l19.3,13,14.8,13.7c.4.4,1.1.4,1.5,0,.4-.4.4-1.1,0-1.5l-14.9-13.8-19.4-13.1c-.2-.1-.4-.2-.6-.2Z"/>
  <path class="st0" d="M707.7,168.2l-11.2,26.7-13.9,22.6-16.1,17.9-17.2,12.2-17.1,5.6-16-1.3c-.5,0-1.1.4-1.2,1,0,.6.4,1.1,1,1.2l16.4,1.3,17.9-5.9,17.7-12.5,16.3-18.2,14.1-22.9,10.4-24.9,39.7,16.1,33.9,17.9-13.1,23.2-17.6,20.5-20.6,15.8-22.1,9.9-22,3.3-20.6-3.3c-.6,0-1.1.3-1.2.9,0,.6.3,1.1.9,1.2l20.9,3.4,22.7-3.5,22.5-10.2,21-16.1,17.8-20.8,14.3-25.3-36-19-41.8-17Z"/>
  <path class="st0" d="M247.2,256.1c-.4,0-.8.2-1,.6-.3.5,0,1.2.5,1.4l19.1,9.3c.5.3,1.2,0,1.4-.5.3-.5,0-1.2-.5-1.4l-19.1-9.3c-.2,0-.3-.1-.5-.1Z"/>
  <path class="st0" d="M251.7,256.8c-.4,0-.7.2-.9.5-.3.5-.1,1.2.4,1.5l14.6,8.7c.5.3,1.2.1,1.5-.4.3-.5.1-1.2-.4-1.5l-14.6-8.7c-.2-.1-.4-.2-.6-.2Z"/>
  <path class="st0" d="M796.9,111.9c-.3,0-.5,0-.7.3-.4.4-.5,1.1,0,1.5l14.9,16.1,9.4,20.6,3.4,23.7-2.9,25.2-9,25-14.6,23-19.1,19.5-22.3,14.5-25.7,9.3,18.8,17.6,12.1,17,6.5,17.3,1,17.3-4.4,17.1-9.8,16.7-14.6,15.6-23.4-7.4-22.5-13.5c-.5-.3-1.2-.1-1.5.4-.3.5-.1,1.2.4,1.5l22.8,13.6,24.8,7.9,15.7-16.8,10-17.2,4.6-17.6-1.1-18.1-6.8-17.8-12.3-17.3-16.3-15.3,22.7-8.2,22.7-14.8,19.4-19.8,14.8-23.4,9.2-25.5,3-25.6h0c0-.1-3.5-24.4-3.5-24.4l-9.7-21.1-15-16.3c-.2-.2-.5-.3-.8-.3Z"/>
  <path class="st0" d="M671.2,281.3c-.2,0-.3,0-.5,0-.5.2-.8.9-.5,1.4l7.3,15.8,1,12.5-3.1,13.1,16.8,21.3,20.4,15.9-7.7,13.4-12.5,13.6c-.4.4-.4,1.1,0,1.5.4.4,1.1.4,1.5,0l12.7-13.8,8.7-15.1-21.8-17-15.9-20.1,2.9-12.4-1.1-13.4-7.4-16c-.2-.4-.6-.6-1-.6Z"/>
  <path class="st0" d="M668.5,278.6s0,0,0,0c-.6,0-1,.6-1,1.2l.7,8.6c0,.6.6,1,1.2,1,.6,0,1-.6,1-1.2l-.7-8.6c0-.6-.5-1-1.1-1Z"/>
  <path class="st0" d="M667.9,278c0,0-.1,0-.2,0-.6,0-1,.6-.9,1.2l1.4,9.2c0,.6.7,1,1.2.9.6,0,1-.6.9-1.2l-1.4-9.2c0-.5-.5-.9-1.1-.9Z"/>
  <path class="st0" d="M658.5,271.3c-.5,0-1,.4-1.1.9l-2.2,15.5,3.4,24.9c0,.6.6,1,1.2.9.6,0,1-.6.9-1.2l-3.4-24.6,2.1-15.2c0-.6-.3-1.1-.9-1.2,0,0-.1,0-.2,0Z"/>
  <path class="st0" d="M669.2,287.2c-.5,0-.9.3-1.1.8l-2.8,12.1-6.5,11.8c-.3.5-.1,1.2.4,1.5.5.3,1.2.1,1.5-.4l6.7-12.2,2.8-12.3c.1-.6-.2-1.2-.8-1.3,0,0-.2,0-.2,0Z"/>
  <path class="st0" d="M669.2,287.2c-.1,0-.3,0-.4,0-.5.2-.8.9-.5,1.4l10.5,23.2,16.5,19.8c.4.5,1.1.5,1.5.1.5-.4.5-1.1.1-1.5l-16.4-19.7-10.3-22.8c-.2-.4-.6-.6-1-.6Z"/>
  <path class="st0" d="M447.9,46.8l-58.3.7-57.4,4-55.3,7.3-52.2,10.4-48.1,13.3-43.1,16-37.4,18.3-31,20.3-24.3,22-16.9,23.1-4.4,24.7,2.8,25.2-9.4,23.4-1.9,23.9,10.1,23.7,16.1,19.8,5.1,21.8,11.9,21.5,20.9,13.4,24.3,7.2,26.1.7,26.5-5.9,24.7-12,21.3-17.3,16.8-21.8-6.7-13.2-2.4-12.4,10.8-22.5c.3-.5,0-1.2-.5-1.4-.5-.3-1.2,0-1.4.5l-11.1,23.1,2.6,13.6,6.2,12.1-15.9,20.6-21,17-24.3,11.7-25.9,5.7-25.7-.7-23.7-7-20-12.9-11.6-20.9-5.1-21.9-16.3-20.1-9.7-22.8,1.8-23.2,9.4-23.5-2.8-25.4,4.2-23.9,16.6-22.6,23.9-21.7,30.7-20.1,37.2-18.2,42.9-15.9,47.9-13.3,52-10.4,55.2-7.3,57.2-4,58.2-.7,58,2.7,56.7,6,54.3,9.1,50.9,12.1,46.6,14.8,41.5,17.2,35.6,19.2,29.2,20.9,22.3,22,15.2,22.8,3.7,23.8-3.2,24.6-9.8,23.7-15.9,21.1-20.8,17.1-24.3,11.8-26.1,5.8-26.1-.7-24.3-7-23.8-14.8,6.5,16.5,1,13.6c0,.6.5,1.1,1.2,1,.6,0,1-.6,1-1.2l-1.1-14.1-4.2-10.6,18.6,11.5,24.9,7.2,26.5.7,26.8-6,24.8-12.1,21.2-17.4,16.2-21.5,10-24.2,3.2-25-3.9-24.7-15.5-23.2-22.5-22.2-29.4-21.1-35.8-19.3-41.6-17.3-46.8-14.8-51.1-12.1-54.5-9.2-56.8-6-58.1-2.7Z"/>
  <path class="st0" d="M447.4,97.4l-58.4.7-57.5,4-55.4,7.3-52.3,10.4-48.2,13.2-43.2,15.9-37.5,18.2-31.1,20.1-24.3,21.8-17.2,23.2,10,25.3,15.6,21.5-8.8,21.4-2,22.5,22.2,16,25.5,9.9,27.4,3.7,27.8-3,25.9-9.3,22.1-14.9c.5-.3.6-1,.3-1.5-.3-.5-1-.6-1.5-.3l-22,14.8-25.4,9.1-27.2,2.9-27-3.6-25-9.8-20.9-15.1,1.8-21.2,9.1-22.1-16.3-22.4-9.4-23.8,16.4-22.1,24-21.5,30.8-19.9,37.3-18.1,43-15.8,48-13.2,52.2-10.3,55.3-7.2,57.4-4,58.3-.7,58.1,2.6,56.8,5.9,54.5,9,51.1,12,46.7,14.6,41.6,17,35.7,19,29.3,20.7,22.3,21.8,15.3,22.7,8,23,.8,22.9-9.9,22.2-16,19.1-21,14.6-24.6,9-26.5,2.9-26.6-3.6-24.8-9.7-22.7-16.2-3.6,15-6.6,11.6-14.7-20-10.5-25.4-11.4,12.7-13.5,10.6-16.7,9.7-19.6,8.7-22.2,7.6-24.4,6.3-26.2,4.9-27.5,3.5-28.5,2-28.9.4-28.9-1.1-28.4-2.7-27.5-4.2-26.1-5.6-24.3-6.9-22.1-8.2-19.4-9.3-16.5-10.2-13.2-11-9.6-11.5-6-11.9-2.3-12.3c-.1-.6-.7-1-1.3-.9-.6.1-1,.7-.9,1.3l2.4,12.7,6.3,12.4,9.8,11.7,13.5,11.3,16.7,10.4,19.6,9.4,22.2,8.2,24.4,7,26.2,5.6,27.6,4.2,28.5,2.7,29,1.1,29-.4,28.6-2,27.7-3.5,26.3-4.9,24.5-6.3,22.4-7.6,19.8-8.8,17-9.9,13.8-10.8,9.2-10.3,9.3,22.6,16.7,22.8,8.4-15,2.9-12,20.4,14.6,25.3,9.9,27,3.6,27.2-3,25.1-9.3,21.4-15,16.4-19.6,10.1-22.8-.9-23.9-8.2-23.6-15.5-23-22.5-22-29.5-20.8-35.9-19.1-41.7-17.1-46.9-14.7-51.2-12-54.6-9-57-5.9-58.3-2.6Z"/>
  <path class="st0" d="M501.3,156l53.4,5.4,51.2,8.3,48,11.1,44,13.6,39.2,15.8,33.8,17.7,27.8,19.3,21.3,20.4,14.7,21.4,7.9,21.9,1,22.2-5.9,21.6-12.7,21.2-20.3,12.6-23.5,6.5-16.4,17.3-21.8,16.4-26.6,15-31,13.4-34.9,11.6-38.1,9.6-40.8,7.5-42.9,5.3-44.2,3-44.9.7-44.9-1.6-44.3-4-42.9-6.2-40.8-8.4-38.1-10.5-34.8-12.5-30.9-14.2-26.4-15.8-21.5-17.1-16-18-10.4-18.9-4.4-19.6,1.9-19.4,7.8-18.4-23.9-12.3-22.1-18.8,16.5-21.9,22.9-20.3,29.2-18.6,35.2-16.8,40.5-14.7,45.2-12.3,49-9.6,51.9-6.8,53.8-3.8,54.7-.7,54.6,2.4ZM50.7,278.6l20.2,17.3,23.9,12.2,13.8-17.9,20.3-17.6,25.9-16.3,31.1-14.7,35.8-12.9,39.9-10.7,43.2-8.4,45.7-5.9,47.4-3.3,48.2-.6,48.1,2.1,47,4.7,45.1,7.2,42.4,9.6,38.9,11.8,34.7,13.8,30,15.5,24.7,16.9,19,17.9,13.2,18.8,7.2,19.3,1.1,19.6-5,19-9.6,16.3,20.8-5.7,19.7-12.2,12.2-20.4,5.8-21.1-.9-21.4-7.7-21.4-14.4-21-21.1-20.2-27.5-19.1-33.6-17.6-39-15.7-43.8-13.5-47.9-11-51-8.3-53.2-5.4-54.4-2.4-54.6.7-53.7,3.7-51.8,6.7-48.9,9.6-45,12.2-40.4,14.6-35,16.7-29,18.5-22.6,19.9-15.2,20.1ZM88,328.8l-1.9,18.9,4.2,18.9,10.1,18.5,15.7,17.8,21.2,16.9,26.2,15.6,30.7,14.1,34.6,12.4,38,10.5,40.7,8.4,42.8,6.2,44.1,4,44.8,1.6,44.8-.7,44.1-3,42.7-5.3,40.7-7.5,38-9.6,34.7-11.5,30.8-13.3,26.4-14.9,21.6-16.2,14.7-15.6h-23c0,0-25.6-6.3-25.6-6.3l-24-12.4-19.9-17-11,12-15.5,11.9-19,10.9-22.2,9.8-25,8.5-27.5,7-29.4,5.5-30.9,3.9-31.9,2.2-32.5.5-32.5-1.2-31.9-2.9-30.9-4.6-29.4-6.2-27.4-7.7-24.9-9.1-22-10.4-18.8-11.5-15.2-12.4-11.1-13-7.1-13.7-2.8-14.1c-.1-.6.3-1.2.9-1.3.6-.1,1.2.3,1.3.9l2.7,13.6,6.9,13.3,10.9,12.8,14.9,12.2,18.5,11.3,21.8,10.3,24.7,9,27.2,7.7,29.2,6.2,30.8,4.6,31.8,2.9,32.3,1.2,32.3-.5,31.8-2.2,30.8-3.8,29.3-5.5,27.3-7,24.9-8.4,22-9.7,18.8-10.8,15.2-11.7,12.2-13.4,21.2,18.1,23.6,12.2,25.2,6.3h24.6c0-.1,10.5-17.7,10.5-17.7l4.9-18.5-1-18.8-7-18.7-12.9-18.4-18.8-17.7-24.5-16.7-29.8-15.4-34.5-13.7-38.7-11.8-42.2-9.6-45-7.2-46.9-4.7-47.9-2.1-48.1.6-47.3,3.3-45.6,5.9-43.1,8.4-39.7,10.7-35.6,12.8-30.9,14.6-25.7,16.2-20,17.4-14.1,18.3-8,18.7Z"/>
  <path class="st0" d="M95.1,308.5c-.5,0-.9.3-1,.8-.1.6.2,1.2.8,1.3l27,6.6h26.8c.6,0,1.1-.5,1.1-1.1s-.5-1.1-1.1-1.1h-26.7s-26.6-6.6-26.6-6.6c0,0-.2,0-.3,0Z"/>
  <path class="st0" d="M486.1,225.3l39.7,3.9,38.1,6.1,35.8,8.1,32.9,9.9,29.4,11.6,25.5,13.1,21.1,14.3,16.4,15.3,11.3,15.7,6.3,16.3,1.1,16.7-4.1,16.2-9.1,15.8-14.1,15.2-18.4,14-22.6,12.8-26.3,11.4-29.6,9.9-32.5,8.2-34.8,6.4-36.5,4.5-37.7,2.6-38.3.6-38.3-1.4-37.7-3.4-36.5-5.4-34.7-7.2-32.4-9-29.5-10.6-26.2-12.1-22.3-13.5-18.1-14.6-13.3-15.3-8.6-16.1-3.5-16.7,1.8-16.5,7.1-16.4,12.5-15.9,17.3-14.9,22-13.8,26.4-12.4,30.3-10.8,33.7-9,36.5-7.1,38.6-5,40-2.8,40.6-.5,40.5,1.7ZM142.6,332.5l-1.8,16,3.3,15.9,8.3,15.7,13.1,15.1,17.8,14.4,22.1,13.3,26,12,29.4,10.6,32.2,9,34.6,7.2,36.4,5.3,37.6,3.4,38.2,1.4,38.2-.6,37.6-2.6,36.4-4.5,34.6-6.4,32.3-8.2,29.5-9.8,26.1-11.3,22.3-12.7,18.2-13.8,13.7-14.8,8.9-15.3,4-15.7-1-15.9-6.1-15.8-11.1-15.5-16.1-15-20.9-14.1-25.3-12.9-29.3-11.5-32.8-9.9-35.7-8.1-38-6.1-39.6-3.9-40.4-1.7-40.5.5-39.9,2.8-38.5,5-36.3,7-33.5,9-30.1,10.8-26.2,12.3-21.8,13.6-17.1,14.6-12.1,15.5-6.9,15.8Z"/>
  <path class="st0" d="M205.7,282.7c-.2,0-.4,0-.5.1l-21.1,11.8-11,14-24.7,6.4c-.6.1-.9.7-.8,1.3.1.6.7.9,1.3.8l25.5-6.6,11.3-14.4,20.6-11.4c.5-.3.7-.9.4-1.5-.2-.4-.6-.6-.9-.6Z"/>
  <path class="st0" d="M205.7,282.7c-.3,0-.6.1-.8.4l-10.5,13.4-6.2,13.9-1.7,13.8c0,.6.4,1.1.9,1.2.6,0,1.1-.3,1.2-.9l1.7-13.6,6-13.3,10.3-13c.4-.5.3-1.1-.2-1.5-.2-.2-.4-.2-.7-.2Z"/>
  <path class="st0" d="M213.4,276.4c-.4,0-.8.2-1,.6l-7.2,14.8-1.6,12.6-16.9,19.3c-.4.4-.3,1.1,0,1.5.4.4,1.1.3,1.5,0l17.4-19.8,1.6-13.1,7-14.3c.3-.5,0-1.2-.5-1.4-.2,0-.3-.1-.5-.1Z"/>
  <path class="st0" d="M216.6,273.4c-.5,0-1,.4-1.1.9l-1,7.5c0,.6.3,1.1.9,1.2.5,0,1.1-.3,1.2-.9l1-7.5c0-.6-.3-1.1-.9-1.2,0,0,0,0-.1,0Z"/>
  <path class="st0" d="M217,273.1c-.5,0-1,.4-1.1.9l-1.3,7.8c0,.6.3,1.1.9,1.2.6.1,1.1-.3,1.2-.9l1.3-7.8c0-.6-.3-1.1-.9-1.2,0,0-.1,0-.2,0Z"/>
  <path class="st0" d="M230.9,263.7c-.2,0-.5,0-.7.2-.5.4-.5,1.1-.1,1.5l4,4.9,13.5,11.4,16.7,10.5,19.6,9.5,22.2,8.3,24.4,7.1,26.2,5.7,27.6,4.2,28.5,2.7,29,1.2,29-.4,28.5-2,27.6-3.5,26.3-5,24.5-6.4,22.3-7.7,19.8-8.9,16.9-9.9,13.8-10.9,5.2-5.8c.4-.4.4-1.1,0-1.5-.4-.4-1.1-.4-1.5,0l-5.1,5.7-13.5,10.7-16.7,9.8-19.6,8.8-22.1,7.6-24.3,6.3-26.1,5-27.5,3.5-28.4,2-28.8.4-28.8-1.2-28.4-2.7-27.4-4.2-26-5.7-24.2-7-22-8.3-19.4-9.4-16.4-10.4-13.2-11.1-3.9-4.7c-.2-.3-.5-.4-.8-.4Z"/>
  <path class="st0" d="M550.9,340.7s0,0,0,0c-.6,0-1,.6-1,1.1l1.6,25.4,4.8,26.3,7.8,25.3,10.1,22.5,12,18.3,12.9,12.7,12.8,6.2,11.9-.7c.6,0,1.1-.5,1-1.1,0-.6-.6-1-1.1-1l-11.3.7-12.1-5.8-12.4-12.3-11.7-17.9-10-22.2-7.7-25-4.8-26-1.6-25.2c0-.6-.5-1-1.1-1Z"/>
  <path class="st0" d="M550.9,340.7c0,0-.1,0-.2,0l-25.8,4.9-27.1,3.4c-.6,0-1,.6-.9,1.2,0,.6.6,1,1.2.9l27.1-3.4,25.9-4.9c.6-.1,1-.7.9-1.3,0-.5-.6-.9-1.1-.9Z"/>
  <path class="st0" d="M575.6,279.2c-.2,0-.4,0-.6.2l-9.9,6.8-29,5.5-31.3,4-4.3,13.2-2.7,18.4-1,22.7c0,.6.4,1.1,1,1.1.7,0,1.1-.4,1.1-1l1-22.6,2.6-18.1,3.8-11.7,30-3.8,29.7-5.7,10.1-6.9c.5-.3.6-1,.3-1.5-.2-.3-.5-.5-.9-.5Z"/>
  <path class="st0" d="M299.1,382.1c-.4,0-.8.2-1,.7l-10.2,24.6-12.6,20.7-26.1-9.5-24.3-11.4-20.2,15.6-20.8,9.4-20.6,3-19.1-3.5c-.6-.1-1.1.3-1.3.9-.1.6.3,1.1.9,1.3l19.4,3.6,21.3-3.2,21.3-9.7,19.3-14.9,23.2,10.8,27.9,10.1,13.6-22.4,10.3-24.7c.2-.6,0-1.2-.6-1.4-.1,0-.3,0-.4,0Z"/>
  <path class="st0" d="M238.9,293.1l-3.8,25.4-9.8,23.8,13.3,11,17.3,10.7,20.4,9.7,23.2,8.5c.6.2.8.8.6,1.4-.2.6-.8.8-1.4.6l-23.3-8.6-20.6-9.8-17.5-10.8-13.1-10.8-15,21.1-21.1,19.1-12.9-14.9-7.4-13.9-24.4,10.2-28.2,4.6-4.1-18.9,1.9-17.9,7.7-17.9,13.3-17.2c.4-.5,1-.6,1.5-.2.5.4.6,1,.2,1.5l-13.1,16.9-7.5,17.3-1.8,17.4,3.6,16.5,25.9-4.2,26.1-10.9,8.1,15.4,11.3,13.1,19.2-17.4,15.1-21.2-10.2-12.1,10.7-24.3,4.3-27,11.5,13.8ZM223.7,340.7l9.3-22.6,3.7-24.3-7.8-9.4-3.5,22.4-10.3,23.5,8.8,10.4Z"/>
  <path class="st0" d="M85.4,275.9c-.4,0-.7.2-.9.5-.3.5-.1,1.2.4,1.5l24.1,14.2,25.7,8.1c.6.2,1.2-.1,1.4-.7.2-.6-.1-1.2-.7-1.4l-25.6-8-23.8-14c-.2-.1-.4-.1-.5-.1Z"/>
  <path class="st0" d="M106.8,256.8l-22.1,19.4c-.4.4-.5,1.1-.1,1.5.4.4,1.1.5,1.5.1l20.9-18.3,22,15.1,24.5,9.5,24.5,2.8,23.2-4.1,19.6-10.5c.5-.3.7-.9.4-1.5-.3-.5-.9-.7-1.5-.4l-19.4,10.4-22.4,3.9-24-2.7-24-9.4-23.1-15.8Z"/>
  <path class="st0" d="M91.3,100.2c-.3,0-.6.1-.8.3l-15.7,16.2-10.1,21.1-4,24.3h0c0,.1,2.6,26.3,2.6,26.3l8.9,26,14.7,24.1,19.8,21.1,28.3-18,32.4-15.4,18.2,17.4,20.4,12.2,33.5-12,36.2-9.7,14,7h13.5c.6,0,1.1-.5,1.1-1.1,0-.6-.5-1.1-1.1-1.1h-13s-14.3-7.1-14.3-7.1l-37.1,10-32.6,11.7-19.4-11.6-19-18.2-33.9,16.1-26.9,17.1-18.5-19.7-14.4-23.7-8.7-25.6-2.5-25.6,3.9-23.8,9.9-20.5,15.4-15.8c.4-.4.4-1.1,0-1.5-.2-.2-.5-.3-.8-.3Z"/>
  <path class="st0" d="M209.4,41.8c-.2,0-.3,0-.5.1l-14.5,7.6-10.9,13.6-41.6,15.5-36.4,17.9c-.5.3-.8.9-.5,1.4.3.5.9.8,1.4.5l36.3-17.8,42.1-15.7,11.1-13.9,13.9-7.2c.5-.3.7-.9.5-1.5-.2-.4-.6-.6-1-.6Z"/>
  <path class="st0" d="M155.1,64.1c-.2,0-.4,0-.6.2l-49.2,32.3c-.5.3-.6,1-.3,1.5.3.5,1,.6,1.5.3l49.2-32.3c.5-.3.6-1,.3-1.5-.2-.3-.6-.5-.9-.5Z"/>
  <path class="st0" d="M155.1,64.1c-.3,0-.6.1-.8.4l-13,14.8-8.4,20.2-3.3,24.1h0c0,.1,2.1,26.5,2.1,26.5l7.3,27.1,12,25.8,16.4,23.3,39.1-14.1,41.8-11.3,12.8,19.1,14.5,14.2,40.3-7.8,41.5-5.3,7.1,8.1,7.2,1c.6,0,1.1-.3,1.2-.9,0-.6-.3-1.1-.9-1.2l-6.4-.9-7.4-8.3-42.7,5.5-39.3,7.6-13.7-13.3-13.5-20.1-43.4,11.7-37.6,13.6-15.3-21.8-11.9-25.4-7.2-26.7-2-26.1,3.3-23.7,8.2-19.6,12.7-14.3c.4-.4.4-1.1,0-1.5-.2-.2-.5-.3-.7-.3Z"/>
  <path class="st0" d="M171.5,55.9c-.2,0-.3,0-.5.1l-16.4,8.2c-.5.3-.8.9-.5,1.4.3.5.9.8,1.4.5l16.4-8.2c.5-.3.8-.9.5-1.4-.2-.4-.6-.6-1-.6Z"/>
  <path class="st0" d="M240.1,36.6c0,0-.2,0-.3,0l-44.8,12.5-40.3,15c-.6.2-.8.8-.6,1.4.2.6.8.8,1.4.6l40.2-15,44.7-12.5c.6-.2.9-.8.7-1.3-.1-.5-.6-.8-1-.8Z"/>
  <path class="st0" d="M240.1,36.6c-.3,0-.7.2-.9.5l-9.3,13.6-6,19.5-2.4,23.8,1.4,26.9,5.1,27.9,8.5,27,11.6,25,47.1-9.2,48-6.2,6.4,19.8,7.6,15.8,44.4-3.1,44.3-.6c.6,0,1.1-.5,1.1-1.1,0-.6-.4-1-1.1-1.1l-44.3.6-43,3-6.9-14.3-6.9-21.4-49.9,6.5-45.5,8.9-10.8-23.3-8.4-26.7-5-27.6-1.4-26.6,2.4-23.5,5.9-19,9.1-13.2c.3-.5.2-1.2-.3-1.5-.2-.1-.4-.2-.6-.2Z"/>
  <path class="st0" d="M445.7,215.1c-.6,0-1.1.5-1.1,1.1l-.2,8.5-.2,1.2c0,.6.3,1.1.9,1.2.6,0,1.1-.3,1.2-.9l.2-1.3.2-8.6c0-.6-.5-1.1-1.1-1.1h0Z"/>
  <path class="st0" d="M251.8,30c-.2,0-.4,0-.5.1l-11.7,6.6c-.5.3-.7,1-.4,1.5.3.5,1,.7,1.5.4l11.7-6.6c.5-.3.7-1,.4-1.5-.2-.3-.6-.5-.9-.5Z"/>
  <path class="st0" d="M340.2,20s0,0-.1,0l-51.5,6.8-48.7,9.8c-.6.1-1,.7-.8,1.3.1.6.7,1,1.3.8l48.6-9.8,51.4-6.8c.6,0,1-.6.9-1.2,0-.5-.5-.9-1.1-.9Z"/>
  <path class="st0" d="M340.2,20c-.4,0-.8.3-1,.7l-4.8,12.7-3.2,19-1.4,23.8.6,27,2.5,28.3,4.2,27.7,5.8,26,51.7-3.6,51.6-.7c.6,0,1.1-.5,1.1-1.1,0-.6-.5-1.1-1.1-1.1l-51.7.7-49.9,3.5-5.4-24.1-4.2-27.5-2.5-28.2-.6-26.9,1.3-23.6,3.1-18.7,4.7-12.5c.2-.6,0-1.2-.6-1.4-.1,0-.3,0-.4,0Z"/>
  <path class="st0" d="M446.4,178.8c-.6,0-1.1.5-1.1,1.1l-.7,37.3,45.3,1.9,43.2,4.3c.6,0,1.1-.4,1.2-1,0-.6-.4-1.1-1-1.2l-43.3-4.3-43.2-1.8.6-35.2c0-.6-.5-1.1-1.1-1.1h0Z"/>
  <path class="st0" d="M533.3,221.3c-.3,0-.6.1-.8.3l-7.4,7.7-6.7.7c-.6,0-1,.6-1,1.2,0,.6.6,1,1.2,1l7.5-.8,7.9-8.2c.4-.4.4-1.1,0-1.5-.2-.2-.5-.3-.7-.3Z"/>
  <path class="st0" d="M346.3,14.3c-.3,0-.5,0-.7.3l-6,5.7c-.4.4-.4,1.1,0,1.5.4.4,1.1.4,1.5,0l6-5.7c.4-.4.4-1.1,0-1.5-.2-.2-.5-.3-.8-.3Z"/>
  <path class="st0" d="M448,15.6h0l-54.3.6-53.5,3.8c-.6,0-1,.6-1,1.2,0,.6.6,1,1.2,1l53.4-3.8,54.2-.6c.6,0,1.1-.5,1.1-1.1,0-.6-.5-1.1-1.1-1.1Z"/>
  <path class="st0" d="M448,15.6c-.6,0-1.1.5-1.1,1.1v31.2c-.1,0-.9,79-.9,79l-.7,54.1,52.6,2.3,50.3,5.1c.5,0,1.1-.4,1.2-1,0-.6-.4-1.1-1-1.2l-50.4-5.1-50.5-2.2,1-80.4.6-69.3v-12.5c0-.6-.5-1.1-1.1-1.1h0Z"/>
  <path class="st0" d="M548.3,186.2c-.4,0-.9.3-1,.7l-7.3,20.4-7.7,14.6c-.3.5,0,1.2.5,1.5.5.3,1.2,0,1.5-.5l7.7-14.7,7.3-20.5c.2-.6,0-1.2-.7-1.4-.1,0-.2,0-.4,0Z"/>
  <path class="st0" d="M533.3,221.3c-.5,0-1,.4-1.1.9,0,.6.3,1.1.9,1.2l41.5,6.6,39,8.8c.6.1,1.2-.2,1.3-.8.1-.6-.2-1.2-.8-1.3l-39-8.8-41.6-6.7c0,0-.1,0-.2,0Z"/>
  <path class="st0" d="M613.8,236.7c-.2,0-.3,0-.4,0l-14.2,6.5-13.1-.4c-.6,0-1.1.4-1.1,1,0,.6.4,1.1,1,1.1l13.6.4,14.7-6.7c.5-.2.8-.9.5-1.4-.2-.4-.6-.6-1-.6Z"/>
  <path class="st0" d="M447.9,10.2h0c-.6,0-1.1.5-1.1,1.1v6.5c0,0,55.3,2.6,55.3,2.6l52.2,5.6,4.5,12.1,2.9,18.7.9,23.5-1.1,26.7-3.1,28-4.9,27.3-6.3,24.7c-.1.6.2,1.2.8,1.3.6.1,1.2-.2,1.3-.8l6.3-24.8,4.9-27.5,3.1-28.1,1.1-26.9-1-23.7-2.9-19-5-13.6-53.6-5.7-53.2-2.5v-4.5c0-.6-.6-1.1-1.1-1.1Z"/>
  <path class="st0" d="M548.3,186.2c-.5,0-1,.4-1.1.9,0,.6.3,1.1.9,1.2l48.3,7.8,45.3,10.4c.6.1,1.2-.2,1.3-.8.1-.6-.2-1.2-.8-1.3l-45.3-10.4-48.4-7.8c0,0-.1,0-.2,0Z"/>
  <path class="st0" d="M641.9,204.3c-.3,0-.7.2-.9.5l-13.5,19-14.4,13.2c-.4.4-.5,1.1,0,1.5.4.4,1.1.5,1.5,0l14.7-13.5,13.6-19.1c.3-.5.2-1.2-.3-1.5-.2-.1-.4-.2-.6-.2Z"/>
  <path class="st0" d="M613.8,236.7c-.5,0-.9.3-1,.8-.2.6.1,1.2.7,1.3l35.8,10.8,31.9,12.6c.6.2,1.2,0,1.4-.6.2-.6,0-1.2-.6-1.4l-32-12.6-35.9-10.9c-.1,0-.2,0-.3,0Z"/>
  <path class="st0" d="M681.7,260.2c0,0-.2,0-.2,0l-19.9,4.6-18.4-2.2c-.6,0-1.1.3-1.2.9,0,.6.3,1.1.9,1.2l18.8,2.3,20.2-4.6c.6-.1.9-.7.8-1.3-.1-.5-.6-.8-1.1-.8Z"/>
  <path class="st0" d="M548.9,17.9c-.3,0-.6.1-.8.3-.4.4-.4,1.1,0,1.5l6.4,6.1,51.1,8.7,47.1,11.3,8.6,13.1,5.6,19.1,2,23.6-1.9,26.3-5.6,27.3-8.9,26.3-11.6,23.5c-.3.5,0,1.2.5,1.4.5.3,1.2,0,1.4-.5l11.7-23.6,9-26.5,5.6-27.5,1.9-26.6-2-24.1-5.8-19.6-9.2-13.9-48-11.5-50.5-8.6-5.9-5.7c-.2-.2-.5-.3-.8-.3Z"/>
  <path class="st0" d="M641.9,204.3c-.5,0-.9.3-1,.8-.2.6.1,1.2.7,1.3l41.6,12.7,37,14.8c.6.2,1.2,0,1.4-.6.2-.6,0-1.2-.6-1.4l-37-14.8-41.6-12.8c-.1,0-.2,0-.3,0Z"/>
  <path class="st0" d="M720.5,231.9c-.3,0-.5,0-.7.3l-18.7,17-20,11.2c-.5.3-.7.9-.4,1.5.3.5,1,.7,1.5.4l20.3-11.4,18.8-17.1c.4-.4.5-1.1,0-1.5-.2-.2-.5-.4-.8-.4Z"/>
  <path class="st0" d="M681.7,260.2c-.4,0-.8.2-1,.6-.3.5,0,1.2.5,1.5l27.6,14.2,22.7,15.4c.5.3,1.2.2,1.5-.3.3-.5.2-1.2-.3-1.5l-22.8-15.5-27.7-14.3c-.2,0-.3-.1-.5-.1Z"/>
  <path class="st0" d="M666.3,276.5c-.4,0-.7.2-.9.5-.3.5-.1,1.2.4,1.5l19.5,11.1,22.6,4.6,24.3-2.1c.6,0,1-.6,1-1.2,0-.6-.6-1.1-1.2-1l-24,2.1-22.1-4.5-19.1-10.9c-.2,0-.4-.1-.5-.1Z"/>
  <path class="st0" d="M641.8,36.8c-.4,0-.7.2-.9.5-.3.5-.1,1.2.4,1.5l11.8,7.1,43.6,13.9,38.5,16.1,12.2,14.4,7.8,19.7,2.8,23.6-2.5,25.9-7.6,26.2-12.3,24.8-16,21.7c-.4.5-.3,1.2.2,1.5.5.4,1.2.3,1.5-.2l16.1-21.8,12.4-25.2,7.7-26.6,2.6-26.4h0c0-.1-2.9-24.2-2.9-24.2l-8.1-20.3-12.6-15-39.1-16.3-43.6-13.9-11.5-6.9c-.2-.1-.4-.2-.6-.2Z"/>
  <path class="st0" d="M720.5,231.9c-.4,0-.8.2-1,.6-.3.5,0,1.2.5,1.5l31.9,16.6,26.1,18,20,19,13.8,19.8,7.3,20.1.9,20.2-5.4,19.9-11.6,19.4-17.6,18.6-22.9,17.2-20.3,4-22-2.4-22.2-8.8-20.8-14.5-17.9-19.3-13.8-22.8-8.6-24.6-3-24.7,3-23.1,8.6-20.1c.2-.5,0-1.2-.6-1.4-.5-.2-1.2,0-1.4.6l-8.8,20.5-3,23.5h0c0,.1,3,25.3,3,25.3l8.8,25,14,23.1,18.2,19.7,21.2,14.8,22.7,8.9,22.5,2.4,21.3-4.3,23.3-17.5,17.9-19,11.8-19.9,5.5-20.4-1-21-7.6-20.7-14-20.2-20.2-19.2-26.4-18.2-32-16.7c-.2,0-.3-.1-.5-.1Z"/>
  <path class="st0" d="M644.5,264.9c-.2,0-.4,0-.5.1l-17.9,10.6-8.1,20.3-2.7,22.6-18.8,8.4c-.5.2-.8.9-.5,1.4.2.5.9.8,1.4.5l20-8.9,2.8-23.7,7.7-19.2,17.3-10.2c.5-.3.7-1,.4-1.5-.2-.3-.6-.5-.9-.5Z"/>
  <path class="st0" d="M638.6,260.8l-21.7,9.8-11.5,14.7-7.1,19.6-2.5,23c0,.6.4,1.1,1,1.2.6,0,1.1-.4,1.2-1l2.4-22.9,6.9-19,10.9-13.9,20.4-9.2h0c.6.2,1.2,0,1.4-.6.2-.6,0-1.2-.6-1.4l-.9-.3Z"/>
  <path class="st0" d="M639,261c-.3,0-.6.1-.8.4l-11.9,14.1-20.4,9.2-23.6,8.2-6.3,19.7-2.1,22.9,2,25.5,6,26.1,9.6,24.9,11.8,20.7-28.3,7.2-30.8,5.7-7.3-21.9-6-26.3-29.8,3.7-29.8,2-30.2.4-30.2-1.2c-.7,0-1.1.4-1.1,1,0,.6.4,1.1,1,1.1l30.3,1.2,30.4-.4,29.9-2.1,28-3.5,5.6,24.5,8,23.8,32.8-6.1,31.1-7.9-13.1-23-9.5-24.6-5.9-25.8-2-25.1,2.1-22.6,5.8-18.3,22.7-7.9,21-9.6,12.1-14.3c.4-.5.3-1.1-.1-1.5-.2-.2-.5-.3-.7-.3Z"/>
  <path class="st0" d="M407.8,291.5l2.7,6,2.1,12.9,1.2,18.2.2,22.7-.7,25.5-1.6,26.6c0,.6-.6,1-1.1,1-.6,0-1-.5-1-1.1l1.6-26.6.7-25.5-.2-22.6-1.1-18.1-2-12.3-2.6-5.9c-.2-.5,0-1.2.5-1.4.1,0,.3,0,.4,0,.4,0,.8.2,1,.6ZM409.6,298h0,0Z"/>
  <path class="st0" d="M476.5,291.8c-.4,0-.8.2-1,.6l-2.7,6.2-2.1,12.4-1.4,18.2-.6,22.6.2,25.5,1,26.6,1.8,25.9,2.3,22.2-33.9.5-36-1.4-3.6,19.9-3.6,13.5-3.2,6.4-2.6.3c-.6,0-1,.6-1,1.2,0,.6.6,1,1.2,1l3.8-.4,3.8-7.7,3.7-13.8,3.3-18.2,34.2,1.3,36.3-.5-2.5-24.5-1.8-25.8-1-26.6-.2-25.5.6-22.5,1.4-18.1,2-12.2,2.5-5.8c.2-.5,0-1.2-.6-1.4-.1,0-.3,0-.4,0Z"/>
  <path class="st0" d="M317.5,474.5c-.2,0-.4,0-.6.2l-9.7,6.2-8.8-.3c-.6,0-1.1.4-1.1,1,0,.6.4,1.1,1,1.1l9.5.4,10.2-6.6c.5-.3.6-1,.3-1.5-.2-.3-.6-.5-.9-.5Z"/>
  <path class="st0" d="M244.6,456.9c-.5,0-.9.3-1,.8-.2.6.2,1.2.8,1.3l35.2,9.7,37.8,7.8c.6.1,1.2-.3,1.3-.8.1-.6-.3-1.2-.8-1.3l-37.7-7.8-35.1-9.7c0,0-.2,0-.3,0Z"/>
  <path class="st0" d="M351.2,395.1l-6.7,26.3-8,21.7-30.9-6.5-30.2-8.4-15.5,17.5-15.9,11.4c-.5.3-.6,1-.2,1.5.3.5,1,.6,1.5.2l16.2-11.6,14.7-16.6,29,8.1,32.8,6.9,8.6-23.6,6.3-24.5,27.9,4.2,29.9,2.8c.6,0,1.1-.4,1.2-1,0-.6-.4-1.1-1-1.2l-29.8-2.8-29.7-4.5Z"/>
  <path class="st0" d="M410.6,402.3c-.6,0-1,.4-1.1,1l-2.4,25.8-2.9,22.2-33.5-3.1-34.1-5-9.9,19-10,12.7c-.4.5-.3,1.1.2,1.5.5.4,1.1.3,1.5-.2l10.1-12.8,9.3-17.8,32.7,4.8,35.6,3.3,3.2-24.3,2.4-25.9c0-.6-.4-1.1-1-1.2,0,0,0,0-.1,0Z"/>
  <path class="st0" d="M553.1,464.5l10.6,14.5-41.5,5.1-38.9,2.7,4.7,6c.4.5.3,1.1-.2,1.5-.5.4-1.1.3-1.5-.2l-5.7-7.2-41.1.6-41.6-1.5-41-3.7-39.6-5.8c-.6,0-1-.6-.9-1.2,0-.6.6-1,1.2-.9l39.6,5.8,40.9,3.7,41.5,1.5,40.2-.6-2.8-12.4-3-20.2,35.7-2.4,34.2-4.3,9.1,19ZM479.2,472l2.9,12.7,39.9-2.7,37.8-4.7-8.6-11.7-8.6-17.8-32.8,4.1-33.4,2.3,2.6,17.8Z"/>
  <path class="st0" d="M340.1,282.7l7.8,6.7,6,12.8,28.1,4.3,29.6,2.8,30.1,1.2,30.1-.4,29.6-2,28.2-3.6,5.7-12.3,8-6.8c.5-.4,1.1-.3,1.5.1.4.5.3,1.1-.1,1.5l-7.5,6.3-6.1,13.1-29.4,3.7-29.8,2.1-30.2.4-30.2-1.2-29.7-2.9-26.7-4.1h0c0,.1-.5,0-.5,0l3.3,17.1,1,22.9-1.7,25.6-4.4,27.5-28.6-6.1-26.5-7.5,6.8-26.7,2.5-25.1-1.7-22.9-6.4-21,27.2,7.9,25.2,5.5-4.9-10.8-7.7-6.5c-.5-.4-.5-1.1-.1-1.5.2-.3.5-.4.8-.4s.5,0,.7.3ZM324.8,389.4l26.3,5.6,4-25.1,1.7-25.3-1-22.6-3.5-17.8-26.6-5.8-23.5-6.8,5.3,17.3,1.8,23.4-2.5,25.5-6.3,24.8,24.4,6.9Z"/>
  <path class="st0" d="M652.6,267.5c-.4,0-.8.2-1,.6l-3.2,7.2-3.2,23.7h0c0,.1,3.3,25.3,3.3,25.3l9.5,24.6,15.1,22.4,18.5,17.7-15.7,12-21.8,12.4,20.5,16.8,20.7,10,20.5,3.5,19-3.1c.6,0,1-.7.9-1.2,0-.6-.7-1-1.2-.9l-18.7,3-20-3.5-20.2-9.8-17.8-14.6,19.2-11,17.8-13.6-20.2-19.3-14.8-22-9.3-24.2-3.2-24.6,3.1-23.3,3-6.7c.2-.5,0-1.2-.5-1.4-.1,0-.3,0-.4,0Z"/>
  <path class="st0" d="M561.8,477.1c-.3,0-.7.2-.9.5-.3.5-.2,1.2.3,1.5l9.8,6.8,9.2-.2c.6,0,1.1-.5,1.1-1.1,0-.6-.5-1.1-1.1-1.1h0l-8.5.2-9.2-6.4c-.2-.1-.4-.2-.6-.2Z"/>
  <path class="st0" d="M634.8,461.2l-35.6,9-37.7,6.9c-.6.1-1,.7-.9,1.3.1.6.7,1,1.3.9l37.7-7,35-8.8,15.3,5.3,14.5-1.4c.6,0,1-.6,1-1.2,0-.6-.6-1-1.2-1l-14,1.3-15.4-5.4Z"/>
  <path class="st0" d="M662.9,274.9c-.4,0-.7.2-.9.6l-6.4,11.7-10,11.2-13.3,10.4-17,10,2.8,25.8,8,25.4,12.7,23.8,15.7,19.4-22.7,9.9-28.5,9.6,15.6,18.7,15.9,12.1,32.7-10.9,28.7-12.4,24.6-13.9,19.8-14.9,23.8,1.2,22.8-5.4,19-11.4c.5-.3.7-1,.4-1.5-.3-.5-1-.7-1.5-.4l-18.9,11.3-22,5.2-24.3-1.2-20.3,15.3-24.4,13.8-28.5,12.3-31.5,10.5-14.9-11.3-13.4-16,25.6-8.6,25.4-11.1-17.3-21.5-12.5-23.4-7.8-25.1-2.6-24.2,16-9.3,13.6-10.7,10.3-11.6,6.5-11.8c.3-.5,0-1.2-.4-1.5-.2,0-.3-.1-.5-.1Z"/>
  <path class="st0" d="M605.1,271.5c-.2,0-.4,0-.6.2l-12.7,7.8-9.3,13.3-25.1,6.6-28,5.3-4,19.1-1.4,22.8,1.2,25.5,3.8,27.6,28.6-5.3,25.7-6.6,23.4-7.9,20.8-9.2,17.8-10.3,14.4-11.2,11-12.2,7.2-12.9-10.4-23.8-3.5-24.5c0-.6-.7-1-1.2-.9-.6,0-1,.6-.9,1.2l3.6,24.9,10,23-6.6,11.8-10.7,11.8-14.2,11-17.5,10.1-20.6,9.1-23.2,7.9-25.5,6.6-26.3,4.9-3.5-25.2-1.2-25.3,1.4-22.6,3.7-17.5,26.6-5.1,25.9-6.8,9.7-13.8,12.2-7.4c.5-.3.7-1,.4-1.5-.2-.3-.6-.5-.9-.5Z"/>
  <path class="st0" d="M662.7,57.5l42.2,13.5-8.6-11.2-13.8-7.7c-.5-.3-.7-.9-.4-1.5.3-.5,1-.7,1.5-.4l14,7.8,11,14.2,40.3,16.8,34.8,18.9c.5.3.7.9.4,1.5-.3.5-.9.7-1.5.4l-34.7-18.8-38.3-15.9,6.1,17.4,2.5,24.2-2.3,26.5-7,28.1-46.7-14.5-50.9-11.8,4.5-28.7,1.5-26.5-1.5-23.5-4.7-20.8,51.4,12.3ZM662.9,154.4l44.6,13.9,6.4-25.7,2.2-26.1-2.4-23.6-6.6-19-44.9-14.3-48-11.5,4,17.6,1.5,23.8-1.5,26.8-4.2,26.8,49,11.4Z"/>
  <path class="st0" d="M769.4,92.1c-.3,0-.5,0-.7.3-.4.4-.5,1.1,0,1.5l13.9,15.5c.4.4,1.1.5,1.5,0,.4-.4.5-1.1,0-1.5l-13.9-15.5c-.2-.2-.5-.4-.8-.4Z"/>
  <path class="st0" d="M499.9,13.1l3.1,5.6,2.3,12.1,54.5,5.8,50.8,8.6-5.8-11-8.8-6.2c-.5-.3-.6-1-.3-1.5.3-.5,1-.6,1.5-.3l9.2,6.5,8,15.3-55.1-9.3-54-5.7,1.3,17.5.4,23.7-.7,26.9-1.8,29.3-57.8-2.6-58,.7-1.1-29.5-.2-27,.8-23.7,1.7-19.7,57.7-.7,55.2,2.6-2.1-11-3.1-5.5c-.3-.5-.1-1.2.4-1.5.2,0,.3-.1.5-.1.4,0,.7.2.9.6ZM390.7,48.6l-.8,23.6.2,26.9,1.1,27.3,56-.7,55.7,2.5,1.7-27.2.7-26.9-.4-23.6-1.3-17.8-55.5-2.6-55.7.6-1.6,17.7Z"/>
  <path class="st0" d="M397.2,10.9c.5.3.7.9.4,1.5l-2.9,5.4-2.5,13.1-56.5,4-53,7-4.4,18.1-1.9,23.6,1,26.7,4,29.1-51.9,10.2-48.1,13.1-6.5-28.7-1.8-26.8,2.9-23.9,7.5-20.3,47.4-13.2,50.3-10.1,6.9-12.7,9.1-6.2c.5-.3,1.2-.2,1.5.3.3.5.2,1.2-.3,1.5l-8.7,6-5.9,10.8,51.7-6.8,54.9-3.9,2.3-11.7,3.1-5.8c.2-.4.6-.6.9-.6s.4,0,.5.1ZM178,83.9l-2.8,23.5,1.7,26.4,6,26.3,46-12.6,50-9.9-3.7-27.2-1-27,1.9-23.9,4.2-17.4-49,9.8-46.2,12.9-7,18.9Z"/>
  <path class="st0" d="M596.9,326.9s0,0-.1,0c-.6,0-1,.6-1,1.2l2.4,25.2,7,25.8,11.2,24.4,14.6,21.3,17.2,16.9,18.4,11.1,18.2,4.5,16.9-2.2c.6,0,1-.6.9-1.2,0-.6-.6-1-1.2-.9l-16.5,2.1-17.6-4.4-17.8-10.8-16.8-16.5-14.4-21-11.1-24-6.9-25.4-2.3-25c0-.6-.5-1-1.1-1Z"/>
  <path class="st0" d="M596.9,326.9c-.1,0-.2,0-.4,0l-21.9,7.5-24,6.2c-.6.1-.9.7-.8,1.3.1.6.7.9,1.3.8l24.1-6.2,22-7.5c.6-.2.9-.8.7-1.4-.2-.4-.6-.7-1-.7Z"/>
  <path class="st0" d="M632,262.1c-.2,0-.4,0-.5.1l-14.4,8.2-24.6,8.5-27.6,7.2-8.2,13.8-5,18.6-1.8,23c0,.6.4,1.1,1,1.2.6,0,1.1-.4,1.2-1l1.8-22.8,4.9-18.3,7.5-12.7,26.8-7,24.9-8.6,14.6-8.3c.5-.3.7-1,.4-1.5-.2-.3-.6-.5-.9-.5Z"/>
  <path class="st0" d="M612.6,142.8c-.5,0-.9.3-1,.8l-7,27-9,24.2-10.5,19.7-11,13.8-10.8,7.1-10,.3c-.6,0-1.1.5-1.1,1.1,0,.6.6,1,1.1,1.1l10.6-.3,11.7-7.8,11.2-14.1,10.6-20,9.1-24.4,7-27.1c.1-.6-.2-1.2-.8-1.3,0,0-.2,0-.3,0Z"/>
  <path class="st0" d="M502.9,128.2l-2.7,28.7-3.4,25.1-3.8,20.7-4,15-3.7,7.7-3.2,1c-.6.2-.9.8-.7,1.3.2.6.8.9,1.3.7l4.1-1.3,4.2-8.8,4.1-15.3,3.9-20.9,3.4-25.2,2.5-26.6,54.5,5.6,53.2,8.7c.6.1,1.1-.3,1.2-.9,0-.6-.3-1.1-.9-1.2l-53.2-8.7-56.7-5.8Z"/>
  <path class="st0" d="M391.1,126.4l-57.1,4-55.3,7.2,6.7,28.5,8.5,24.7,10,20.4,11.1,14.9,11.1,7.9,10.4.6c.6,0,1.1-.4,1.1-1,0-.6-.4-1.1-1-1.1l-9.8-.5-10.4-7.4-10.7-14.4-9.9-20.1-8.4-24.5-6.1-26,52.8-6.9,54.9-3.8,1.9,26.7,2.7,25.3,3.2,21,3.5,15.3,3.8,9.1,3.8,1.4c.6.2,1.2,0,1.4-.6.2-.6,0-1.2-.6-1.4l-2.9-1.1-3.4-8-3.4-15.1-3.2-20.8-2.7-25.2-2-28.8Z"/>
  <path class="st0" d="M182.7,160l-43.1,15.7-36.6,17.6-30.4,19.5-22.5,20-8.7-23.6-2.7-25.5c0-.6-.6-1-1.2-1-.6,0-1,.6-1,1.2l2.8,25.9,9.9,26.7,24.7-22,30.1-19.4,36.4-17.5,41-15,9.9,25.3,13.7,23.5,16.3,19.1,17.5,13.1,17.5,6.3,16.4-.8c.6,0,1.1-.5,1-1.1,0-.6-.5-1-1.1-1l-15.9.8-16.9-6.1-17-12.8-15.9-18.7-13.5-23.2-10.6-27.1Z"/>
  <path class="st0" d="M37.6,182.9c-.3,0-.7.2-.9.4l-17.1,23.2-9.5,23.9v.3s3,25.3,3,25.3l10,24.1,16.5,21.2,21.7,16.9,25.5,11.4,27.4,5.2h.1s27.6-1.5,27.6-1.5l26.1-8,6.6-14.9,21.6-12.7,16.7-17.8c.4-.4.4-1.1,0-1.5-.4-.4-1.1-.4-1.5,0l-16.6,17.7-21.8,12.7-6.5,14.6-25,7.7-27.1,1.5-27-5.1-25-11.2-21.3-16.6-16.1-20.8-9.8-23.6-2.8-24.6,9.3-23.3,16.8-22.9c.4-.5.3-1.2-.2-1.5-.2-.1-.4-.2-.6-.2Z"/>
  <path class="st0" d="M212.1,278.1c-.3,0-.7.2-.9.4l-22.7,31.2-22.3,13.9-1.8,15.6,3,15.1c.1.6.7,1,1.3.8.6-.1,1-.7.8-1.3l-3-14.7,1.7-14.3,21.9-13.8,22.8-31.4c.4-.5.2-1.2-.2-1.5-.2-.1-.4-.2-.6-.2Z"/>
  <path class="st0" d="M222.7,268.6l-1.7,1.1-4,24.4-10.7,23.1-16.7,20.2-21.7,16c-.5.4-.6,1-.2,1.5.4.5,1,.6,1.5.2l22-16.2,17.1-20.6,10.9-23.6,3.5-21.4,4.6,9.1c.3.5.9.7,1.5.5.5-.3.7-.9.5-1.4l-6.4-12.7Z"/>
  <path class="st0" d="M226.3,266.5s0,0-.1,0c-.6,0-1,.6-.9,1.2l1.8,14.2c0,.6.6,1,1.2.9.6,0,1-.6.9-1.2l-1.8-14.2c0-.5-.5-.9-1.1-.9Z"/>
  <path class="st0" d="M255.1,269.1l8.6,22.5,2.3,23.1-3.2,25-8.5,25-13.2,23.2-16.4,19.2-19.5-11.8-16.8-13.7-23.8,13.4-24.6,7.1-24.3.6-22.5-5.8-19.2-11.9c-.5-.3-1.2-.2-1.5.4-.3.5-.2,1.2.4,1.5l19.6,12.1,22.9,5.9h.1s24.9-.7,24.9-.7l25.1-7.2,22.7-12.7,15.8,12.8,21.2,12.9,17.7-20.8,13.4-23.6,8.6-25.4,3.3-25.5-2.4-23.8-6.7-17.5,17.9,8.7,23.2,8.7c.6.2,1.2,0,1.4-.6.2-.6,0-1.2-.6-1.4l-23.1-8.7-22.7-11.1Z"/>
  <path class="st0" d="M278.5,266.9c-.4,0-.7.2-.9.5-.3.5-.2,1.2.3,1.5l12.3,7.8,9.4,13.8c.3.5,1,.6,1.5.3.5-.3.6-1,.3-1.5l-9.9-14.3-12.5-7.9c-.2-.1-.4-.2-.6-.2Z"/>
  <path class="st0" d="M177.3,266.9l-24.2,15.2-18.8,16.2c-.5.4-.5,1.1-.1,1.5.4.5,1.1.5,1.5.1l18.7-16.1,23.4-14.6,22.1,4,21.1-2.8c.6,0,1-.6.9-1.2,0-.6-.6-1-1.2-.9l-20.7,2.8-22.6-4.1Z"/>
  <path class="st0" d="M220.9,268.2c-.2,0-.4,0-.6.2l-20.1,12.5-15.7,13.4-23.7,5.1-25.7-1.4c-.6,0-1.1.4-1.1,1,0,.6.4,1.1,1,1.1l26,1.4,24.5-5.3,16-13.7,20-12.4c.5-.3.7-1,.3-1.5-.2-.3-.6-.5-.9-.5Z"/>
  <path class="st0" d="M783.2,107.6c-.3,0-.7.2-.9.5-.3.5-.2,1.2.2,1.5l28.6,20.5,21.7,21.5,9.9,21,3.6,23.8-3.1,24.9-9,23-20.9-20.2-28.9-20.2c-.5-.3-1.2-.2-1.5.3-.3.5-.2,1.2.3,1.5l28.7,20.1,23.1,22.4,10.3-26.4,3.1-25.3h0c0-.1-3.7-24.5-3.7-24.5l-10.3-21.6-22-21.8-28.7-20.6c-.2-.1-.4-.2-.6-.2Z"/>
  <path class="st0" d="M783.2,107.6c-.1,0-.3,0-.4,0-.5.2-.8.9-.6,1.4l8.7,20.3,3.1,23.6-2.8,25.5-8.4,25.8c-.2.6.1,1.2.7,1.4.6.2,1.2-.1,1.4-.7l8.5-26.1,2.8-25.9-3.3-24.3-8.8-20.4c-.2-.4-.6-.7-1-.7Z"/>
</svg>