<?xml version="1.0" encoding="UTF-8"?>
<svg id="Layer_1" xmlns="http://www.w3.org/2000/svg" version="1.1" viewBox="0 0 570 732">
  <!-- Generator: Adobe Illustrator 30.1.0, SVG Export Plug-In . SVG Version: 2.1.1 Build 136)  -->
  <defs>
    <style>
      .st0 {
        fill: none;
        stroke: #e6508d;
        stroke-linecap: round;
        stroke-linejoin: round;
        stroke-width: 2px;
      }
    </style>
  </defs>
  <path class="st0" d="M226.4,32.9,204.2,308.5l11.6-35.1,10.6-47.2,6.4-48.1,2.2-48.6-2.2-48.6-6.4-48.1M284.6,277.6l-21.5,1.4-20.1,4.1-17.2,6.6-13.3,8.6-8.3,10M226.4,32.9l2-7.5,5.8-7,9.3-6,12-4.6,14.1-2.9,15.1-1M284.6,55.1l-13.4.9-12.5,2.6-10.7,4.1-8.3,5.4-5.1,6.3-1.8,6.7M284.6,566.4l-44.6-3-41.6-8.6-35.6-13.7-27.5-17.8-17.1-20.8-6-22.3,14.8-20.7M135.4,437.2l27.5-17.8,35.6-13.7,41.6-8.6,44.6-3M284.6,445.8l-72.8,4.9-67.9,14-58.2,22.4-44.9,29.1-28,34-9.8,36.4,27.1-21.6,27.3-23.9,27.7-28.4,27.2-32.4,1-3.9M3,586.6l9.8,36.4,28,34,44.9,29.1,58.2,22.4,67.9,14,72.8,4.9M141.8,465.4l-23.6,37.1-26.2,35.9-26.7,31.9-26.4,27.4-26.2,25.1M284.6,517.5l-37.9-2.5-35.3-7.3-30.3-11.7-23.3-15.1-13.4-16.3M167.4,459.8l-9.7,21.1-22.4,42.5-23.5,39.2-24,35.3-23.6,30.7-23.5,28.4M284.6,654.6l-58.8-3.9-54.8-11.3-46.9-18.1-36.2-23.5-22.6-27.4-7.9-29.4M57.4,541l7.9-29.4,22.6-27.4,36.2-23.5,46.9-18.1,54.8-11.3,58.8-3.9M92,486.9l-6.9,25.8,6.9,25.8M284.6,412.9l-51.6,3.5-48.1,9.9-41.2,15.9-31.8,20.6M92,538.5l19.8,24.1,31.8,20.6,41.2,15.9,48.1,9.9,51.6,3.5M85.6,487.1l-21.4,14.2-25.3,30.7-8.8,32.9,8.8,32.9M284.6,437.7l-65.8,4.4-61.4,12.6-59.5,22.9M39,597.8l25.3,30.7,40.5,26.3,52.6,20.3,61.4,12.6,65.8,4.4M225.1,449.8l-1.8,8.4-11.9,49.5-12.9,47.2-13.6,44.2-13.8,40.4-13.6,35.7-13.6,33.4M196,453.9l-14.9,42.1-18.3,45.1-19.2,42-19.5,38.1-19.3,33.5-19.2,31.2M284.6,466.4l-31.7-2.1-29.6-6.1-16.8-6.5M254.6,447.8l-1.7,16.5-6.2,50.6-6.7,48.5-7,45.5-7.2,41.7-7.1,37.1-7,34.7M284.6,414v313.3M284.6,239l-17.8,1.2-16.6,3.4-14.2,5.5-11,7.1-6.8,8.3-2.4,8.9M228.4,25.3l6.2,48.9,2.1,48.8,4.9-6,7.9-5.1,10.3-4,12-2.5,12.8-.9M226.4,226.2l2-7.5,5.8-7,9.3-6,12-4.6,14.1-2.9,15.1-1M284.6,152.2l-13.4.9-12.5,2.6-10.7,4.1-8.3,5.4-5.1,6.2-1.8,6.7M284.6,312.6l-26.2,1.8-24.5,5-21,8.1-16.2,10.5-10.1,12.2M166.3,389.3l12.2-14.8,19.5-12.7,25.3-9.8,29.6-6.1,31.7-2.1M95.1,483.5l-3,3.3-26.7,24.8-26.4,20.4-26.2,18.1M284.6,371l-37.9,2.5-35.3,7.3-30.3,11.7-23.3,15.1-14.5,17.7-7.8,11.9M284.6,3.8v442M269.5,4.8l1.7,51.2.6,49.6-.6,47.5-1.7,45-2.7,42.1-3.7,38.9-4.7,35.3-5.5,31.6-6.2,27.6-6.7,23.5-7,19.3-7.2,15-7.1,10.7-7,8.6M255.5,7.7l3.2,50.9,1.1,49.5-1.1,47.6-3.2,45.3-5.3,42.6-7.2,39.6-9,36.2-10.6,32.6-11.9,28.8-12.9,24.8-13.6,20.6-13.8,16.4-13.6,12.1-13.6,9.9M243.4,12.3l4.5,50.4,1.5,49.3-1.5,47.8-4.5,45.8-7.5,43.5-10.2,40.7-12.8,37.7-15,34.3-16.9,30.7-18.3,26.9-19.2,22.8-19.5,18.6M234.2,18.3l5.6,49.7,1.9,49.1-1.9,48-5.6,46.5-9.2,44.6-12.5,42.2-15.7,39.5-18.4,36.5-20.7,33.2-22.4,29.5-23.5,25.6-24,21.5-23.6,17.1-23.5,14.9M236.7,123.1l-2.1,48.3-6.2,47.3-10.2,45.8-14,44-17.5,41.7-20.5,39.1-23,36M342.8,32.9,342.8,32.9l-6.4,48.1-2.2,48.6,2.2,48.6,6.4,48.1,10.6,47.2,11.6,35.1M365,308.5l-8.3-10-13.3-8.6-17.2-6.6-20.1-4.1-21.5-1.4M284.6,3.8l15.1,1,14.1,2.9,12,4.6,9.3,6,5.8,7,2,7.5M336.4,81l-1.8-6.7-5.1-6.3-8.3-5.4-10.7-4.1-12.5-2.6-13.4-.9M442,459.6l14.8,20.7-6,22.3-17.1,20.8-27.5,17.8-35.6,13.7-41.6,8.6-44.6,3M284.6,394.1l44.6,3,41.6,8.6,35.6,13.7,27.5,17.8M455.8,476.4l1,3.9,27.2,32.4,27.7,28.4,27.3,23.9,27.1,21.6-9.8-36.4-28-34-44.9-29.1-58.2-22.4-67.9-14-72.8-4.9M284.6,727.3l72.8-4.9,67.9-14,58.2-22.4,44.9-29.1,28-34,9.8-36.4M556.4,623l-26.2-25.1-26.4-27.4-26.7-31.9-26.2-35.9-23.6-37.1M424.9,464.5l-13.4,16.3-23.3,15.1-30.3,11.7-35.3,7.3-37.9,2.5M528.4,657l-23.5-28.4-23.6-30.7-24-35.3-23.5-39.2-22.4-42.5-9.7-21.1M511.7,541l-7.9,29.4-22.6,27.4-36.2,23.5-46.9,18.1-54.8,11.3-58.8,3.9M284.6,427.5l58.8,3.9,54.8,11.3,46.9,18.1,36.2,23.5,22.6,27.4,7.9,29.4M477.1,538.5l6.9-25.8-6.9-25.8M457.3,462.8l-31.8-20.6-41.2-15.9-48.1-9.9-51.6-3.5M284.6,612.4l51.6-3.5,48.1-9.9,41.2-15.9,31.8-20.6,19.8-24.1M530.2,597.8l8.8-32.9-8.8-32.9-25.3-30.7-21.4-14.2M471.3,477.7l-59.5-22.9-61.4-12.6-65.8-4.4M284.6,692.1l65.8-4.4,61.4-12.6,52.6-20.3,40.5-26.3,25.3-30.7M425.4,708.5l-13.6-33.4-13.6-35.7-13.8-40.4-13.6-44.2-12.9-47.2-11.9-49.5-1.8-8.4M483.6,686l-19.2-31.2-19.3-33.5-19.5-38.1-19.2-42-18.3-45.1-14.9-42.1M362.7,451.7l-16.8,6.5-29.6,6.1-31.7,2.1M357.4,722.5l-7-34.7-7.1-37.1-7.2-41.7-7-45.5-6.7-48.5-6.2-50.6-1.7-16.5M353.4,273.4l-2.4-8.9-6.8-8.3-11-7.1-14.2-5.5-16.6-3.4-17.8-1.2M284.6,104.7l12.8.9,12,2.5,10.3,4,7.9,5.1,4.9,6,2.1-48.8,6.2-48.9M284.6,197.1l15.1,1,14.1,2.9,12,4.6,9.3,6,5.8,7,2,7.5M336.4,178.1l-1.8-6.7-5.1-6.2-8.3-5.4-10.7-4.1-12.5-2.6-13.4-.9M382.4,350.2l-10.1-12.2-16.2-10.5-21-8.1-24.5-5-26.2-1.8M284.6,343.8l31.7,2.1,29.6,6.1,25.3,9.8,19.5,12.7,12.2,14.8M556.4,550.1l-26.2-18.1-26.4-20.4-26.7-24.8-3-3.3M433.8,437.2l-7.8-11.9-14.5-17.7-23.3-15.1-30.3-11.7-35.3-7.3-37.9-2.5M357.4,450.7l-7-8.6-7.1-10.7-7.2-15-7-19.3-6.7-23.5-6.2-27.6-5.5-31.6-4.7-35.3-3.7-38.9-2.7-42.1-1.7-45-.6-47.5.6-49.6,1.7-51.2M425.4,464.6l-13.6-9.9-13.6-12.1-13.8-16.4-13.6-20.6-12.9-24.8-11.9-28.8-10.6-32.6-9-36.2-7.2-39.6-5.3-42.6-3.2-45.3-1.1-47.6,1.1-49.5,3.2-50.9M445.1,460.8l-19.5-18.6-19.2-22.8-18.3-26.9-16.9-30.7-15-34.3-12.8-37.7-10.2-40.7-7.5-43.5-4.5-45.8-1.5-47.8,1.5-49.3,4.5-50.4M528.4,516.2l-23.5-14.9-23.6-17.1-24-21.5-23.5-25.6-22.4-29.5-20.7-33.2-18.4-36.5-15.7-39.5-12.5-42.2-9.2-44.6-5.6-46.5-1.9-48,1.9-49.1,5.6-49.7M426,425.3l-23-36-20.5-39.1-17.5-41.7-14-44-10.2-45.8-6.2-47.3-2.1-48.3"/>
</svg>