<?xml version="1.0" encoding="UTF-8" standalone="no"?>
<svg
   id="Layer_1"
   version="1.1"
   viewBox="0 0 570 732"
   sodipodi:docname="grid_funel.svg"
   inkscape:version="1.4 (e7c3feb1, 2024-10-09)"
   xmlns:inkscape="http://www.inkscape.org/namespaces/inkscape"
   xmlns:sodipodi="http://sodipodi.sourceforge.net/DTD/sodipodi-0.dtd"
   xmlns="http://www.w3.org/2000/svg"
   xmlns:svg="http://www.w3.org/2000/svg">
  <sodipodi:namedview
     id="namedview1"
     pagecolor="#ffffff"
     bordercolor="#000000"
     borderopacity="0.25"
     inkscape:showpageshadow="2"
     inkscape:pageopacity="0.0"
     inkscape:pagecheckerboard="0"
     inkscape:deskcolor="#d1d1d1"
     inkscape:zoom="1.1994536"
     inkscape:cx="243.02733"
     inkscape:cy="293.46697"
     inkscape:window-width="1200"
     inkscape:window-height="1027"
     inkscape:window-x="0"
     inkscape:window-y="25"
     inkscape:window-maximized="0"
     inkscape:current-layer="Layer_1" />
  <!-- Generator: Adobe Illustrator 30.1.0, SVG Export Plug-In . SVG Version: 2.1.1 Build 136)  -->
  <defs
     id="defs1">
    <style
       id="style1">
      .st0 {
        fill: none;
        stroke: #e6508d;
        stroke-linecap: round;
        stroke-linejoin: round;
        stroke-width: 2px;
      }
    </style>
  </defs>
  <path
     class="st0"
     d="m 204.2,308.5 11.6,-35.1 10.6,-47.2 6.4,-48.1 2.2,-48.6 -2.2,-48.6 m 51.8,196.7 -21.5,1.4 -20.1,4.1 -17.2,6.6 -13.3,8.6 -8.3,10 m 24.2,-282.9 5.8,-7 9.3,-6 12,-4.6 14.1,-2.9 15.1,-1 m -0.1,51.2 -13.4,0.9 -12.5,2.6 -10.7,4.1 -8.3,5.4 -5.1,6.3 -1.8,6.7 m 51.8,485.3 -44.6,-3 -41.6,-8.6 -35.6,-13.7 -27.5,-17.8 -17.1,-20.8 -6,-22.3 14.8,-20.7 m 8.4,-22.3 27.5,-17.8 35.6,-13.7 41.6,-8.6 44.6,-3 m -0.1,51.7 -72.8,4.9 -67.9,14 -58.2,22.4 -44.9,29.1 -28,34 -9.8,36.4 27.1,-21.6 27.3,-23.9 27.7,-28.4 27.2,-32.4 1,-3.9 M 3,586.6 l 9.8,36.4 28,34 44.9,29.1 58.2,22.4 67.9,14 72.8,4.9 M 141.8,465.4 118.2,502.5 92,538.4 65.3,570.3 38.9,597.7 12.7,622.8 M 284.6,517.5 246.7,515 211.4,507.7 181.1,496 157.8,480.9 144.4,464.6 m 23,-4.8 -9.7,21.1 -22.4,42.5 -23.5,39.2 -24,35.3 L 64.2,628.6 40.7,657 M 284.6,654.6 225.8,650.7 171,639.4 124.1,621.3 87.9,597.8 65.3,570.4 57.4,541 m 0,0 7.9,-29.4 22.6,-27.4 36.2,-23.5 46.9,-18.1 54.8,-11.3 58.8,-3.9 M 92,486.9 85.1,512.7 92,538.5 m 192.6,-125.6 -51.6,3.5 -48.1,9.9 -41.2,15.9 -31.8,20.6 m -19.9,75.7 19.8,24.1 31.8,20.6 41.2,15.9 48.1,9.9 51.6,3.5 M 85.6,487.1 64.2,501.3 38.9,532 l -8.8,32.9 8.8,32.9 m 245.7,-160.1 -65.8,4.4 -61.4,12.6 -59.5,22.9 M 39,597.8 l 25.3,30.7 40.5,26.3 52.6,20.3 61.4,12.6 65.8,4.4 m -59.5,-242.3 -1.8,8.4 -11.9,49.5 -12.9,47.2 -13.6,44.2 -13.8,40.4 -13.6,35.7 -13.6,33.4 M 196,453.9 181.1,496 l -18.3,45.1 -19.2,42 -19.5,38.1 -19.3,33.5 -19.2,31.2 m 199,-219.5 -31.7,-2.1 -29.6,-6.1 -16.8,-6.5 m 48.1,-3.9 -1.7,16.5 -6.2,50.6 -6.7,48.5 -7,45.5 -7.2,41.7 -7.1,37.1 -7,34.7 M 284.6,414 v 313.3 m 0,-488.3 -17.8,1.2 -16.6,3.4 -14.2,5.5 -11,7.1 -6.8,8.3 -2.4,8.9 m 12.6,-248.1 6.2,48.9 2.1,48.8 4.9,-6 7.9,-5.1 10.3,-4 12,-2.5 12.8,-0.9 m -58.2,121.7 2,-7.5 5.8,-7 9.3,-6 12,-4.6 14.1,-2.9 15.1,-1 m -0.1,-45 -13.4,0.9 -12.5,2.6 -10.7,4.1 -8.3,5.4 -5.1,6.2 -1.8,6.7 m 51.8,134.5 -26.2,1.8 -24.5,5 -21,8.1 -16.2,10.5 -10.1,12.2 m -20.3,39.1 12.2,-14.8 19.5,-12.7 25.3,-9.8 29.6,-6.1 31.7,-2.1 M 95.1,483.5 92.1,486.8 65.4,511.6 39,532 12.8,550.1 M 284.6,371 l -37.9,2.5 -35.3,7.3 -30.3,11.7 -23.3,15.1 -14.5,17.7 -7.8,11.9 M 284.6,3.8 v 442 m -15.1,-441 1.7,51.2 0.6,49.6 -0.6,47.5 -1.7,45 -2.7,42.1 -3.7,38.9 -4.7,35.3 -5.5,31.6 -6.2,27.6 -6.7,23.5 -7,19.3 -7.2,15 -7.1,10.7 -7,8.6 m 43.8,-443 3.2,50.9 1.1,49.5 -1.1,47.6 -3.2,45.3 -5.3,42.6 -7.2,39.6 -9,36.2 -10.6,32.6 -11.9,28.8 -12.9,24.8 -13.6,20.6 -13.8,16.4 -13.6,12.1 -13.6,9.9 m 99.4,-452.3 4.5,50.4 1.5,49.3 -1.5,47.8 -4.5,45.8 -7.5,43.5 -10.2,40.7 -12.8,37.7 -15,34.3 -16.9,30.7 -18.3,26.9 -19.2,22.8 -19.5,18.6 m 110.2,-442.5 5.6,49.7 1.9,49.1 -1.9,48 -5.6,46.5 -9.2,44.6 -12.5,42.2 -15.7,39.5 -18.4,36.5 -20.7,33.2 -22.4,29.5 -23.5,25.6 -24,21.5 -23.6,17.1 -23.5,14.9 m 196,-393.1 -2.1,48.3 -6.2,47.3 -10.2,45.8 -14,44 -17.5,41.7 -20.5,39.1 -23,36 M 336.4,81 l -2.2,48.6 2.2,48.6 6.4,48.1 10.6,47.2 11.6,35.1 m 0,-0.1 -8.3,-10 -13.3,-8.6 -17.2,-6.6 -20.1,-4.1 -21.5,-1.4 m 0,-274 15.1,1 14.1,2.9 12,4.6 9.3,6 5.8,7 M 336.4,81 334.6,74.3 329.5,68 321.2,62.6 310.5,58.5 298,55.9 284.6,55 m 157.4,404.6 14.8,20.7 -6,22.3 -17.1,20.8 -27.5,17.8 -35.6,13.7 -41.6,8.6 -44.6,3 m 0.2,-172.4 44.6,3 41.6,8.6 35.6,13.7 27.5,17.8 m 21.9,39.2 1,3.9 27.2,32.4 27.7,28.4 27.3,23.9 27.1,21.6 -9.8,-36.4 -28,-34 -44.9,-29.1 -58.2,-22.4 -67.9,-14 -72.8,-4.9 m 0.1,281.5 72.8,-4.9 67.9,-14 58.2,-22.4 44.9,-29.1 28,-34 9.8,-36.4 m -9.8,36.5 -26.2,-25.1 -26.4,-27.4 -26.7,-31.9 -26.2,-35.9 -23.6,-37.1 m -2.4,-1.1 -13.4,16.3 -23.3,15.1 -30.3,11.7 -35.3,7.3 -37.9,2.5 m 243.7,139.6 -23.5,-28.4 -23.6,-30.7 -24,-35.3 -23.5,-39.2 -22.4,-42.5 -9.7,-21.1 m 110,81.2 -7.9,29.4 -22.6,27.4 -36.2,23.5 -46.9,18.1 -54.8,11.3 -58.8,3.9 m 0.1,-227.1 58.8,3.9 54.8,11.3 46.9,18.1 36.2,23.5 22.6,27.4 7.9,29.4 m -34.7,-2.6 6.9,-25.8 -6.9,-25.8 m -19.8,-24.1 -31.8,-20.6 -41.2,-15.9 -48.1,-9.9 -51.6,-3.5 m 0,199.5 51.6,-3.5 48.1,-9.9 41.2,-15.9 31.8,-20.6 19.8,-24.1 m 53.1,59.4 8.8,-32.9 -8.8,-32.9 -25.3,-30.7 -21.4,-14.2 m -12.2,-9.4 -59.5,-22.9 -61.4,-12.6 -65.8,-4.4 m 0,254.3 65.8,-4.4 61.4,-12.6 52.6,-20.3 40.5,-26.3 25.3,-30.7 M 425.4,708.5 411.8,675.1 398.2,639.4 384.4,599 370.8,554.8 357.9,507.6 346,458.1 344.2,449.7 M 483.6,686 464.4,654.8 445.1,621.3 425.6,583.2 406.4,541.2 388.1,496.1 373.2,454 m -10.5,-2.3 -16.8,6.5 -29.6,6.1 -31.7,2.1 m 72.8,256.1 -7,-34.7 -7.1,-37.1 -7.2,-41.7 -7,-45.5 -6.7,-48.5 -6.2,-50.6 -1.7,-16.5 m 38.9,-174.5 -2.4,-8.9 -6.8,-8.3 -11,-7.1 -14.2,-5.5 -16.6,-3.4 -17.8,-1.2 m 0,-134.3 12.8,0.9 12,2.5 10.3,4 7.9,5.1 4.9,6 2.1,-48.8 6.2,-48.9 m -56.2,171.6 15.1,1 14.1,2.9 12,4.6 9.3,6 5.8,7 2,7.5 m -6.5,-48 -1.8,-6.7 -5.1,-6.2 -8.3,-5.4 -10.7,-4.1 -12.5,-2.6 -13.4,-0.9 m 97.8,198 -10.1,-12.2 -16.2,-10.5 -21,-8.1 -24.5,-5 -26.2,-1.8 m 0.2,31.2 31.7,2.1 29.6,6.1 25.3,9.8 19.5,12.7 12.2,14.8 m 153.5,160.8 -26.2,-18.1 -26.4,-20.4 -26.7,-24.8 -3,-3.3 M 433.8,437.2 426,425.3 411.5,407.6 388.2,392.5 357.9,380.8 322.6,373.5 284.7,371 m 72.7,79.7 -7,-8.6 -7.1,-10.7 -7.2,-15 -7,-19.3 -6.7,-23.5 -6.2,-27.6 -5.5,-31.6 -4.7,-35.3 -3.7,-38.9 -2.7,-42.1 -1.7,-45 -0.6,-47.5 0.6,-49.6 1.7,-51.2 M 425.4,464.6 411.8,454.7 398.2,442.6 384.4,426.2 370.8,405.6 357.9,380.8 346,352 l -10.6,-32.6 -9,-36.2 -7.2,-39.6 -5.3,-42.6 -3.2,-45.3 -1.1,-47.6 1.1,-49.5 3.2,-50.9 m 131.2,453.1 -19.5,-18.6 -19.2,-22.8 -18.3,-26.9 -16.9,-30.7 -15,-34.3 -12.8,-37.7 -10.2,-40.7 -7.5,-43.5 -4.5,-45.8 -1.5,-47.8 1.5,-49.3 4.5,-50.4 m 202.7,503.9 -23.5,-14.9 -23.6,-17.1 -24,-21.5 -23.5,-25.6 -22.4,-29.5 -20.7,-33.2 -18.4,-36.5 -15.7,-39.5 -12.5,-42.2 -9.2,-44.6 -5.6,-46.5 -1.9,-48 1.9,-49.1 5.6,-49.7 m 91.1,407 -23,-36 -20.5,-39.1 -17.5,-41.7 -14,-44 -10.2,-45.8 -6.2,-47.3 -2.1,-48.3"
     id="path1"
     sodipodi:nodetypes="cccccccccccccccccccccccccccccccccccccccccccccccccccccccccccccccccccccccccccccccccccccccccccccccccccccccccccccccccccccccccccccccccccccccccccccccccccccccccccccccccccccccccccccccccccccccccccccccccccccccccccccccccccccccccccccccccccccccccccccccccccccccccccccccccccccccccccccccccccccccccccccccccccccccccccccccccccccccccccccccccccccccccccccccccccccccccccccccccccccccccccccccccccccccccccccccccccccccccccccccccccccccccccccccccccccccccccccccccccccccccccccccccccccccccccccccccccccccccccccccccccccccccccccccccccccccccccccccccccccccccccccccccccccc" />
</svg>
